<svg width="24" height="24" viewBox="0 0 24 24" fill="none" xmlns="http://www.w3.org/2000/svg">
<path d="M3.76398 5.45597C3.67315 5.50544 3.56324 5.50464 3.47314 5.45385L2.38713 4.84158C2.18232 4.72611 2.1839 4.43064 2.38992 4.31736L9.80028 0.242988C9.99962 0.133388 10.2436 0.276851 10.2448 0.504329L10.2512 1.74248C10.2518 1.85287 10.1916 1.95466 10.0947 2.00747L3.76398 5.45597ZM14.264 0.243014C14.0647 0.133405 13.8206 0.276867 13.8195 0.50435L13.8131 1.74249C13.8125 1.85288 13.8726 1.95466 13.9696 2.00747L20.2996 5.45596C20.3904 5.50544 20.5003 5.50464 20.5904 5.45384L21.6765 4.84156C21.8813 4.7261 21.8797 4.43064 21.6737 4.31735L14.264 0.243014ZM3.76399 18.544C3.67316 18.4946 3.56324 18.4954 3.47314 18.5462L2.38711 19.1584C2.18231 19.2739 2.18388 19.5694 2.38989 19.6826L9.79957 23.757C9.99891 23.8666 10.2429 23.7231 10.2441 23.4957L10.2505 22.2575C10.2511 22.1471 10.1909 22.0453 10.094 21.9925L3.76399 18.544ZM0.519753 7.73569C0.321075 7.63124 0.0822664 7.77398 0.0801672 7.99843L0.0047245 16.0648C0.00259523 16.2925 0.244889 16.4395 0.44581 16.3324L1.62061 15.7063C1.71794 15.6544 1.77896 15.5533 1.77951 15.443L1.81373 8.59867C1.81429 8.4867 1.75244 8.38373 1.65333 8.33163L0.519753 7.73569ZM22.2205 15.4431C22.221 15.5533 22.2821 15.6544 22.3794 15.7063L23.5542 16.3324C23.7551 16.4395 23.9974 16.2925 23.9953 16.0648L23.9198 7.99817C23.9177 7.77378 23.679 7.63104 23.4804 7.73537L22.3461 8.33099C22.2469 8.38307 22.185 8.48609 22.1856 8.59812L22.2205 15.4431ZM21.6737 19.6826C21.8797 19.5694 21.8813 19.2739 21.6765 19.1584L20.5904 18.5462C20.5003 18.4954 20.3904 18.4946 20.2996 18.544L13.9696 21.9925C13.8726 22.0453 13.8125 22.1471 13.8131 22.2575L13.8195 23.4957C13.8206 23.7231 14.0647 23.8666 14.264 23.757L21.6737 19.6826ZM14.3723 17.966C14.3723 19.1887 13.2951 20.1831 11.97 20.1831C10.6448 20.1831 9.56836 19.1887 9.56836 17.966C9.56836 16.7432 10.6456 15.7489 11.97 15.7489C13.2944 15.7489 14.3723 16.7432 14.3723 17.966ZM15.5172 7.37189C15.5177 7.37209 15.5178 7.37261 15.5176 7.37304L12.6311 13.0957C12.6227 13.1124 12.6158 13.1299 12.6106 13.148L12.6064 13.1627C12.5414 13.4441 12.2674 13.6479 11.9559 13.6479C11.6558 13.6479 11.3826 13.4533 11.3093 13.1809C11.3037 13.1601 11.2973 13.1395 11.2885 13.1198L8.69409 7.3138C8.68503 7.29354 8.67817 7.27232 8.67411 7.2505C8.55238 6.59659 8.71628 5.91338 9.12617 5.36822C9.79933 4.47407 10.861 3.95298 12.0406 3.93771C12.0597 3.93771 12.0781 3.93771 12.0964 3.93771C13.2556 3.93771 14.3073 4.43159 14.9946 5.29387L15.0377 5.34764C15.5009 5.92895 15.6754 6.6655 15.5168 7.37093C15.5167 7.37132 15.5169 7.37172 15.5172 7.37189Z" fill="current"/>
</svg>
