<svg width="32" height="32" viewBox="0 0 32 32" fill="none" xmlns="http://www.w3.org/2000/svg">
<rect width="32" height="32" rx="4" fill="#010003" fill-opacity="0.8"/>
<g clip-path="url(#clip0_4055_3215)">
<path d="M17.5559 11.6266C15.2731 11.7109 9.61056 12.3531 9.61056 17.1344C9.61056 22.2672 16.0934 22.4781 18.2121 19.1594C18.5168 19.6375 19.8715 20.9172 20.3356 21.3531L22.9981 18.7281C22.9981 18.7281 21.484 17.5422 21.484 16.2531V9.35781C21.484 8.17188 20.3356 5.5 16.2199 5.5C12.0949 5.5 9.90587 8.07813 9.90587 10.3891L13.3512 10.7078C14.1152 8.3875 15.8918 8.3875 15.8918 8.3875C17.7996 8.38281 17.5559 9.78437 17.5559 11.6266ZM17.5559 15.6953C17.5559 19.4453 13.609 18.8828 13.609 16.5016C13.609 14.2891 15.9762 13.8437 17.5559 13.7922V15.6953ZM23.9309 23.3594C23.5699 23.8281 20.6496 26.5 15.7512 26.5C10.8527 26.5 7.10275 23.1484 5.95431 21.7656C5.63556 21.4047 6.00118 21.2359 6.21212 21.3766C9.64806 23.4625 15.0152 26.8984 23.6731 22.7969C24.0246 22.6234 24.2965 22.8906 23.9309 23.3594ZM25.7965 23.4625C25.4918 24.2031 25.0465 24.7188 24.8027 24.9156C24.5449 25.1266 24.3574 25.0422 24.4981 24.7375C24.6387 24.4328 25.4027 22.5578 25.0934 22.1594C24.7887 21.7703 23.359 21.9578 22.8434 22.0094C22.3371 22.0563 22.234 22.1031 22.1871 21.9953C22.0793 21.7281 23.2043 21.2687 23.9449 21.175C24.6809 21.0906 25.8668 21.1375 26.1012 21.4422C26.2746 21.6813 26.1012 22.7125 25.7965 23.4625Z" fill="white"/>
</g>
<defs>
<clipPath id="clip0_4055_3215">
<rect width="21" height="24" fill="white" transform="translate(5.5 4)"/>
</clipPath>
</defs>
</svg>
