<svg width="20" height="20" viewBox="1 1 17 20" fill="none" xmlns="http://www.w3.org/2000/svg">
  <path d="M15.5912 13.1558C15.5137 13.234 15.4216 13.2959 15.32 13.3383C15.2185 13.3806 15.1095 13.4023 14.9995 13.4023C14.8895 13.4023 14.7806 13.3806 14.679 13.3383C14.5775 13.2959 14.4853 13.234 14.4079 13.1558L10.5912 9.33919C10.5137 9.26108 10.4216 9.19909 10.32 9.15678C10.2185 9.11447 10.1095 9.09269 9.99952 9.09269C9.88951 9.09269 9.78059 9.11447 9.67904 9.15678C9.57749 9.19909 9.48532 9.26108 9.40785 9.33919L5.59119 13.1558C5.51372 13.234 5.42155 13.2959 5.32 13.3383C5.21845 13.3806 5.10953 13.4023 4.99952 13.4023C4.88951 13.4023 4.78059 13.3806 4.67904 13.3383C4.57749 13.2959 4.48532 13.234 4.40785 13.1558C4.25265 12.9997 4.16553 12.7885 4.16553 12.5683C4.16553 12.3482 4.25265 12.137 4.40785 11.9808L8.23285 8.15586C8.70161 7.68769 9.33702 7.42472 9.99952 7.42472C10.662 7.42472 11.2974 7.68769 11.7662 8.15586L15.5912 11.9808C15.7464 12.137 15.8335 12.3482 15.8335 12.5683C15.8335 12.7885 15.7464 12.9997 15.5912 13.1558Z" fill="currentColor"/>
</svg>
  