<svg width="24" height="24" viewBox="0 0 24 24" fill="none" xmlns="http://www.w3.org/2000/svg">
<rect width="24" height="24" rx="12" fill="white"/>
<path d="M12.0001 4C11.9704 4 11.9305 4.00872 11.9125 4.01744L5.78751 6.78487C5.60392 6.56539 5.32033 6.41858 5.00001 6.41858C4.45 6.41858 4 6.83719 4 7.34881C4 7.79648 4.34532 8.17439 4.80001 8.26159V15.3488C4.80157 15.412 4.84063 15.4738 4.90001 15.5058L11.0562 18.7791C11.0226 18.8714 11 18.9673 11 19.0698C11 19.5814 11.45 20 12 20C12.55 20 13 19.5814 13 19.0698C13 18.9673 12.9774 18.8714 12.9438 18.7791L19.1 15.5058C19.1594 15.4738 19.1984 15.412 19.2 15.3488V8.26159C19.6547 8.17438 20 7.79648 20 7.34881C20 6.83719 19.55 6.41858 19 6.41858C18.6797 6.41858 18.3961 6.56539 18.2125 6.78487L12.0875 4.01744C12.0507 4.00073 12.0297 4 12.0001 4ZM12.0001 4.38954L18.0313 7.12218C18.011 7.19558 18 7.27044 18 7.34893C18 7.7966 18.3454 8.17451 18.8 8.26171V15.2384L12.7438 18.4592C12.5602 18.2667 12.2969 18.1395 12 18.1395C11.7032 18.1395 11.4399 18.2667 11.2563 18.4592L5.20004 15.2384V8.26171C5.65472 8.1745 6.00004 7.7966 6.00004 7.34893C6.00004 7.26754 5.98364 7.19196 5.96254 7.11638L12.0001 4.38954ZM5.00001 6.79065C5.21641 6.79065 5.40705 6.89385 5.51251 7.05227C5.5172 7.09078 5.53439 7.12785 5.56251 7.15692C5.58595 7.21651 5.60001 7.28119 5.60001 7.34877C5.60001 7.65909 5.33361 7.9069 5.00001 7.9069C4.6664 7.9069 4.4 7.65909 4.4 7.34877C4.4 7.03844 4.6664 6.79065 5.00001 6.79065ZM19.0001 6.79065C19.3337 6.79065 19.6001 7.03846 19.6001 7.34878C19.6001 7.65911 19.3337 7.90692 19.0001 7.90692C18.6665 7.90692 18.4001 7.65911 18.4001 7.34878C18.4001 7.03846 18.6665 6.79065 19.0001 6.79065ZM11.9562 7.34878C11.9406 7.35315 11.9266 7.35896 11.9125 7.36623L8.11248 9.13366C8.04529 9.16418 7.99919 9.2325 7.99998 9.30226V13.5813C7.99998 13.6438 8.03669 13.7049 8.09373 13.7383L11.8937 15.8778C11.957 15.9149 12.043 15.9149 12.1063 15.8778L15.9063 13.7383C15.9633 13.7049 16 13.6438 16 13.5813V9.30226C16.0008 9.2325 15.9547 9.16418 15.8875 9.13366L12.0875 7.36623C12.0477 7.3466 12.0008 7.34079 11.9562 7.34878ZM12 7.73833L15.4624 9.34878L12 11.0406L8.53758 9.34878L12 7.73833ZM8.39998 9.70334L11.8 11.3661V15.3894L8.39998 13.4709V9.70334ZM15.6 9.70334V13.4708L12.2 15.3893V11.366L15.6 9.70334ZM12 18.5115C12.2133 18.5115 12.4 18.6125 12.5062 18.7673C12.5133 18.7862 12.5242 18.8036 12.5375 18.8196C12.5773 18.8945 12.6 18.9795 12.6 19.0696C12.6 19.38 12.3336 19.6278 12 19.6278C11.6664 19.6278 11.4 19.38 11.4 19.0696C11.4 18.7593 11.6664 18.5115 12 18.5115Z" fill="black" stroke="black" stroke-width="0.25"/>
</svg>
