<svg width="24" height="24" viewBox="0 0 24 24" fill="none" xmlns="http://www.w3.org/2000/svg">
<g clip-path="url(#clip0_3065_21584)">
<path d="M22.49 12.13L18.5 9.85V5.3C18.5 4.23 17.92 3.23 16.99 2.7L13.49 0.699998C12.57 0.179998 11.43 0.179998 10.51 0.699998L7.01 2.7C6.08 3.23 5.5 4.23 5.5 5.3V9.85L1.51 12.13C0.58 12.66 0 13.66 0 14.73V18.69C0 19.76 0.58 20.76 1.51 21.29L5.01 23.29C5.47 23.55 5.98 23.68 6.5 23.68C7.02 23.68 7.53 23.55 7.99 23.29L12 21L16.01 23.29C16.47 23.55 16.98 23.68 17.5 23.68C18.02 23.68 18.53 23.55 18.99 23.29L22.49 21.29C23.42 20.76 24 19.76 24 18.69V14.73C24 13.66 23.42 12.66 22.49 12.13ZM17.5 15.56L14.02 13.57L17.5 11.58L20.98 13.57L17.5 15.56ZM6.5 15.56L3.02 13.57L6.5 11.58L9.98 13.57L6.5 15.56ZM11 7.86V11.84L7.5 9.84V5.86L11 7.86ZM16.5 5.86V9.84L13 11.84V7.86L16.5 5.86ZM11.5 2.43C11.8 2.26 12.19 2.26 12.49 2.43L15.48 4.14L12 6.13L8.52 4.14L11.51 2.43H11.5ZM2.5 19.56C2.19 19.38 2 19.05 2 18.69V15.29L5.5 17.29V21.27L2.5 19.56ZM7.5 21.27V17.29L11 15.29V19.27L7.5 21.27ZM13 19.27V15.29L16.5 17.29V21.27L13 19.27ZM21.5 19.56L18.5 21.27V17.29L22 15.29V18.69C22 19.05 21.81 19.38 21.5 19.56Z" fill="current"/>
</g>
<defs>
<clipPath id="clip0_3065_21584">
<rect width="24" height="24" fill="current"/>
</clipPath>
</defs>
</svg>
