<svg width="24" height="24" viewBox="0 0 24 24" fill="none" xmlns="http://www.w3.org/2000/svg">
<path d="M23.7073 0.292786C23.5197 0.105315 23.2654 0 23.0003 0C22.7351 0 22.4808 0.105315 22.2933 0.292786L12.0003 10.5858L1.70727 0.292786C1.51975 0.105315 1.26544 0 1.00027 0C0.735111 0 0.480802 0.105315 0.293275 0.292786C0.105804 0.480314 0.000488281 0.734622 0.000488281 0.999786C0.000488281 1.26495 0.105804 1.51926 0.293275 1.70679L10.5863 11.9998L0.293275 22.2928C0.105804 22.4803 0.000488281 22.7346 0.000488281 22.9998C0.000488281 23.2649 0.105804 23.5193 0.293275 23.7068C0.480802 23.8943 0.735111 23.9996 1.00027 23.9996C1.26544 23.9996 1.51975 23.8943 1.70727 23.7068L12.0003 13.4138L22.2933 23.7068C22.4808 23.8943 22.7351 23.9996 23.0003 23.9996C23.2654 23.9996 23.5197 23.8943 23.7073 23.7068C23.8947 23.5193 24.0001 23.2649 24.0001 22.9998C24.0001 22.7346 23.8947 22.4803 23.7073 22.2928L13.4143 11.9998L23.7073 1.70679C23.8947 1.51926 24.0001 1.26495 24.0001 0.999786C24.0001 0.734622 23.8947 0.480314 23.7073 0.292786Z" fill="#FCFCF9"/>
</svg>
