<svg width="22" height="22" viewBox="0 0 22 22" fill="current" xmlns="http://www.w3.org/2000/svg">
<path d="M10.9987 0.332031C5.1107 0.332031 0.332031 5.1107 0.332031 10.9987C0.332031 16.8867 5.1107 21.6654 10.9987 21.6654C16.8867 21.6654 21.6654 16.8867 21.6654 10.9987C21.6654 5.1107 16.8867 0.332031 10.9987 0.332031ZM8.10803 15.5747L4.2787 11.7454C3.8627 11.3294 3.8627 10.6574 4.2787 10.2414C4.6947 9.82537 5.3667 9.82537 5.7827 10.2414L8.86537 13.3134L16.204 5.9747C16.62 5.5587 17.292 5.5587 17.708 5.9747C18.124 6.3907 18.124 7.0627 17.708 7.4787L9.61203 15.5747C9.2067 15.9907 8.52403 15.9907 8.10803 15.5747Z"/>
</svg>
