<svg width="16" height="16" viewBox="0 0 16 16" fill="current" xmlns="http://www.w3.org/2000/svg">
<path d="M8 0C6.41775 0 4.87103 0.469192 3.55544 1.34824C2.23985 2.22729 1.21447 3.47672 0.608967 4.93853C0.00346629 6.40034 -0.15496 8.00887 0.153721 9.56072C0.462403 11.1126 1.22433 12.538 2.34315 13.6569C3.46197 14.7757 4.88743 15.5376 6.43928 15.8463C7.99113 16.155 9.59966 15.9965 11.0615 15.391C12.5233 14.7855 13.7727 13.7602 14.6518 12.4446C15.5308 11.129 16 9.58225 16 8C15.9977 5.87897 15.1541 3.84547 13.6543 2.34568C12.1545 0.845885 10.121 0.00229405 8 0ZM8 14.6667C6.68146 14.6667 5.39253 14.2757 4.2962 13.5431C3.19987 12.8106 2.34539 11.7694 1.84081 10.5512C1.33622 9.33305 1.2042 7.9926 1.46143 6.6994C1.71867 5.40619 2.35361 4.2183 3.28596 3.28595C4.21831 2.3536 5.40619 1.71867 6.6994 1.46143C7.99261 1.2042 9.33305 1.33622 10.5512 1.8408C11.7694 2.34539 12.8106 3.19987 13.5431 4.2962C14.2757 5.39253 14.6667 6.68146 14.6667 8C14.6647 9.76751 13.9617 11.4621 12.7119 12.7119C11.4621 13.9617 9.76751 14.6647 8 14.6667Z" />
<path d="M7.44042 10.6663C7.35636 10.6664 7.27312 10.6499 7.19545 10.6177C7.11778 10.5856 7.0472 10.5385 6.98774 10.479L4.8545 8.34579C4.73444 8.22573 4.66699 8.0629 4.66699 7.89311C4.66699 7.72333 4.73444 7.56049 4.8545 7.44044C4.97455 7.32038 5.13739 7.25293 5.30717 7.25293C5.47696 7.25293 5.63979 7.32038 5.75985 7.44044L7.44042 9.12144L11.0409 5.52051C11.161 5.40046 11.3238 5.33301 11.4936 5.33301C11.6634 5.33301 11.8262 5.40046 11.9463 5.52051C12.0663 5.64057 12.1338 5.8034 12.1338 5.97319C12.1338 6.14297 12.0663 6.30581 11.9463 6.42586L7.89309 10.479C7.83364 10.5385 7.76306 10.5856 7.68539 10.6177C7.60772 10.6499 7.52448 10.6664 7.44042 10.6663Z" />
</svg>
