<svg
    width="6"
    height="10"
    viewBox="0 0 6 10"
    fill="none"
    xmlns="http://www.w3.org/2000/svg"
>
    <path
      d="M2.06641 5.47334C2.00393 5.41136 1.95433 5.33763 1.92048 5.25639C1.88664 5.17515 1.86921 5.08801 1.86921 5C1.86921 4.912 1.88664 4.82486 1.92048 4.74362C1.95433 4.66238 2.00393 4.58865 2.06641 4.52667L5.12641 1.47334C5.1889 1.41136 5.23849 1.33763 5.27234 1.25639C5.30619 1.17515 5.32361 1.08801 5.32361 1C5.32361 0.911997 5.30619 0.824859 5.27234 0.74362C5.23849 0.66238 5.1889 0.588646 5.12641 0.526671C5.0015 0.402504 4.83253 0.332809 4.65641 0.332809C4.48029 0.332809 4.31132 0.402504 4.18641 0.526671L1.12641 3.58667C0.751876 3.96167 0.541504 4.47 0.541504 5C0.541504 5.53001 0.751876 6.03834 1.12641 6.41334L4.18641 9.47334C4.31058 9.5965 4.47818 9.66593 4.65308 9.66667C4.74082 9.66718 4.82779 9.65036 4.90902 9.61719C4.99024 9.58401 5.06412 9.53512 5.12641 9.47334C5.1889 9.41136 5.23849 9.33763 5.27234 9.25639C5.30619 9.17515 5.32361 9.08801 5.32361 9C5.32361 8.912 5.30619 8.82486 5.27234 8.74362C5.23849 8.66238 5.1889 8.58865 5.12641 8.52667L2.06641 5.47334Z"
      fill="#FCFCF9"
    />
</svg>
