<svg width="20" height="16" viewBox="0 0 20 16" fill="none" xmlns="http://www.w3.org/2000/svg">
<path d="M13.25 0H6.75C3.03 0 0 3.03 0 6.75V13.25C0 14.77 1.23 16 2.75 16H3.06C5.14 16 7.01 14.61 7.61 12.61L8.09 11H11.91L12.39 12.62C12.99 14.61 14.86 16 16.94 16H17.25C18.77 16 20 14.77 20 13.25V6.75C20 3.03 16.97 0 13.25 0ZM18.5 13.25C18.5 13.94 17.94 14.5 17.25 14.5H16.94C15.52 14.5 14.24 13.55 13.83 12.19L13.19 10.04C13.09 9.72 12.8 9.5 12.47 9.5H7.53C7.2 9.5 6.91 9.72 6.81 10.04L6.17 12.18C5.76 13.55 4.48 14.5 3.06 14.5H2.75C2.06 14.5 1.5 13.94 1.5 13.25V6.75C1.5 3.85 3.86 1.5 6.75 1.5H13.25C16.14 1.5 18.5 3.85 18.5 6.75V13.25Z" fill="current"/>
<path d="M8 6C8 6.41 7.66 6.75 7.25 6.75H6.75V7.25C6.75 7.66 6.41 8 6 8C5.59 8 5.25 7.66 5.25 7.25V6.75H4.75C4.34 6.75 4 6.41 4 6C4 5.59 4.34 5.25 4.75 5.25H5.25V4.75C5.25 4.34 5.59 4 6 4C6.41 4 6.75 4.34 6.75 4.75V5.25H7.25C7.66 5.25 8 5.59 8 6Z" fill="current"/>
<path d="M12 8C11.74 8 11.48 7.89 11.29 7.71C11.2 7.61 11.13 7.5 11.08 7.38C11.03 7.26 11 7.13 11 7C11 6.74 11.11 6.48 11.29 6.29C11.57 6.02 12.01 5.92 12.38 6.08C12.51 6.13 12.61 6.2 12.71 6.29C12.89 6.48 13 6.74 13 7C13 7.13 12.97 7.26 12.92 7.38C12.87 7.5 12.8 7.61 12.71 7.71C12.61 7.8 12.51 7.87 12.38 7.92C12.26 7.97 12.13 8 12 8Z" fill="current"/>
<path d="M15 6.00006C14.93 6.00006 14.87 5.99006 14.8 5.98006C14.74 5.97006 14.68 5.95006 14.62 5.92006C14.56 5.90006 14.5 5.87006 14.44 5.83006C14.39 5.79006 14.34 5.75006 14.29 5.71006C14.25 5.66006 14.2 5.61006 14.17 5.56006C14.13 5.50006 14.1 5.44006 14.08 5.38006C14.05 5.32006 14.03 5.26006 14.02 5.20006C14.01 5.13006 14 5.06006 14 5.00006C14 4.87006 14.02 4.74006 14.08 4.62006C14.13 4.50006 14.2 4.39006 14.29 4.29006C14.34 4.25006 14.39 4.21006 14.44 4.17006C14.5 4.13006 14.56 4.10006 14.62 4.08006C14.68 4.05006 14.74 4.03006 14.8 4.02006C14.93 3.99006 15.06 3.99006 15.2 4.02006C15.26 4.03006 15.32 4.05006 15.38 4.08006C15.44 4.10006 15.5 4.13006 15.56 4.17006C15.61 4.21006 15.66 4.25006 15.71 4.29006C15.8 4.39006 15.87 4.50006 15.92 4.62006C15.97 4.74006 16 4.87006 16 5.00006C16 5.06006 15.99 5.13006 15.98 5.20006C15.97 5.26006 15.95 5.32006 15.92 5.38006C15.9 5.44006 15.87 5.50006 15.83 5.56006C15.79 5.61006 15.75 5.66006 15.71 5.71006C15.66 5.75006 15.61 5.79006 15.56 5.83006C15.5 5.87006 15.44 5.90006 15.38 5.92006C15.32 5.95006 15.26 5.97006 15.2 5.98006C15.13 5.99006 15.06 6.00006 15 6.00006Z" fill="current"/>
</svg>
