<svg width="40" height="34" viewBox="0 0 40 34" fill="none" xmlns="http://www.w3.org/2000/svg">
<path d="M15.7497 29.6853C15.8996 29.846 16.1614 29.6823 16.0826 29.4771L9.98479 13.5932C9.95512 13.5159 9.88088 13.4649 9.79808 13.4649H1.07221C0.897342 13.4649 0.806685 13.6735 0.925998 13.8014L15.7497 29.6853ZM20.0425 33.1884C20.1083 33.3584 20.3485 33.359 20.4152 33.1894L28.0609 13.7379C28.1125 13.6068 28.0158 13.4648 27.8749 13.4648L12.7043 13.4568C12.5638 13.4567 12.467 13.5979 12.5177 13.7289L20.0425 33.1884ZM24.3137 29.4128C24.2329 29.6201 24.5002 29.7846 24.6489 29.6191L38.856 13.7985C38.9716 13.6698 38.8802 13.4649 38.7072 13.4649H30.6672C30.5848 13.4649 30.5108 13.5155 30.4809 13.5923L24.3137 29.4128ZM9.62462 11.1916C9.72039 11.1916 9.80276 11.1238 9.82105 11.0297L11.8527 0.581949C11.8768 0.458362 11.782 0.343576 11.6561 0.343773L6.73439 0.35146C6.66211 0.351573 6.59551 0.390681 6.56019 0.453752L0.717366 10.8892C0.642745 11.0225 0.739025 11.1868 0.891768 11.1869L9.62462 11.1916ZM14.1592 0.351643C14.0629 0.351643 13.9802 0.420336 13.9626 0.515058L12.0216 10.9468C11.9988 11.0698 12.0932 11.1834 12.2183 11.1833L28.076 11.1785C28.2019 11.1785 28.2964 11.0636 28.2722 10.9401L26.23 0.513201C26.2116 0.419348 26.1294 0.351643 26.0337 0.351643H14.1592ZM28.8087 0.334363C28.6827 0.333914 28.5877 0.448711 28.6117 0.572425L30.6327 10.9975C30.6509 11.0912 30.7327 11.159 30.8281 11.1594L39.1048 11.1967C39.2562 11.1974 39.3534 11.0363 39.2822 10.9027L33.7181 0.457188C33.6835 0.392191 33.616 0.351479 33.5423 0.351217L28.8087 0.334363Z" fill="current"/>
</svg>
