<svg width="24" height="24" viewBox="0 0 24 24" fill="none" xmlns="http://www.w3.org/2000/svg">
    <g id="discord (2) 1" clip-path="url(#clip0_3059_20882)">
        <g id="Group">
            <path id="Vector" d="M20.3171 4.37007C18.7871 3.66807 17.1471 3.15107 15.4321 2.85507C15.4011 2.84907 15.3701 2.86407 15.3531 2.89207C15.1421 3.26707 14.9081 3.75707 14.7451 4.14107C12.9001 3.86507 11.0651 3.86507 9.25809 4.14107C9.09509 3.74807 8.85209 3.26707 8.64109 2.89207C8.62409 2.86407 8.59309 2.85007 8.56209 2.85507C6.84809 3.15007 5.20809 3.66707 3.67709 4.37007C3.66409 4.37507 3.65209 4.38507 3.64509 4.39707C0.534087 9.04507 -0.318913 13.5791 0.0990873 18.0571C0.101087 18.0791 0.113087 18.1001 0.130087 18.1131C2.18309 19.6211 4.17109 20.5361 6.12309 21.1421C6.15409 21.1521 6.18709 21.1401 6.20709 21.1141C6.66909 20.4841 7.08009 19.8191 7.43309 19.1201C7.45409 19.0791 7.43409 19.0301 7.39109 19.0141C6.73809 18.7661 6.11709 18.4641 5.51909 18.1221C5.47209 18.0941 5.46809 18.0271 5.51109 17.9941C5.63709 17.9001 5.76309 17.8021 5.88309 17.7031C5.90509 17.6851 5.93509 17.6811 5.96109 17.6931C9.88909 19.4861 14.1411 19.4861 18.0221 17.6931C18.0481 17.6811 18.0781 17.6841 18.1011 17.7031C18.2211 17.8021 18.3471 17.9011 18.4741 17.9951C18.5181 18.0271 18.5151 18.0951 18.4671 18.1231C17.8691 18.4721 17.2481 18.7681 16.5941 19.0141C16.5511 19.0301 16.5331 19.0801 16.5531 19.1211C16.9131 19.8191 17.3251 20.4841 17.7781 21.1141C17.7971 21.1411 17.8311 21.1521 17.8621 21.1431C19.8231 20.5361 21.8121 19.6211 23.8641 18.1141C23.8821 18.1011 23.8931 18.0811 23.8951 18.0591C24.3951 12.8821 23.0571 8.38507 20.3471 4.39907C20.3421 4.38507 20.3301 4.37507 20.3171 4.37007ZM8.02009 15.3311C6.83709 15.3311 5.86309 14.2451 5.86309 12.9121C5.86309 11.5791 6.81809 10.4931 8.02009 10.4931C9.23109 10.4931 10.1961 11.5881 10.1771 12.9121C10.1771 14.2461 9.22109 15.3311 8.02009 15.3311ZM15.9951 15.3311C14.8131 15.3311 13.8381 14.2451 13.8381 12.9121C13.8381 11.5791 14.7931 10.4931 15.9951 10.4931C17.2061 10.4931 18.1711 11.5881 18.1521 12.9121C18.1521 14.2461 17.2061 15.3311 15.9951 15.3311Z" fill="current"/>
        </g>
    </g>
    <defs>
        <clipPath id="clip0_3059_20882">
            <rect width="24" height="24" fill="current"/>
        </clipPath>
    </defs>
</svg>
