<svg width="24" height="24" viewBox="0 0 24 24" fill="none" xmlns="http://www.w3.org/2000/svg">
<path d="M8.50004 13.1666C9.14437 13.1666 9.66671 12.6443 9.66671 11.9999C9.66671 11.3556 9.14437 10.8333 8.50004 10.8333C7.85571 10.8333 7.33337 11.3556 7.33337 11.9999C7.33337 12.6443 7.85571 13.1666 8.50004 13.1666Z" stroke="current" stroke-width="2" stroke-linecap="round" stroke-linejoin="round"/>
<path d="M15.5 13.1666C16.1444 13.1666 16.6667 12.6443 16.6667 11.9999C16.6667 11.3556 16.1444 10.8333 15.5 10.8333C14.8557 10.8333 14.3334 11.3556 14.3334 11.9999C14.3334 12.6443 14.8557 13.1666 15.5 13.1666Z" stroke="current" stroke-width="2" stroke-linecap="round" stroke-linejoin="round"/>
<path d="M6.75 6.75C10.8333 5.58333 13.1667 5.58333 17.25 6.75" stroke="current" stroke-width="2" stroke-linecap="round" stroke-linejoin="round"/>
<path d="M6.16663 17.25C10.25 18.4167 13.75 18.4167 17.8333 17.25" stroke="current" stroke-width="2" stroke-linecap="round" stroke-linejoin="round"/>
<path d="M16.0834 17.8334C16.0834 19.0001 17.8334 21.3334 18.4167 21.3334C20.1667 21.3334 21.7219 19.3886 22.5 17.8334C23.2782 15.8886 23.0834 11.0282 20.75 4.41675C19.0502 3.23258 17.25 2.85341 15.5 2.66675L14.3334 5.58341" stroke="current" stroke-width="2" stroke-linecap="round" stroke-linejoin="round"/>
<path d="M7.91667 17.8334C7.91667 19.0001 6.33467 21.3334 5.77934 21.3334C4.11217 21.3334 2.63167 19.3886 1.89084 17.8334C1.15001 15.8886 1.33551 11.0282 3.55684 4.41675C5.17617 3.23258 6.80251 2.85341 8.50001 2.66675L9.66667 5.58341" stroke="current" stroke-width="2" stroke-linecap="round" stroke-linejoin="round"/>
</svg>
