<svg xmlns="http://www.w3.org/2000/svg" width="89" height="13" viewBox="0 0 89 13" fill="none">
  <path id="downloadOnSvg" d="M0.169354 11.9017C0.0604831 11.9017 0 11.8412 0 11.7324V0.216231C0 0.10736 0.0604831 0.046875 0.169354 0.046875H4.27016C5.44355 0.046875 6.38709 0.361392 7.07661 0.978327C7.77822 1.58317 8.12903 2.40575 8.12903 3.43397V8.51462C8.12903 9.54284 7.77822 10.3654 7.07661 10.9824C6.375 11.5872 5.44355 11.9017 4.27016 11.9017H0.169354ZM1.62096 10.4259C1.62096 10.4259 1.64516 10.4985 1.69355 10.4985H4.33065C4.98387 10.4985 5.50403 10.3049 5.89113 9.90575C6.29032 9.49446 6.48387 8.9622 6.49597 8.28478V3.67591C6.49597 2.99849 6.30241 2.46623 5.90322 2.06704C5.51612 1.65575 4.99597 1.4622 4.33065 1.4622H1.69355C1.69355 1.4622 1.62096 1.48639 1.62096 1.53478V10.438V10.4259ZM13.4395 12.0348C12.6048 12.0348 11.879 11.8291 11.25 11.4057C10.6331 10.9824 10.1976 10.3896 9.94355 9.62752C9.7379 9.02268 9.64113 8.33317 9.64113 7.55897C9.64113 6.78478 9.7379 6.08317 9.93145 5.52671C10.1855 4.77671 10.6089 4.19607 11.2379 3.78478C11.8548 3.36139 12.5927 3.14365 13.4516 3.14365C14.2621 3.14365 14.9758 3.36139 15.5685 3.78478C16.1734 4.20816 16.6089 4.77671 16.875 5.51462C17.0806 6.09526 17.1774 6.77268 17.1774 7.54687C17.1774 8.32107 17.0806 9.03478 16.875 9.62752C16.621 10.3896 16.1976 10.9824 15.5927 11.4057C14.9879 11.8291 14.2621 12.0348 13.4395 12.0348ZM13.4395 10.6316C13.8871 10.6316 14.2863 10.5106 14.625 10.2566C14.9637 10.0025 15.2056 9.63962 15.3508 9.16784C15.4718 8.74446 15.5323 8.2122 15.5323 7.57107C15.5323 6.92994 15.4718 6.40978 15.3629 5.99849C15.2177 5.53881 14.9758 5.17591 14.6371 4.93397C14.2984 4.67994 13.8871 4.54688 13.4032 4.54688C12.9194 4.54688 12.5443 4.67994 12.2056 4.93397C11.8669 5.188 11.625 5.53881 11.4798 5.99849C11.3589 6.39768 11.2984 6.91784 11.2984 7.57107C11.2984 8.22429 11.3589 8.75655 11.4798 9.16784C11.6129 9.62752 11.8548 9.99042 12.1935 10.2566C12.5444 10.5106 12.9556 10.6316 13.4516 10.6316H13.4395ZM20.4919 11.9017C20.4073 11.9017 20.3347 11.8533 20.3105 11.7687L17.8669 3.47026V3.42188C17.8548 3.3372 17.9032 3.28881 18.0242 3.28881H19.3427C19.4395 3.28881 19.5121 3.3372 19.5242 3.44607L21.1331 9.59123C21.1331 9.59123 21.1573 9.62752 21.1694 9.62752C21.1935 9.62752 21.2056 9.62752 21.2177 9.59123L22.8629 3.44607C22.8871 3.3493 22.9476 3.28881 23.0444 3.28881H24.2177C24.3145 3.28881 24.3871 3.3372 24.3992 3.44607L26.0806 9.57913C26.0806 9.57913 26.1048 9.61542 26.1169 9.61542C26.1411 9.61542 26.1532 9.61542 26.1653 9.57913L27.8468 3.44607C27.871 3.3493 27.9314 3.28881 28.0282 3.28881H29.3347C29.3347 3.28881 29.4314 3.3251 29.4556 3.36139C29.4919 3.39768 29.504 3.44607 29.4919 3.49446L27.0363 11.7807C27 11.8654 26.9395 11.9138 26.8548 11.9138H25.5363C25.4516 11.9138 25.379 11.8654 25.3548 11.7807L23.6976 6.05897C23.6976 6.05897 23.6734 6.02268 23.6492 6.02268C23.6492 6.02268 23.625 6.02268 23.6129 6.05897L22.0403 11.7687C22.0161 11.8654 21.9556 11.9259 21.8589 11.9259H20.5161L20.4919 11.9017ZM34.6693 3.16784C35.6008 3.16784 36.3266 3.43397 36.871 3.97833C37.4153 4.51058 37.6814 5.23639 37.6814 6.14365V11.7324C37.6814 11.8412 37.621 11.9017 37.5121 11.9017H36.2298C36.121 11.9017 36.0605 11.8412 36.0605 11.7324V6.47026C36.0605 5.90171 35.9032 5.45413 35.5645 5.10333C35.2379 4.75252 34.8024 4.58316 34.2581 4.58316C33.7137 4.58316 33.2903 4.75252 32.9516 5.10333C32.6129 5.45413 32.4435 5.90171 32.4435 6.45817V11.7445C32.4435 11.8533 32.3831 11.9138 32.2742 11.9138H30.9919C30.8831 11.9138 30.8226 11.8533 30.8226 11.7445V3.45817C30.8226 3.3493 30.8831 3.28881 30.9919 3.28881H32.2742C32.3831 3.28881 32.4435 3.3493 32.4435 3.45817V4.06301C32.4435 4.06301 32.4435 4.09929 32.4556 4.11139C32.4798 4.11139 32.4919 4.11139 32.504 4.09929C32.9879 3.48236 33.7016 3.16784 34.6573 3.16784H34.6693ZM39.8347 11.9017C39.7258 11.9017 39.6653 11.8412 39.6653 11.7324V0.216231C39.6653 0.10736 39.7258 0.046875 39.8347 0.046875H41.1169C41.2258 0.046875 41.2863 0.10736 41.2863 0.216231V11.7324C41.2863 11.8412 41.2258 11.9017 41.1169 11.9017H39.8347ZM46.8387 12.0348C46.004 12.0348 45.2782 11.8291 44.6492 11.4057C44.0322 10.9824 43.5968 10.3896 43.3427 9.62752C43.1371 9.02268 43.0403 8.33317 43.0403 7.55897C43.0403 6.78478 43.1371 6.08317 43.3306 5.52671C43.5847 4.77671 44.0202 4.19607 44.6371 3.78478C45.254 3.36139 45.9919 3.14365 46.8508 3.14365C47.6613 3.14365 48.3629 3.36139 48.9677 3.78478C49.5726 4.20816 50.0081 4.77671 50.2742 5.51462C50.4798 6.09526 50.5766 6.77268 50.5766 7.54687C50.5766 8.32107 50.4798 9.03478 50.2742 9.62752C50.0322 10.3896 49.5968 10.9824 48.9919 11.4057C48.3871 11.8291 47.6613 12.0348 46.8387 12.0348ZM46.8387 10.6316C47.2863 10.6316 47.6855 10.5106 48.0242 10.2566C48.3629 10.0025 48.6048 9.63962 48.75 9.16784C48.871 8.74446 48.9314 8.2122 48.9314 7.57107C48.9314 6.92994 48.871 6.40978 48.7621 5.99849C48.6169 5.53881 48.375 5.17591 48.0363 4.93397C47.6976 4.67994 47.2863 4.54688 46.8024 4.54688C46.3185 4.54688 45.9435 4.67994 45.6048 4.93397C45.2661 5.188 45.0242 5.53881 44.879 5.99849C44.7581 6.39768 44.6976 6.91784 44.6976 7.57107C44.6976 8.22429 44.7581 8.75655 44.879 9.16784C45.0121 9.62752 45.254 9.99042 45.5927 10.2566C45.9435 10.5106 46.3669 10.6316 46.8508 10.6316H46.8387ZM55.5242 3.14365C56.2137 3.14365 56.8064 3.26462 57.3145 3.51865C57.8347 3.76059 58.2339 4.09929 58.5 4.53478C58.7782 4.95817 58.9234 5.45413 58.9234 6.01058V11.7324C58.9234 11.8412 58.8629 11.9017 58.754 11.9017H57.4718C57.3629 11.9017 57.3024 11.8412 57.3024 11.7324V11.1275C57.3024 11.1275 57.2782 11.0549 57.2177 11.0912C56.9274 11.3936 56.5645 11.6356 56.129 11.8049C55.7056 11.9622 55.246 12.0469 54.7258 12.0469C53.8911 12.0469 53.2016 11.8412 52.6451 11.4178C52.1008 10.9945 51.8347 10.3412 51.8347 9.48236C51.8347 8.62349 52.1371 7.90978 52.754 7.41381C53.371 6.90575 54.2419 6.65171 55.3427 6.65171H57.2419C57.2419 6.65171 57.3145 6.62752 57.3145 6.57913V6.11946C57.3145 5.62349 57.1693 5.23639 56.879 4.97026C56.6008 4.69204 56.1653 4.54688 55.5726 4.54688C55.1008 4.54688 54.7137 4.64365 54.3992 4.8372C54.1089 5.01865 53.9274 5.26059 53.8548 5.5872C53.8185 5.69607 53.7581 5.75655 53.6492 5.74446L52.2822 5.563C52.1734 5.53881 52.1129 5.49042 52.125 5.42994C52.2097 4.76462 52.5726 4.22026 53.1895 3.80897C53.8064 3.38558 54.5927 3.16784 55.5242 3.16784V3.14365ZM55.0887 10.6678C55.6814 10.6678 56.2016 10.5106 56.6492 10.1961C57.0847 9.88155 57.3145 9.48236 57.3145 8.99849V7.99446C57.3145 7.99446 57.2903 7.92187 57.2419 7.92187H55.6452C54.9798 7.92187 54.4476 8.05494 54.0484 8.30897C53.6492 8.563 53.4556 8.92591 53.4556 9.39768C53.4556 9.82107 53.6008 10.1356 53.8911 10.3412C54.1935 10.559 54.5927 10.6678 55.0766 10.6678H55.0887ZM66.1451 0.216231C66.1451 0.10736 66.2056 0.046875 66.3145 0.046875H67.5968C67.7056 0.046875 67.7661 0.10736 67.7661 0.216231V11.7324C67.7661 11.8412 67.7056 11.9017 67.5968 11.9017H66.3145C66.2056 11.9017 66.1451 11.8412 66.1451 11.7324V11.1759C66.1451 11.1759 66.1451 11.1396 66.1089 11.1275C66.1089 11.1275 66.0847 11.1275 66.0605 11.1396C65.8064 11.4178 65.5161 11.6477 65.1774 11.8049C64.8387 11.9622 64.4758 12.0469 64.0766 12.0469C63.2661 12.0469 62.5887 11.8533 62.0443 11.4541C61.5121 11.0428 61.125 10.4743 60.871 9.74849C60.6532 9.15574 60.5443 8.42994 60.5443 7.58317C60.5443 6.79688 60.6411 6.10736 60.8105 5.53881C61.0524 4.78881 61.4395 4.20817 61.9839 3.79687C62.5282 3.37349 63.2177 3.16784 64.0645 3.16784C64.4516 3.16784 64.8145 3.25252 65.1532 3.40978C65.504 3.55494 65.8064 3.77268 66.0484 4.05091C66.0726 4.0751 66.0847 4.0751 66.0968 4.06301C66.121 4.06301 66.1331 4.03881 66.1331 4.01462V0.240425L66.1451 0.216231ZM65.7218 9.7122C65.9758 9.24042 66.1089 8.52671 66.1089 7.58317C66.1089 6.63962 65.9637 5.91381 65.6855 5.41784C65.3589 4.8372 64.875 4.55897 64.2459 4.55897C63.5685 4.55897 63.0726 4.8251 62.7339 5.36946C62.3709 5.938 62.1895 6.67591 62.1895 7.60736C62.1895 8.47832 62.3347 9.17994 62.6129 9.7122C62.9395 10.3291 63.4718 10.6436 64.2218 10.6436C64.875 10.6436 65.371 10.3412 65.7097 9.72429L65.7218 9.7122ZM76.3911 12.0348C75.5564 12.0348 74.8306 11.8291 74.2016 11.4057C73.5847 10.9824 73.1492 10.3896 72.8951 9.62752C72.6895 9.02268 72.5927 8.33317 72.5927 7.55897C72.5927 6.78478 72.6895 6.08317 72.883 5.52671C73.1371 4.77671 73.5605 4.19607 74.1895 3.78478C74.8064 3.36139 75.5443 3.14365 76.4032 3.14365C77.2137 3.14365 77.9274 3.36139 78.5201 3.78478C79.125 4.20816 79.5605 4.77671 79.8266 5.51462C80.0322 6.09526 80.129 6.77268 80.129 7.54687C80.129 8.32107 80.0322 9.03478 79.8266 9.62752C79.5726 10.3896 79.1492 10.9824 78.5443 11.4057C77.9395 11.8291 77.2137 12.0348 76.3911 12.0348ZM76.3911 10.6316C76.8387 10.6316 77.2379 10.5106 77.5766 10.2566C77.9153 10.0025 78.1572 9.63962 78.3024 9.16784C78.4234 8.74446 78.4839 8.2122 78.4839 7.57107C78.4839 6.92994 78.4234 6.40978 78.3145 5.99849C78.1693 5.53881 77.9274 5.17591 77.5887 4.93397C77.25 4.67994 76.8387 4.54688 76.3548 4.54688C75.871 4.54688 75.4959 4.67994 75.1572 4.93397C74.8185 5.188 74.5766 5.53881 74.4314 5.99849C74.3105 6.39768 74.25 6.91784 74.25 7.57107C74.25 8.22429 74.3105 8.75655 74.4314 9.16784C74.5645 9.62752 74.8064 9.99042 75.1451 10.2566C75.496 10.5106 75.9072 10.6316 76.4032 10.6316H76.3911ZM85.7661 3.16784C86.6855 3.16784 87.4234 3.43397 87.9677 3.97833C88.5121 4.51058 88.7782 5.23639 88.7782 6.14365V11.7324C88.7782 11.8412 88.7177 11.9017 88.6088 11.9017H87.3266C87.2177 11.9017 87.1572 11.8412 87.1572 11.7324V6.47026C87.1572 5.90171 87 5.45413 86.6613 5.10333C86.3347 4.75252 85.8992 4.58316 85.3548 4.58316C84.8105 4.58316 84.3871 4.75252 84.0484 5.10333C83.7097 5.45413 83.5403 5.90171 83.5403 6.45817V11.7445C83.5403 11.8533 83.4798 11.9138 83.371 11.9138H82.0887C81.9798 11.9138 81.9193 11.8533 81.9193 11.7445V3.45817C81.9193 3.3493 81.9798 3.28881 82.0887 3.28881H83.371C83.4798 3.28881 83.5403 3.3493 83.5403 3.45817V4.06301C83.5403 4.06301 83.5403 4.09929 83.5524 4.11139C83.5766 4.11139 83.5887 4.11139 83.6008 4.09929C84.0847 3.48236 84.7984 3.16784 85.754 3.16784H85.7661Z" fill="currentColor"/>
</svg>