<svg width="24" height="24" viewBox="0 0 24 24" fill="none" xmlns="http://www.w3.org/2000/svg">
<g clip-path="url(#clip0_1_626)">
<path d="M9.87823 18.122C10.1568 18.4008 10.4876 18.6219 10.8517 18.7728C11.2158 18.9237 11.6061 19.0014 12.0002 19.0014C12.3944 19.0014 12.7846 18.9237 13.1487 18.7728C13.5128 18.6219 13.8436 18.4008 14.1222 18.122L17.3332 14.911C17.5054 14.7206 17.5977 14.4713 17.5911 14.2147C17.5846 13.958 17.4795 13.7138 17.2978 13.5325C17.1161 13.3512 16.8716 13.2467 16.615 13.2406C16.3584 13.2346 16.1093 13.3274 15.9192 13.5L12.9932 16.427L13.0002 1C13.0002 0.734784 12.8949 0.48043 12.7073 0.292893C12.5198 0.105357 12.2654 0 12.0002 0V0C11.735 0 11.4807 0.105357 11.2931 0.292893C11.1056 0.48043 11.0002 0.734784 11.0002 1L10.9912 16.408L8.08123 13.5C7.89359 13.3125 7.63914 13.2072 7.37387 13.2073C7.1086 13.2074 6.85423 13.3129 6.66673 13.5005C6.47922 13.6881 6.37393 13.9426 6.37402 14.2079C6.37412 14.4731 6.47959 14.7275 6.66723 14.915L9.87823 18.122Z" fill="#8D93A6"/>
<path d="M23 15.9998C22.7348 15.9998 22.4804 16.1051 22.2929 16.2926C22.1054 16.4802 22 16.7345 22 16.9998V20.9997C22 21.265 21.8946 21.5193 21.7071 21.7069C21.5196 21.8944 21.2652 21.9997 21 21.9997H3C2.73478 21.9997 2.48043 21.8944 2.29289 21.7069C2.10536 21.5193 2 21.265 2 20.9997V16.9998C2 16.7345 1.89464 16.4802 1.70711 16.2926C1.51957 16.1051 1.26522 15.9998 1 15.9998C0.734784 15.9998 0.48043 16.1051 0.292893 16.2926C0.105357 16.4802 0 16.7345 0 16.9998L0 20.9997C0 21.7954 0.31607 22.5585 0.87868 23.1211C1.44129 23.6837 2.20435 23.9997 3 23.9997H21C21.7956 23.9997 22.5587 23.6837 23.1213 23.1211C23.6839 22.5585 24 21.7954 24 20.9997V16.9998C24 16.7345 23.8946 16.4802 23.7071 16.2926C23.5196 16.1051 23.2652 15.9998 23 15.9998Z" fill="#8D93A6"/>
</g>
<defs>
<clipPath id="clip0_1_626">
<rect width="24" height="24" fill="white"/>
</clipPath>
</defs>
</svg>
