<svg width="10" height="5" viewBox="0 0 10 5" fill="none" xmlns="http://www.w3.org/2000/svg">
<path d="M8.91409 0.789126C8.85986 0.734451 8.79534 0.691054 8.72426 0.661439C8.65317 0.631824 8.57693 0.616577 8.49992 0.616577C8.42291 0.616577 8.34667 0.631824 8.27558 0.661439C8.2045 0.691054 8.13998 0.734451 8.08575 0.789126L5.41409 3.46079C5.35986 3.51546 5.29534 3.55886 5.22426 3.58847C5.15317 3.61809 5.07693 3.63334 4.99992 3.63334C4.92291 3.63334 4.84667 3.61809 4.77558 3.58847C4.7045 3.55886 4.63998 3.51546 4.58575 3.46079L1.91408 0.789126C1.85986 0.734451 1.79534 0.691054 1.72425 0.661439C1.65317 0.631824 1.57693 0.616577 1.49992 0.616577C1.42291 0.616577 1.34667 0.631824 1.27558 0.661439C1.2045 0.691054 1.13998 0.734451 1.08575 0.789126C0.977105 0.89842 0.916122 1.04627 0.916122 1.20037C0.916122 1.35448 0.977105 1.50233 1.08575 1.61162L3.76325 4.28912C4.09138 4.61684 4.53617 4.80091 4.99992 4.80091C5.46367 4.80091 5.90846 4.61684 6.23659 4.28912L8.91409 1.61162C9.02273 1.50233 9.08372 1.35448 9.08372 1.20037C9.08372 1.04627 9.02273 0.89842 8.91409 0.789126V0.789126Z" fill="currentColor"/>
</svg>
