<svg width="24" height="24" viewBox="0 0 24 24" fill="none" xmlns="http://www.w3.org/2000/svg">
<g>
<path d="M12 4C13.1046 4 14 3.10457 14 2C14 0.89543 13.1046 0 12 0C10.8954 0 10 0.89543 10 2C10 3.10457 10.8954 4 12 4Z" fill="current"/>
<path d="M12 14.0002C13.1046 14.0002 14 13.1048 14 12.0002C14 10.8957 13.1046 10.0002 12 10.0002C10.8954 10.0002 10 10.8957 10 12.0002C10 13.1048 10.8954 14.0002 12 14.0002Z" fill="current"/>
<path d="M12 23.9998C13.1046 23.9998 14 23.1043 14 21.9998C14 20.8952 13.1046 19.9998 12 19.9998C10.8954 19.9998 10 20.8952 10 21.9998C10 23.1043 10.8954 23.9998 12 23.9998Z" fill="current"/>
</g>
<defs>
</defs>
</svg>
