<svg width="24" height="24" viewBox="0 0 24 24" fill="none" xmlns="http://www.w3.org/2000/svg">
    <g id="Icon" clip-path="url(#clip0_4817_362)">
        <path id="Vector" d="M3.53769 2.34375e-05C2.16569 2.34375e-05 1.66069 0.506023 1.66069 1.87902V18.44C1.66001 18.5846 1.66669 18.7291 1.68069 18.873C1.71169 19.173 1.71769 19.463 1.99669 19.793C2.02369 19.826 2.30769 20.038 2.30769 20.038C2.46069 20.113 2.56569 20.168 2.73769 20.238L11.0727 23.729C11.5057 23.928 11.6867 24.005 12.0007 23.999H12.0027C12.3167 24.005 12.4977 23.928 12.9307 23.729L21.2657 20.237C21.4377 20.167 21.5427 20.113 21.6957 20.037C21.6957 20.037 21.9797 19.826 22.0067 19.794C22.2867 19.464 22.2917 19.173 22.3227 18.874C22.3367 18.7298 22.3434 18.5849 22.3427 18.44V1.87902C22.3427 0.506023 21.8367 -0.000976562 20.4647 -0.000976562L3.53769 2.34375e-05ZM16.9037 3.11002H17.5837C18.7217 3.11002 19.2717 3.66302 19.2717 4.80602V6.68602H17.8977V4.88602C17.8977 4.51702 17.7277 4.34602 17.3747 4.34602H17.1397C16.7727 4.34602 16.6027 4.51602 16.6027 4.88502V10.695C16.6027 11.064 16.7727 11.235 17.1397 11.235H17.4017C17.7547 11.235 17.9247 11.064 17.9247 10.695V8.61902H19.2977V10.762C19.2977 11.906 18.7357 12.472 17.5977 12.472H16.9037C15.7657 12.472 15.2037 11.906 15.2037 10.762V4.82002C15.2037 3.67602 15.7657 3.11102 16.9037 3.11102V3.11002ZM4.71769 3.19002H7.83169V4.46402H6.11769V7.06702H7.76569V8.34202H6.11769V11.116H7.85769V12.391H4.71769V3.19002ZM8.53369 3.19002H10.7317C11.8697 3.19002 12.4317 3.75402 12.4317 4.89802V7.34302C12.4317 8.48702 11.8697 9.05302 10.7317 9.05302H9.93269V12.391H8.53269L8.53369 3.19002ZM13.0637 3.19002H14.4637V12.391H13.0637V3.19002ZM9.93369 4.42502V7.81702H10.5087C10.8627 7.81702 11.0317 7.64602 11.0317 7.27702V4.96502C11.0317 4.59702 10.8617 4.42502 10.5087 4.42502H9.93369ZM6.19369 14.572C6.39552 14.5728 6.59562 14.6094 6.78469 14.68C6.96341 14.752 7.12898 14.853 7.27469 14.979L6.82269 15.525C6.73013 15.4453 6.62636 15.3796 6.51469 15.33C6.39961 15.2828 6.27607 15.2596 6.15169 15.262C6.05509 15.2612 5.95949 15.2817 5.87169 15.322C5.78695 15.361 5.71081 15.4164 5.64769 15.485C5.58286 15.5561 5.53167 15.6384 5.49669 15.728C5.45905 15.8232 5.44004 15.9247 5.44069 16.027V16.035C5.43993 16.1409 5.45892 16.2461 5.49669 16.345C5.53129 16.4368 5.58477 16.5203 5.65369 16.59C5.72177 16.6584 5.80263 16.7128 5.89169 16.75C5.98778 16.7895 6.09082 16.8092 6.19469 16.808C6.35125 16.8143 6.50614 16.774 6.63969 16.692V16.353H6.09169V15.788H7.37069V17.043C7.2125 17.1712 7.03584 17.2747 6.84669 17.35C6.62924 17.4352 6.3972 17.477 6.16369 17.473C5.9581 17.4754 5.75389 17.4391 5.56169 17.366C5.38436 17.2981 5.222 17.1962 5.08369 17.066C4.94777 16.9376 4.83956 16.7828 4.76569 16.611C4.68759 16.4277 4.64843 16.2302 4.65069 16.031V16.023C4.64884 15.8273 4.6873 15.6333 4.76369 15.453C4.83703 15.281 4.94298 15.1248 5.07569 14.993C5.21133 14.8592 5.37254 14.7541 5.54969 14.684C5.73995 14.6086 5.94305 14.5709 6.14769 14.573C6.16269 14.5728 6.17769 14.5728 6.19269 14.573L6.19369 14.572ZM18.1567 14.58C18.3643 14.5795 18.5708 14.6112 18.7687 14.674C18.953 14.735 19.1248 14.8289 19.2757 14.951L18.8897 15.497C18.77 15.4106 18.6387 15.3416 18.4997 15.292C18.3752 15.2471 18.244 15.2234 18.1117 15.222C18.0386 15.217 17.9658 15.2352 17.9037 15.274C17.8825 15.2878 17.865 15.3066 17.8528 15.3288C17.8406 15.3509 17.834 15.3757 17.8337 15.401V15.409C17.833 15.4385 17.8407 15.4676 17.8557 15.493C17.8749 15.5212 17.9011 15.5439 17.9317 15.559C17.9787 15.5837 18.0279 15.6038 18.0787 15.619C18.1407 15.639 18.2187 15.659 18.3147 15.68C18.4606 15.7112 18.6042 15.7519 18.7447 15.802C18.8616 15.8427 18.9721 15.8999 19.0727 15.972C19.1597 16.0345 19.2306 16.1168 19.2797 16.212C19.3296 16.3172 19.3539 16.4327 19.3507 16.549V16.557C19.3532 16.6889 19.3255 16.8195 19.2697 16.939C19.2158 17.05 19.1375 17.1475 19.0407 17.224C18.9358 17.3063 18.8159 17.3674 18.6877 17.404C18.5381 17.4465 18.3832 17.4671 18.2277 17.465C17.9862 17.4663 17.7462 17.4271 17.5177 17.349C17.2988 17.2748 17.0971 17.1571 16.9247 17.003L17.3547 16.489C17.6317 16.712 17.9327 16.824 18.2547 16.824C18.3364 16.8288 18.4179 16.8115 18.4907 16.774C18.5161 16.7602 18.5372 16.7396 18.5517 16.7146C18.5662 16.6895 18.5734 16.6609 18.5727 16.632V16.624C18.5731 16.597 18.5662 16.5704 18.5527 16.547C18.5341 16.5194 18.509 16.4967 18.4797 16.481C18.4343 16.4555 18.3864 16.4347 18.3367 16.419C18.2601 16.3945 18.1823 16.3739 18.1037 16.357C17.9645 16.3252 17.8267 16.2875 17.6907 16.244C17.5731 16.2072 17.4616 16.1533 17.3597 16.084C17.2679 16.0212 17.1919 15.9381 17.1377 15.841C17.08 15.73 17.0517 15.6061 17.0557 15.481V15.473C17.0544 15.3494 17.0796 15.227 17.1297 15.114C17.1788 15.0048 17.2519 14.908 17.3437 14.831C17.444 14.748 17.5595 14.6851 17.6837 14.646C17.8285 14.6003 17.9798 14.578 18.1317 14.58C18.14 14.58 18.1484 14.58 18.1567 14.58ZM8.79869 14.605H9.54069L10.7237 17.415H9.89869L9.69569 16.916H8.62369L8.42569 17.414H7.61569L8.79869 14.605ZM10.9957 14.625H11.8097L12.4727 15.705L13.1357 14.625H13.9497V17.415H13.1837V15.813L12.4727 16.904H12.4567L11.7497 15.821V17.414H10.9957V14.625ZM14.4647 14.625H16.6997V15.283H15.2267V15.705H16.5607V16.315H15.2267V16.757H16.7197V17.415H14.4647V14.625ZM9.16469 15.522L8.84969 16.315H9.47369L9.16469 15.522ZM8.01969 20.712H16.0337L11.9437 22.06L8.01969 20.712Z" fill="white"/>
    </g>
    <defs>
        <clipPath id="clip0_4817_362">
            <rect width="24" height="24" fill="white"/>
        </clipPath>
    </defs>
</svg>
