<svg width="36" height="40" viewBox="0 0 36 40" fill="currentColor" xmlns="http://www.w3.org/2000/svg">
<path d="M3.89599 0.00166667C1.60932 0.00166667 0.767657 0.845 0.767657 3.13333V30.735C0.76652 30.976 0.777646 31.2168 0.80099 31.4567C0.852657 31.9567 0.862657 32.44 1.32766 32.99C1.37266 33.045 1.84599 33.3983 1.84599 33.3983C2.10099 33.5233 2.27599 33.615 2.56266 33.7317L16.4543 39.55C17.176 39.8817 17.4777 40.01 18.001 40H18.0043C18.5277 40.01 18.8293 39.8817 19.551 39.55L33.4427 33.73C33.7293 33.6133 33.9043 33.5233 34.1593 33.3967C34.1593 33.3967 34.6327 33.045 34.6777 32.9917C35.1443 32.4417 35.1527 31.9567 35.2043 31.4583C35.2277 31.2179 35.2388 30.9765 35.2377 30.735V3.13333C35.2377 0.845 34.3943 0 32.1077 0L3.89599 0.00166667ZM26.1727 5.185H27.306C29.2027 5.185 30.1193 6.10667 30.1193 8.01167V11.145H27.8293V8.145C27.8293 7.53 27.546 7.245 26.9577 7.245H26.566C25.9543 7.245 25.671 7.52833 25.671 8.14333V17.8267C25.671 18.4417 25.9543 18.7267 26.566 18.7267H27.0027C27.591 18.7267 27.8743 18.4417 27.8743 17.8267V14.3667H30.1627V17.9383C30.1627 19.845 29.226 20.7883 27.3293 20.7883H26.1727C24.276 20.7883 23.3393 19.845 23.3393 17.9383V8.035C23.3393 6.12833 24.276 5.18667 26.1727 5.18667V5.185ZM5.86266 5.31833H11.0527V7.44167H8.19599V11.78H10.9427V13.905H8.19599V18.5283H11.096V20.6533H5.86266V5.31833ZM12.2227 5.31833H15.886C17.7827 5.31833 18.7193 6.25833 18.7193 8.165V12.24C18.7193 14.1467 17.7827 15.09 15.886 15.09H14.5543V20.6533H12.221L12.2227 5.31833ZM19.7727 5.31833H22.106V20.6533H19.7727V5.31833ZM14.556 7.37667V13.03H15.5143C16.1043 13.03 16.386 12.745 16.386 12.13V8.27667C16.386 7.66333 16.1027 7.37667 15.5143 7.37667H14.556ZM8.32266 24.2883C8.65905 24.2897 8.99254 24.3506 9.30766 24.4683C9.60552 24.5882 9.88148 24.7566 10.1243 24.9667L9.37099 25.8767C9.21672 25.7438 9.04376 25.6343 8.85766 25.5517C8.66586 25.4729 8.45995 25.4344 8.25266 25.4383C8.09165 25.437 7.93232 25.4711 7.78599 25.5383C7.64476 25.6032 7.51785 25.6956 7.41266 25.81C7.30461 25.9284 7.21929 26.0657 7.16099 26.215C7.09825 26.3736 7.06657 26.5428 7.06766 26.7133V26.7267C7.06638 26.9032 7.09803 27.0784 7.16099 27.2433C7.21865 27.3963 7.30779 27.5354 7.42266 27.6517C7.53611 27.7657 7.67089 27.8563 7.81932 27.9183C7.97946 27.9841 8.15121 28.017 8.32432 28.015C8.58525 28.0255 8.84341 27.9582 9.06599 27.8217V27.2567H8.15266V26.315H10.2843V28.4067C10.0207 28.6203 9.72623 28.7928 9.41099 28.9183C9.04856 29.0603 8.66184 29.13 8.27266 29.1233C7.93 29.1272 7.58965 29.0667 7.26932 28.945C6.97378 28.8317 6.70317 28.6619 6.47266 28.445C6.24613 28.231 6.06576 27.9729 5.94266 27.6867C5.81249 27.3812 5.74723 27.052 5.75099 26.72V26.7067C5.7479 26.3804 5.81201 26.0571 5.93932 25.7567C6.06156 25.47 6.23814 25.2096 6.45932 24.99C6.68538 24.767 6.95407 24.5919 7.24932 24.475C7.56643 24.3494 7.90492 24.2865 8.24599 24.29C8.27099 24.2897 8.29599 24.2897 8.32099 24.29L8.32266 24.2883ZM28.261 24.3017C28.607 24.3008 28.9511 24.3536 29.281 24.4583C29.5882 24.56 29.8745 24.7164 30.126 24.92L29.4827 25.83C29.2832 25.686 29.0644 25.5709 28.8327 25.4883C28.6252 25.4134 28.4066 25.374 28.186 25.3717C28.0642 25.3632 27.9428 25.3936 27.8393 25.4583C27.804 25.4813 27.7749 25.5127 27.7545 25.5496C27.7342 25.5865 27.7232 25.6279 27.7227 25.67V25.6833C27.7216 25.7325 27.7343 25.781 27.7593 25.8233C27.7914 25.8703 27.835 25.9082 27.886 25.9333C27.9643 25.9744 28.0463 26.0079 28.131 26.0333C28.2343 26.0667 28.3643 26.1 28.5243 26.135C28.7674 26.1869 29.0068 26.2549 29.241 26.3383C29.4358 26.4061 29.6199 26.5015 29.7877 26.6217C29.9326 26.7259 30.0509 26.8629 30.1327 27.0217C30.2158 27.197 30.2563 27.3894 30.251 27.5833V27.5967C30.2551 27.8164 30.2089 28.0342 30.116 28.2333C30.0261 28.4184 29.8957 28.5807 29.7343 28.7083C29.5594 28.8454 29.3596 28.9473 29.146 29.0083C28.8967 29.0792 28.6385 29.1134 28.3793 29.11C27.9768 29.1122 27.5769 29.0468 27.196 28.9167C26.8311 28.7929 26.4949 28.5968 26.2077 28.34L26.9243 27.4833C27.386 27.855 27.8877 28.0417 28.4243 28.0417C28.5605 28.0496 28.6964 28.0208 28.8177 27.9583C28.86 27.9353 28.8952 27.901 28.9193 27.8593C28.9435 27.8175 28.9556 27.7699 28.9543 27.7217V27.7083C28.955 27.6633 28.9434 27.619 28.921 27.58C28.89 27.534 28.8482 27.4962 28.7993 27.47C28.7237 27.4274 28.6438 27.3928 28.561 27.3667C28.4333 27.3259 28.3037 27.2914 28.1727 27.2633C27.9406 27.2103 27.711 27.1475 27.4843 27.075C27.2884 27.0136 27.1025 26.9237 26.9327 26.8083C26.7797 26.7037 26.6531 26.5651 26.5627 26.4033C26.4664 26.2183 26.4194 26.0117 26.426 25.8033V25.79C26.4238 25.584 26.4658 25.38 26.5493 25.1917C26.6311 25.0096 26.753 24.8483 26.906 24.72C27.0732 24.5815 27.2656 24.4768 27.4727 24.4117C27.7141 24.3354 27.9662 24.2982 28.2193 24.3017C28.2332 24.3016 28.2471 24.3016 28.261 24.3017ZM12.6643 24.3433H13.901L15.8727 29.0267H14.4977L14.1593 28.195H12.3727L12.0427 29.025H10.6927L12.6643 24.3433ZM16.326 24.3767H17.6827L18.7877 26.1767L19.8927 24.3767H21.2493V29.0267H19.9727V26.3567L18.7877 28.175H18.761L17.5827 26.37V29.025H16.326V24.3767ZM22.1077 24.3767H25.8327V25.4733H23.3777V26.1767H25.601V27.1933H23.3777V27.93H25.866V29.0267H22.1077V24.3767ZM13.2743 25.8717L12.7493 27.1933H13.7893L13.2743 25.8717ZM11.366 34.5217H24.7227L17.906 36.7683L11.366 34.5217Z" fill="currentColor" />
</svg>
