<svg width="24" height="24" viewBox="0 0 24 24" fill="none" xmlns="http://www.w3.org/2000/svg">
<g clip-path="url(#clip0_404_9513)">
<path d="M23.2715 9.41934C22.3688 7.94106 21.23 6.62059 19.9005 5.51034L22.7005 2.71034C22.8827 2.52173 22.9835 2.26913 22.9812 2.00694C22.9789 1.74474 22.8738 1.49393 22.6884 1.30852C22.503 1.12311 22.2521 1.01794 21.9899 1.01566C21.7277 1.01338 21.4751 1.11418 21.2865 1.29634L18.2415 4.34534C16.3539 3.22416 14.196 2.6398 12.0005 2.65534C5.80954 2.65534 2.28154 6.89334 0.72954 9.41934C0.250068 10.1948 -0.00390625 11.0886 -0.00390625 12.0003C-0.00390625 12.9121 0.250068 13.8058 0.72954 14.5813C1.6323 16.0596 2.77103 17.3801 4.10054 18.4903L1.30054 21.2903C1.20503 21.3826 1.12885 21.4929 1.07644 21.6149C1.02403 21.7369 0.996443 21.8682 0.995289 22.0009C0.994135 22.1337 1.01944 22.2654 1.06972 22.3883C1.12 22.5112 1.19425 22.6228 1.28814 22.7167C1.38204 22.8106 1.49369 22.8849 1.61659 22.9352C1.73948 22.9854 1.87116 23.0107 2.00394 23.0096C2.13672 23.0084 2.26794 22.9808 2.38994 22.9284C2.51195 22.876 2.62229 22.7998 2.71454 22.7043L5.76654 19.6523C7.65181 20.7733 9.80721 21.3587 12.0005 21.3453C18.1915 21.3453 21.7195 17.1073 23.2715 14.5813C23.751 13.8058 24.005 12.9121 24.005 12.0003C24.005 11.0886 23.751 10.1948 23.2715 9.41934ZM2.43354 13.5343C2.14867 13.0734 1.99779 12.5422 1.99779 12.0003C1.99779 11.4585 2.14867 10.9273 2.43354 10.4663C3.76754 8.30034 6.78254 4.65534 12.0005 4.65534C13.6608 4.64604 15.2978 5.04617 16.7665 5.82034L14.7535 7.83334C13.7935 7.19594 12.6424 6.91033 11.4958 7.02498C10.3491 7.13963 9.27741 7.64748 8.46254 8.46234C7.64768 9.2772 7.13983 10.3489 7.02519 11.4956C6.91054 12.6422 7.19614 13.7933 7.83354 14.7533L5.52354 17.0633C4.29864 16.0731 3.25338 14.8793 2.43354 13.5343ZM15.0005 12.0003C15.0005 12.796 14.6845 13.559 14.1219 14.1217C13.5593 14.6843 12.7962 15.0003 12.0005 15.0003C11.5551 14.9986 11.1157 14.896 10.7155 14.7003L14.7005 10.7153C14.8963 11.1155 14.9988 11.5548 15.0005 12.0003ZM9.00054 12.0003C9.00054 11.2047 9.31661 10.4416 9.87922 9.87902C10.4418 9.31641 11.2049 9.00034 12.0005 9.00034C12.446 9.00206 12.8853 9.10463 13.2855 9.30034L9.30054 13.2853C9.10483 12.8851 9.00226 12.4458 9.00054 12.0003ZM21.5675 13.5343C20.2335 15.7003 17.2185 19.3453 12.0005 19.3453C10.3403 19.3546 8.7033 18.9545 7.23454 18.1803L9.24754 16.1673C10.2076 16.8047 11.3586 17.0903 12.5053 16.9757C13.652 16.861 14.7237 16.3532 15.5385 15.5383C16.3534 14.7235 16.8612 13.6518 16.9759 12.5051C17.0905 11.3584 16.8049 10.2074 16.1675 9.24734L18.4775 6.93734C19.7024 7.92762 20.7477 9.12138 21.5675 10.4663C21.8524 10.9273 22.0033 11.4585 22.0033 12.0003C22.0033 12.5422 21.8524 13.0734 21.5675 13.5343Z" fill="#B0C1D5"/>
</g>
<defs>
<clipPath id="clip0_404_9513">
<rect width="24" height="24" fill="white"/>
</clipPath>
</defs>
</svg>
