<svg width="186" height="49" viewBox="0 0 186 49" fill="none" xmlns="http://www.w3.org/2000/svg">
<rect x="0.5" y="0.810547" width="185" height="48" rx="8" fill="#661AE3"/>
<path d="M19.7224 32.9785C18.6724 32.9785 17.7484 32.7755 16.9504 32.3695C16.1524 31.9495 15.5364 31.3615 15.1024 30.6055C14.6684 29.8495 14.4514 28.9815 14.4514 28.0015V22.9195C14.4514 21.9255 14.6684 21.0575 15.1024 20.3155C15.5364 19.5595 16.1524 18.9785 16.9504 18.5725C17.7484 18.1525 18.6724 17.9425 19.7224 17.9425C20.7584 17.9425 21.6684 18.1455 22.4524 18.5515C23.2504 18.9575 23.8664 19.5105 24.3004 20.2105C24.7344 20.9105 24.9514 21.7015 24.9514 22.5835V22.7515C24.9514 22.8215 24.9234 22.8845 24.8674 22.9405C24.8254 22.9825 24.7694 23.0035 24.6994 23.0035H22.7884C22.7184 23.0035 22.6554 22.9825 22.5994 22.9405C22.5574 22.8845 22.5364 22.8215 22.5364 22.7515V22.6465C22.5364 21.8905 22.2774 21.2675 21.7594 20.7775C21.2554 20.2875 20.5764 20.0425 19.7224 20.0425C18.8684 20.0425 18.1824 20.3015 17.6644 20.8195C17.1464 21.3235 16.8874 21.9955 16.8874 22.8355V28.0855C16.8874 28.9255 17.1604 29.6045 17.7064 30.1225C18.2524 30.6265 18.9594 30.8785 19.8274 30.8785C20.6674 30.8785 21.3254 30.6615 21.8014 30.2275C22.2914 29.7795 22.5364 29.1705 22.5364 28.4005V27.0985C22.5364 27.0285 22.5014 26.9935 22.4314 26.9935H19.8484C19.7784 26.9935 19.7154 26.9725 19.6594 26.9305C19.6174 26.8745 19.5964 26.8115 19.5964 26.7415V25.1875C19.5964 25.1175 19.6174 25.0615 19.6594 25.0195C19.7154 24.9635 19.7784 24.9355 19.8484 24.9355H24.6994C24.7694 24.9355 24.8254 24.9635 24.8674 25.0195C24.9234 25.0615 24.9514 25.1175 24.9514 25.1875V27.8755C24.9514 29.4855 24.4754 30.7385 23.5234 31.6345C22.5854 32.5305 21.3184 32.9785 19.7224 32.9785ZM36.2768 26.2375C36.3328 26.5875 36.3608 26.9795 36.3608 27.4135L36.3398 28.0645C36.3398 28.2325 36.2558 28.3165 36.0878 28.3165H29.5148C29.4448 28.3165 29.4098 28.3515 29.4098 28.4215C29.4518 28.8835 29.5148 29.1985 29.5988 29.3665C29.9348 30.3745 30.7538 30.8855 32.0558 30.8995C33.0078 30.8995 33.7638 30.5075 34.3238 29.7235C34.3798 29.6395 34.4498 29.5975 34.5338 29.5975C34.5898 29.5975 34.6388 29.6185 34.6808 29.6605L35.9828 30.7315C36.1088 30.8295 36.1298 30.9415 36.0458 31.0675C35.6118 31.6835 35.0308 32.1595 34.3028 32.4955C33.5888 32.8315 32.7908 32.9995 31.9088 32.9995C30.8168 32.9995 29.8858 32.7545 29.1158 32.2645C28.3598 31.7745 27.8068 31.0885 27.4568 30.2065C27.1348 29.4505 26.9738 28.4005 26.9738 27.0565C26.9738 26.2445 27.0578 25.5865 27.2258 25.0825C27.5058 24.1025 28.0308 23.3325 28.8008 22.7725C29.5848 22.1985 30.5228 21.9115 31.6148 21.9115C34.3728 21.9115 35.9268 23.3535 36.2768 26.2375ZM31.6148 24.0115C31.0968 24.0115 30.6628 24.1445 30.3128 24.4105C29.9768 24.6625 29.7388 25.0195 29.5988 25.4815C29.5148 25.7195 29.4588 26.0275 29.4308 26.4055C29.4028 26.4755 29.4308 26.5105 29.5148 26.5105H33.7778C33.8478 26.5105 33.8828 26.4755 33.8828 26.4055C33.8548 26.0555 33.8128 25.7895 33.7568 25.6075C33.6308 25.1035 33.3788 24.7115 33.0008 24.4315C32.6368 24.1515 32.1748 24.0115 31.6148 24.0115ZM43.8631 23.8015C43.8631 23.8715 43.8351 23.9345 43.7791 23.9905C43.7371 24.0325 43.6811 24.0535 43.6111 24.0535H41.4691C41.3991 24.0535 41.3641 24.0885 41.3641 24.1585V29.2195C41.3641 29.7515 41.4761 30.1365 41.7001 30.3745C41.9381 30.6125 42.3091 30.7315 42.8131 30.7315H43.4431C43.5131 30.7315 43.5691 30.7595 43.6111 30.8155C43.6671 30.8575 43.6951 30.9135 43.6951 30.9835V32.5585C43.6951 32.7125 43.6111 32.8035 43.4431 32.8315L42.3511 32.8525C41.2451 32.8525 40.4191 32.6635 39.8731 32.2855C39.3271 31.9075 39.0471 31.1935 39.0331 30.1435V24.1585C39.0331 24.0885 38.9981 24.0535 38.9281 24.0535H37.7311C37.6611 24.0535 37.5981 24.0325 37.5421 23.9905C37.5001 23.9345 37.4791 23.8715 37.4791 23.8015V22.3315C37.4791 22.2615 37.5001 22.2055 37.5421 22.1635C37.5981 22.1075 37.6611 22.0795 37.7311 22.0795H38.9281C38.9981 22.0795 39.0331 22.0445 39.0331 21.9745V19.5175C39.0331 19.4475 39.0541 19.3915 39.0961 19.3495C39.1521 19.2935 39.2151 19.2655 39.2851 19.2655H41.1121C41.1821 19.2655 41.2381 19.2935 41.2801 19.3495C41.3361 19.3915 41.3641 19.4475 41.3641 19.5175V21.9745C41.3641 22.0445 41.3991 22.0795 41.4691 22.0795H43.6111C43.6811 22.0795 43.7371 22.1075 43.7791 22.1635C43.8351 22.2055 43.8631 22.2615 43.8631 22.3315V23.8015Z" fill="white"/>
<path fill-rule="evenodd" clip-rule="evenodd" d="M58.8596 14.9782C51.1894 18.6745 51.0075 30.5499 58.5608 34.4848C59.4435 34.9447 59.4762 34.9333 59.2067 34.2594C58.3943 32.2284 57.7211 28.7055 58.1823 28.899C61.1758 30.1542 64.6684 30.191 67.474 28.9967C68.2732 28.6566 67.9674 31.1129 66.8335 34.1434C66.5308 34.9522 66.5404 34.9588 67.3737 34.519C74.9705 30.5092 74.8468 18.6978 67.1692 14.9955C66.5708 14.707 66.529 14.7403 66.7697 15.3137C67.1758 16.2809 67.6747 18.2108 67.916 19.7484C68.0955 20.892 68.09 20.9101 67.626 20.6897C65.0137 19.4489 61.2386 19.4497 58.2511 20.6915C57.7312 20.9077 58.2583 17.8843 59.1613 15.4712C59.4462 14.7096 59.4396 14.6987 58.8596 14.9782ZM64.5364 22.3911C69.2404 23.0713 69.9296 25.9133 65.6551 27.004C61.5586 28.0493 56.5961 26.418 57.5036 24.3243C58.1219 22.8979 61.5412 21.9579 64.5364 22.3911Z" fill="white"/>
<path d="M77 32.535H79.4416V25.463H87.1465V32.535H89.6081V16.8105H87.1465V23.2746H79.4416V16.8105H77V32.535ZM91.8276 36.8105H96.0902L101.574 21.0861H99.3323L96.2704 29.9007L93.1885 21.0861H90.9471L95.1096 32.9808L94.4693 34.7437H91.8276V36.8105ZM102.674 36.8105H104.955V31.6231C105.756 32.3323 106.856 32.7376 108.077 32.7376C111.659 32.7376 113.14 30.0426 113.14 26.7802C113.14 23.5177 111.639 20.8835 108.117 20.8835C106.856 20.8835 105.736 21.2685 104.955 22.0182V21.0861H102.674V36.8105ZM104.955 30.2655V23.3354H110.719V30.2655H104.955ZM119.537 32.7781C122.539 32.7781 124.2 31.1368 124.781 28.8673H122.699V30.4073H116.375V27.5299H125.001C125.021 27.307 125.041 27.0638 125.041 26.8207C125.041 23.5583 123.4 20.8632 119.537 20.8632C115.695 20.8632 114.054 23.5583 114.054 26.8207C114.054 30.0831 115.695 32.7781 119.537 32.7781ZM116.375 25.7467V23.2543H122.699V25.7467H116.375ZM126.457 21.0861V32.535H128.738V23.153H132.42V21.0861H126.457ZM134.437 32.535H136.839V26.3951H140.761C144.704 26.3951 146.265 24.3485 146.265 21.7143C146.265 19.0801 144.824 16.8105 141.122 16.8105H134.437V32.535ZM136.839 24.227V19.0801H143.643V24.227H136.839ZM147.621 32.535H149.902V16.8105H147.621V32.535ZM155.422 32.6971C156.443 32.7173 158.144 32.4742 158.864 31.6839V32.535H161.126V21.0861H151.88V23.153H158.864V25.848C158.024 25.1996 156.683 25.0375 155.402 25.0375C153.02 25.0375 151.319 26.1925 151.319 28.8673C151.359 31.2989 152.98 32.6971 155.422 32.6971ZM153.441 30.5694V27.1449H158.864V30.5694H153.441ZM163.254 36.8105H167.516L173 21.0861H170.759L167.697 29.9007L164.615 21.0861H162.373L166.536 32.9808L165.895 34.7437H163.254V36.8105Z" fill="white"/>
</svg>
