<svg width="24" height="24" viewBox="0 0 24 24" fill="none" xmlns="http://www.w3.org/2000/svg">
    <g id="Icon" clip-path="url(#clip0_4817_572)">
        <path id="Vector" d="M12.4792 10.92V14.2H20.3192C20.0792 16.04 19.4662 17.387 18.5322 18.333C17.3852 19.48 15.5992 20.733 12.4792 20.733C7.65215 20.733 3.87915 16.84 3.87915 12.013C3.87915 7.186 7.65215 3.293 12.4792 3.293C15.0792 3.293 16.9862 4.32 18.3862 5.64L20.6932 3.333C18.7462 1.44 16.1322 0 12.4792 0C5.86615 0 0.306152 5.387 0.306152 12C0.306152 18.613 5.86615 24 12.4792 24C16.0522 24 18.7462 22.827 20.8522 20.64C23.0122 18.48 23.6922 15.427 23.6922 12.973C23.6922 12.213 23.6392 11.506 23.5192 10.92H12.4792Z" fill="current"/>
    </g>
    <defs>
        <clipPath id="clip0_4817_572">
            <rect width="24" height="24" fill="white"/>
        </clipPath>
    </defs>
</svg>
