<svg width="23" height="22" viewBox="0 0 23 22" fill="none" xmlns="http://www.w3.org/2000/svg">
    <g id="Status Icon">
        <path id="Active"
              d="M11.666 20C16.6366 20 20.666 15.9706 20.666 11C20.666 6.02944 16.6366 2 11.666 2C6.69545 2 2.66602 6.02944 2.66602 11C2.66602 15.9706 6.69545 20 11.666 20Z"
              fill="#13141A" stroke="#13141A" stroke-width="4"/>
        <path id="Vector"
              d="M12 3C7.584 3 4 6.584 4 11C4 15.416 7.584 19 12 19C16.416 19 20 15.416 20 11C20 6.584 16.416 3 12 3ZM9.832 14.432L6.96 11.56C6.648 11.248 6.648 10.744 6.96 10.432C7.272 10.12 7.776 10.12 8.088 10.432L10.4 12.736L15.904 7.232C16.216 6.92 16.72 6.92 17.032 7.232C17.344 7.544 17.344 8.048 17.032 8.36L10.96 14.432C10.656 14.744 10.144 14.744 9.832 14.432Z"
              fill="#40FFBA"/>
    </g>
</svg>
