<svg width="22" height="16" viewBox="0 0 22 16" fill="none" xmlns="http://www.w3.org/2000/svg">
<path d="M20.91 4.54L19.83 0.56C19.75 0.23 19.45 0 19.11 0H2.89001C2.55001 0 2.25001 0.23 2.17001 0.56L1.09001 4.54C0.870008 5.37 1.04001 6.24 1.57001 6.93C1.93001 7.41 2.44001 7.74 3.00001 7.89V15.25C3.00001 15.66 3.34001 16 3.75001 16C4.16001 16 4.50001 15.66 4.50001 15.25V8H9.00001V15.25C9.00001 15.66 9.34001 16 9.75001 16H18.25C18.66 16 19 15.66 19 15.25V7.89C19.56 7.74 20.07 7.41 20.43 6.93C20.96 6.24 21.13 5.37 20.91 4.54ZM17.5 14.5H10.5V8H17.5V14.5ZM19.24 6.01C19 6.32 18.64 6.5 18.25 6.5H3.75001C3.36001 6.5 3.00001 6.32 2.76001 6.01C2.52001 5.7 2.44001 5.3 2.54001 4.92L3.46001 1.5H18.54L19.46 4.92C19.56 5.3 19.48 5.7 19.24 6.01Z" fill="current"/>
</svg>
