<svg width="40" height="40" viewBox="0 0 40 40" fill="none" xmlns="http://www.w3.org/2000/svg">
<rect width="40" height="40" rx="4" fill="#7318FB"/>
<path fill-rule="evenodd" clip-rule="evenodd" d="M16.0041 11.1509C8.60114 14.4775 8.42559 25.1654 15.7157 28.7069C16.5677 29.1207 16.5992 29.1104 16.3391 28.5039C15.555 26.676 14.9052 23.5055 15.3504 23.6795C18.2395 24.8093 21.6105 24.8424 24.3184 23.7675C25.0896 23.4614 24.7946 25.6721 23.7001 28.3995C23.408 29.1275 23.4172 29.1335 24.2216 28.7376C31.5536 25.1288 31.4342 14.4985 24.0242 11.1665C23.4467 10.9068 23.4062 10.9368 23.6386 11.4529C24.0306 12.3233 24.5121 14.0602 24.745 15.4441C24.9182 16.4733 24.9128 16.4896 24.4651 16.2913C21.9438 15.1745 18.3001 15.1752 15.4168 16.2929C14.915 16.4874 15.4237 13.7664 16.2952 11.5945C16.5703 10.9091 16.5639 10.8994 16.0041 11.1509ZM21.4831 17.8225C26.0232 18.4347 26.6883 20.9924 22.5628 21.9741C18.609 22.9149 13.8195 21.4467 14.6953 19.5624C15.2921 18.2786 18.5923 17.4326 21.4831 17.8225Z" fill="#E0E2E2"/>
</svg>
