<svg xmlns="http://www.w3.org/2000/svg" width="134" height="24" viewBox="0 0 134 24" fill="none">
  <path fill-rule="evenodd" clip-rule="evenodd" d="M6.25029 0.17884C-1.93128 4.12156 -2.12529 16.7887 5.93157 20.9859C6.87309 21.4764 6.90799 21.4642 6.62046 20.7454C5.7539 18.579 5.03582 14.8213 5.52777 15.0276C8.72081 16.3666 12.4463 16.4058 15.439 15.1319C16.2914 14.7691 15.9653 17.3892 14.7557 20.6217C14.4329 21.4844 14.4431 21.4915 15.332 21.0223C23.4352 16.7452 23.3032 4.14639 15.1139 0.197324C14.4756 -0.110423 14.4309 -0.0748771 14.6877 0.536716C15.1209 1.56832 15.653 3.62692 15.9104 5.26703C16.1019 6.48691 16.096 6.50624 15.6011 6.27115C12.8146 4.94763 8.7878 4.94839 5.60115 6.27307C5.04657 6.5036 5.60884 3.27872 6.57204 0.704647C6.87599 -0.107684 6.86891 -0.119267 6.25029 0.17884ZM12.3055 8.08589C17.3231 8.81152 18.0582 11.8429 13.4988 13.0064C9.12918 14.1213 3.83589 12.3812 4.80384 10.1481C5.46334 8.62648 9.11066 7.62385 12.3055 8.08589Z" fill="#FCFCF9"/>
  <path d="M28.4444 19.4394H31.1121V11.896H39.5304V19.4394H42.2199V2.66667H39.5304V9.56164H31.1121V2.66667H28.4444V19.4394ZM44.645 24H49.3023L55.2936 7.22729H52.8446L49.4991 16.6295L46.1319 7.22729H43.6829L48.2309 19.9149L47.5313 21.7953H44.645V24ZM56.4953 24H58.988V18.4667C59.8627 19.2232 61.0653 19.6555 62.3991 19.6555C66.3131 19.6555 67.9312 16.7808 67.9312 13.3009C67.9312 9.82101 66.2912 7.01115 62.4428 7.01115C61.0653 7.01115 59.8408 7.42182 58.988 8.22155V7.22729H56.4953V24ZM58.988 17.0186V9.62648H65.2854V17.0186H58.988ZM74.9204 19.6988C78.2003 19.6988 80.0151 17.948 80.6492 15.5272H78.3752V17.1699H71.4656V14.1006H80.8898C80.9116 13.8629 80.9335 13.6035 80.9335 13.3441C80.9335 9.86424 79.1405 6.98953 74.9204 6.98953C70.7221 6.98953 68.9291 9.86424 68.9291 13.3441C68.9291 16.824 70.7221 19.6988 74.9204 19.6988ZM71.4656 12.1986V9.54002H78.3752V12.1986H71.4656ZM82.4803 7.22729V19.4394H84.973V9.43195H88.9963V7.22729H82.4803ZM91.2 19.4394H93.8239V12.8902H98.1096C102.417 12.8902 104.123 10.7072 104.123 7.89733C104.123 5.08747 102.548 2.66667 98.5032 2.66667H91.2V19.4394ZM93.8239 10.5775V5.08747H101.258V10.5775H93.8239ZM105.604 19.4394H108.097V2.66667H105.604V19.4394ZM114.128 19.6123C115.243 19.6339 117.101 19.3745 117.889 18.5316V19.4394H120.359V7.22729H110.257V9.43195H117.889V12.3067C116.97 11.615 115.505 11.4421 114.106 11.4421C111.504 11.4421 109.645 12.6741 109.645 15.5272C109.689 18.1209 111.46 19.6123 114.128 19.6123ZM111.963 17.3428V13.69H117.889V17.3428H111.963ZM122.685 24H127.342L133.333 7.22729H130.884L127.539 16.6295L124.172 7.22729H121.723L126.271 19.9149L125.571 21.7953H122.685V24Z" fill="#FCFCF9"/>
</svg>