<svg width="128" height="27" viewBox="0 0 128 27" fill="none" xmlns="http://www.w3.org/2000/svg">
<path d="M0.546875 21.1306H3.77686V11.9371H13.9699V21.1306H17.2263V0.688843H13.9699V9.09208H3.77686V0.688843H0.546875V21.1306ZM20.1626 26.6888H25.8017L33.0559 6.2471H30.0907L26.04 17.7061L21.9629 6.2471H18.9977L24.5044 21.7101L23.6573 24.0019H20.1626V26.6888ZM34.511 26.6888H37.5292V19.9452C38.5882 20.8672 40.0443 21.394 41.6593 21.394C46.3984 21.394 48.3576 17.8905 48.3576 13.6493C48.3576 9.40819 46.372 5.98368 41.7123 5.98368C40.0443 5.98368 38.5617 6.48418 37.5292 7.45885V6.2471H34.511V26.6888ZM37.5292 18.1802V9.17111H45.1541V18.1802H37.5292ZM56.8202 21.4467C60.7915 21.4467 62.9889 19.313 63.7567 16.3626H61.0033V18.3646H52.6371V14.624H64.0479C64.0744 14.3342 64.1009 14.0181 64.1009 13.702C64.1009 9.46088 61.9299 5.95733 56.8202 5.95733C51.7369 5.95733 49.5659 9.46088 49.5659 13.702C49.5659 17.9431 51.7369 21.4467 56.8202 21.4467ZM52.6371 12.3059V9.06574H61.0033V12.3059H52.6371ZM65.9737 6.2471V21.1306H68.9919V8.93403H73.8634V6.2471H65.9737ZM76.5316 21.1306H79.7086V13.1488H84.8978C90.1134 13.1488 92.1785 10.4882 92.1785 7.06372C92.1785 3.6392 90.2723 0.688843 85.3743 0.688843H76.5316V21.1306ZM79.7086 10.3302V3.6392H88.7102V10.3302H79.7086ZM93.9719 21.1306H96.9901V0.688843H93.9719V21.1306ZM104.293 21.3413C105.643 21.3677 107.893 21.0516 108.846 20.0242V21.1306H111.838V6.2471H99.6064V8.93403H108.846V12.4376C107.734 11.5946 105.96 11.3839 104.266 11.3839C101.116 11.3839 98.8651 12.8854 98.8651 16.3626C98.9181 19.5237 101.063 21.3413 104.293 21.3413ZM101.671 18.5754V14.1235H108.846V18.5754H101.671ZM114.653 26.6888H120.293L127.547 6.2471H124.582L120.531 17.7061L116.454 6.2471H113.488L118.995 21.7101L118.148 24.0019H114.653V26.6888Z" fill="current"/>
</svg>
