<svg width="32" height="32" viewBox="0 0 32 32" fill="none" xmlns="http://www.w3.org/2000/svg">
<rect width="32" height="32" rx="4" fill="#010003" fill-opacity="0.8"/>
<path fill-rule="evenodd" clip-rule="evenodd" d="M12.0041 7.1509C4.60114 10.4775 4.42559 21.1654 11.7157 24.7069C12.5677 25.1207 12.5992 25.1104 12.3391 24.5039C11.555 22.676 10.9052 19.5055 11.3504 19.6795C14.2395 20.8093 17.6105 20.8424 20.3184 19.7675C21.0896 19.4614 20.7946 21.6721 19.7001 24.3995C19.408 25.1275 19.4172 25.1335 20.2216 24.7376C27.5536 21.1288 27.4342 10.4985 20.0242 7.16649C19.4467 6.90683 19.4062 6.93682 19.6386 7.45285C20.0306 8.32327 20.5121 10.0602 20.745 11.4441C20.9182 12.4733 20.9128 12.4896 20.4651 12.2913C17.9438 11.1745 14.3001 11.1752 11.4168 12.2929C10.915 12.4874 11.4237 9.76642 12.2952 7.59455C12.5703 6.90914 12.5639 6.89937 12.0041 7.1509ZM17.4831 13.8225C22.0232 14.4347 22.6883 16.9924 18.5628 17.9741C14.609 18.9149 9.81948 17.4467 10.6953 15.5624C11.2921 14.2786 14.5923 13.4326 17.4831 13.8225Z" fill="#E0E2E2"/>
</svg>
