<svg width="40" height="40" viewBox="0 0 40 40" fill="currentColor" xmlns="http://www.w3.org/2000/svg">
<path fill-rule="evenodd" clip-rule="evenodd" d="M11.7193 0.335324C-3.62115 7.72788 -3.98492 31.4787 11.1217 39.3486C12.8871 40.2682 12.9524 40.2454 12.4134 38.8977C10.7886 34.8356 9.44213 27.7899 10.3646 28.1768C16.3515 30.6873 23.3367 30.7608 28.9481 28.3723C30.5463 27.692 29.9349 32.6047 27.667 38.6656C27.0616 40.2832 27.0807 40.2966 28.7475 39.4168C43.941 31.3973 43.6935 7.77448 28.3385 0.369981C27.1417 -0.20704 27.058 -0.140392 27.5394 1.00634C28.3517 2.94061 29.3494 6.80044 29.8321 9.87571C30.1911 12.163 30.1799 12.1992 29.2521 11.7584C24.0274 9.27677 16.4771 9.27825 10.5022 11.762C9.46235 12.1943 10.5165 6.14759 12.3225 1.32122C12.8925 -0.201905 12.8792 -0.223627 11.7193 0.335324ZM23.0728 15.161C32.4808 16.5216 33.8591 22.2054 25.3102 24.3869C17.1172 26.4775 7.19229 23.2148 9.0072 19.0276C10.2438 16.1747 17.0825 14.2947 23.0728 15.161Z" fill="currentColor"/>
</svg>
