<svg viewBox="0 0 13 12" fill="currentColor" xmlns="http://www.w3.org/2000/svg">
<g clip-path="url(#clip0_3018_20791)">
<path d="M6.18164 0C4.99496 0 3.83492 0.351894 2.84822 1.01118C1.86153 1.67047 1.09249 2.60754 0.638366 3.7039C0.18424 4.80026 0.0654203 6.00666 0.296932 7.17054C0.528443 8.33443 1.09989 9.40353 1.939 10.2426C2.77812 11.0818 3.84722 11.6532 5.0111 11.8847C6.17499 12.1162 7.38139 11.9974 8.47774 11.5433C9.5741 11.0892 10.5112 10.3201 11.1705 9.33342C11.8297 8.34673 12.1816 7.18669 12.1816 6C12.1799 4.40923 11.5472 2.88411 10.4224 1.75926C9.29754 0.634414 7.77241 0.00172054 6.18164 0V0ZM6.18164 11C5.19274 11 4.22604 10.7068 3.40379 10.1573C2.58155 9.60794 1.94068 8.82705 1.56225 7.91342C1.18381 6.99979 1.08479 5.99445 1.27772 5.02455C1.47064 4.05464 1.94685 3.16373 2.64611 2.46447C3.34537 1.7652 4.23629 1.289 5.20619 1.09607C6.1761 0.903148 7.18143 1.00216 8.09506 1.3806C9.00869 1.75904 9.78958 2.3999 10.339 3.22215C10.8884 4.04439 11.1816 5.01109 11.1816 6C11.1802 7.32564 10.6529 8.59656 9.71557 9.53393C8.7782 10.4713 7.50728 10.9985 6.18164 11Z" fill="current"/>
<path d="M6.18164 5.00024H5.68164C5.54903 5.00024 5.42186 5.05292 5.32809 5.14669C5.23432 5.24046 5.18164 5.36764 5.18164 5.50024C5.18164 5.63285 5.23432 5.76003 5.32809 5.8538C5.42186 5.94757 5.54903 6.00024 5.68164 6.00024H6.18164V9.00024C6.18164 9.13285 6.23432 9.26003 6.32809 9.3538C6.42185 9.44757 6.54903 9.50024 6.68164 9.50024C6.81425 9.50024 6.94142 9.44757 7.03519 9.3538C7.12896 9.26003 7.18164 9.13285 7.18164 9.00024V6.00024C7.18164 5.73503 7.07628 5.48067 6.88874 5.29314C6.70121 5.1056 6.44685 5.00024 6.18164 5.00024Z" fill="current"/>
<path d="M6.18164 3.99976C6.59585 3.99976 6.93164 3.66397 6.93164 3.24976C6.93164 2.83554 6.59585 2.49976 6.18164 2.49976C5.76743 2.49976 5.43164 2.83554 5.43164 3.24976C5.43164 3.66397 5.76743 3.99976 6.18164 3.99976Z" fill="current"/>
</g>
<defs>
<clipPath id="clip0_3018_20791">
<rect width="12" height="12" fill="white" transform="translate(0.181641)"/>
</clipPath>
</defs>
</svg>
