<svg width="25" height="24" viewBox="0 0 25 24" fill="none" xmlns="http://www.w3.org/2000/svg">
<path d="M14.4312 2H8.67559C8.49611 2 8.40638 2 8.32715 2.02733C8.25709 2.05149 8.19327 2.09093 8.14032 2.14279C8.08045 2.20143 8.04032 2.2817 7.96005 2.44223L3.76005 10.8422C3.56837 11.2256 3.47253 11.4173 3.49555 11.5731C3.51565 11.7091 3.59091 11.8309 3.70361 11.9097C3.83268 12 4.04698 12 4.47559 12H10.6812L7.68117 22L19.8743 9.35531C20.2856 8.9287 20.4913 8.7154 20.5033 8.53288C20.5138 8.37446 20.4484 8.22049 20.3271 8.11803C20.1873 8 19.891 8 19.2984 8H12.1812L14.4312 2Z" stroke="#B0C1D5" stroke-width="1.5" stroke-linecap="round" stroke-linejoin="round"/>
</svg>
