<svg width="150" height="150" viewBox="0 0 150 150" id="LinkIcon" fill="none" xmlns="http://www.w3.org/2000/svg">
<circle cx="75" cy="75" r="75" fill="#282B34"/>
<path d="M68.334 78.3319C69.7655 80.2457 71.5919 81.8292 73.6892 82.975C75.7865 84.1209 78.1057 84.8023 80.4895 84.973C82.8733 85.1437 85.266 84.7998 87.5051 83.9645C89.7443 83.1292 91.7777 81.8221 93.4673 80.1319L103.467 70.1319C106.503 66.9885 108.183 62.7785 108.145 58.4086C108.107 54.0386 106.354 49.8584 103.264 46.7683C100.174 43.6781 95.994 41.9253 91.624 41.8873C87.2541 41.8494 83.044 43.5293 79.9007 46.5652L74.1673 52.2652M81.6673 71.6652C80.2358 69.7515 78.4095 68.168 76.3122 67.0221C74.2149 65.8763 71.8956 65.1949 69.5118 65.0241C67.128 64.8534 64.7354 65.1974 62.4962 66.0326C60.257 66.8679 58.2236 68.175 56.534 69.8652L46.534 79.8652C43.498 83.0086 41.8181 87.2187 41.8561 91.5886C41.8941 95.9585 43.6469 100.139 46.737 103.229C49.8272 106.319 54.0074 108.072 58.3773 108.11C62.7473 108.148 66.9573 106.468 70.1007 103.432L75.8007 97.7319" stroke="white" stroke-width="8" stroke-linecap="round" stroke-linejoin="round"/>
</svg>
