<svg xmlns="http://www.w3.org/2000/svg" width="80" height="81" viewBox="0 0 80 81" fill="none">
  <g clip-path="url(#clip0_6_49528)">
    <path d="M41.6815 0.046936C41.1648 0.046936 40.6315 0.0736027 40.0815 0.116936C25.9948 1.22694 29.7315 16.1403 29.5148 21.1103C29.2615 24.7503 28.5148 27.6203 26.0148 31.1769C23.0648 34.6803 18.9248 40.3436 16.9615 46.2469C16.0348 49.0203 15.5948 51.8603 16.0048 54.5436C15.8528 54.6666 15.7279 54.8198 15.6381 54.9936C14.7715 55.8869 14.1381 56.9936 13.4281 57.7903C12.7648 58.4536 11.8115 58.6803 10.7715 59.1236C9.72813 59.5769 8.57813 60.0203 7.89147 61.3903C7.59147 62.0203 7.43813 62.7036 7.45147 63.3969C7.45147 64.0603 7.54147 64.7303 7.6348 65.1836C7.82813 66.5136 8.02147 67.6103 7.76813 68.4169C6.93813 70.6836 6.8348 72.2336 7.4148 73.3636C7.9948 74.4769 9.19813 74.9303 10.5481 75.3669C13.2481 76.0336 16.9148 75.8169 19.7948 77.3669C22.8815 78.9203 26.0148 79.6003 28.5148 78.9336C30.2681 78.5469 31.7481 77.3869 32.5415 75.7803C34.4981 75.7703 36.6415 74.8836 40.0748 74.6669C42.4048 74.4736 45.3215 75.5569 48.6648 75.3336C48.7481 75.7803 48.8748 75.9936 49.0448 76.4436L49.0548 76.4536C50.3581 79.0469 52.7648 80.2269 55.3348 80.0236C57.9048 79.8236 60.6415 78.2369 62.8581 75.6703C64.9615 73.1203 68.4681 72.0569 70.7848 70.6603C71.9448 69.9969 72.8815 69.0969 72.9481 67.8169C73.0248 66.4836 72.2815 65.1136 70.5681 63.2303V62.9069L70.5581 62.8969C69.9915 62.2303 69.7248 61.1136 69.4315 59.8103C69.1481 58.4736 68.8248 57.1903 67.7915 56.3236H67.7815C67.5848 56.1436 67.3715 56.1003 67.1548 55.8736C66.9684 55.7434 66.7486 55.6694 66.5215 55.6603C67.9581 51.4003 67.4015 47.1603 65.9448 43.3469C64.1681 38.6469 61.0615 34.5536 58.6948 31.7369C56.0415 28.3869 53.4415 25.2136 53.4948 20.5103C53.5815 13.3369 54.2815 0.066936 41.6815 0.046936V0.046936ZM43.4448 11.3969H43.4881C44.1981 11.3969 44.8081 11.6036 45.4348 12.0569C46.0681 12.5069 46.5348 13.1636 46.8948 13.8336C47.2448 14.6969 47.4215 15.3636 47.4481 16.2469C47.4481 16.1803 47.4681 16.1136 47.4681 16.0469V16.3969C47.4608 16.3742 47.4563 16.3507 47.4548 16.3269L47.4415 16.2469C47.4347 17.057 47.2647 17.8574 46.9415 18.6003C46.7858 19.0182 46.5439 19.3987 46.2315 19.7169C46.137 19.6636 46.039 19.6168 45.9381 19.5769C45.5915 19.4269 45.2781 19.3636 44.9915 19.1336C44.7539 19.039 44.5085 18.9654 44.2581 18.9136C44.4248 18.7136 44.7448 18.4703 44.8681 18.2536C45.0448 17.8269 45.1415 17.3736 45.1615 16.9136V16.8469C45.169 16.3942 45.1003 15.9435 44.9581 15.5136C44.8081 15.0669 44.6215 14.8469 44.3481 14.4036C44.0681 14.1836 43.7915 13.9636 43.4581 13.9636H43.4048C43.0948 13.9636 42.8181 14.0636 42.5315 14.4036C42.2149 14.7123 41.9801 15.0949 41.8481 15.5169C41.6711 15.9405 41.5696 16.3917 41.5481 16.8503V16.9136C41.5548 17.2103 41.5748 17.5103 41.6148 17.8036C40.9715 17.5803 40.1548 17.3536 39.5915 17.1303C39.5578 16.9095 39.5378 16.6868 39.5315 16.4636V16.3969C39.5053 15.517 39.6761 14.6423 40.0315 13.8369C40.3048 13.1036 40.8048 12.4836 41.4648 12.0603C42.0346 11.6284 42.7298 11.3943 43.4448 11.3936V11.3969ZM33.5715 11.5936H33.6915C34.1648 11.5936 34.5915 11.7536 35.0215 12.0436C35.5081 12.4736 35.9015 13.0036 36.1681 13.5936C36.4681 14.2569 36.6348 14.9269 36.6781 15.8169V15.8303C36.7015 16.2769 36.6981 16.4969 36.6715 16.7169V16.9836C36.5715 17.0069 36.4848 17.0436 36.3948 17.0636C35.8881 17.2469 35.4815 17.5136 35.0848 17.7303C35.1248 17.4303 35.1281 17.1303 35.0948 16.8403V16.7903C35.0548 16.3469 34.9615 16.1236 34.8215 15.6803C34.7175 15.3405 34.5268 15.0338 34.2681 14.7903C34.186 14.7156 34.0896 14.6582 33.9848 14.6215C33.88 14.5849 33.7689 14.5697 33.6581 14.5769H33.5881C33.3515 14.5969 33.1548 14.7103 32.9681 15.0169C32.7555 15.275 32.6172 15.5862 32.5681 15.9169C32.478 16.2762 32.4521 16.6486 32.4915 17.0169V17.0669C32.5315 17.5169 32.6148 17.7336 32.7581 18.1803C32.9115 18.6269 33.0848 18.8469 33.3115 19.0736C33.3448 19.1036 33.3781 19.1336 33.4248 19.1536C33.1915 19.3436 33.0348 19.3869 32.8381 19.6069C32.7134 19.7172 32.5634 19.7951 32.4015 19.8336C32.055 19.4164 31.7481 18.9678 31.4848 18.4936C31.1697 17.7931 30.9942 17.0379 30.9681 16.2703C30.9129 15.5178 31.0035 14.7618 31.2348 14.0436C31.4184 13.3887 31.74 12.7806 32.1781 12.2603C32.6048 11.8169 33.0448 11.5936 33.5715 11.5936ZM38.1381 17.2803C39.2448 17.2803 40.5815 17.4969 42.1915 18.6103C43.1681 19.2769 43.9348 19.5069 45.6981 20.1703H45.7081C46.5581 20.6236 47.0581 21.0569 47.3015 21.5003V21.0636C47.4211 21.306 47.4877 21.5711 47.4969 21.8412C47.5061 22.1113 47.4577 22.3803 47.3548 22.6303C46.9448 23.6636 45.6348 24.7736 43.8115 25.4369V25.4436C42.9181 25.8936 42.1415 26.5536 41.2281 26.9936C40.3081 27.4436 39.2681 27.9669 37.8548 27.8836C37.3471 27.9099 36.8393 27.8339 36.3615 27.6603C35.9923 27.4594 35.634 27.2391 35.2881 27.0003C34.6381 26.5503 34.0781 25.8936 33.2481 25.4503V25.4336H33.2315C31.8981 24.6136 31.1781 23.7269 30.9448 23.0669C30.7115 22.1736 30.9281 21.5003 31.5881 21.0669C32.3348 20.6169 32.8548 20.1636 33.1981 19.9469C33.5448 19.7003 33.6748 19.6069 33.7848 19.5103H33.7915V19.5003C34.3548 18.8269 35.2448 17.9336 36.5881 17.4969C37.0515 17.3769 37.5681 17.2803 38.1415 17.2803H38.1381ZM47.4715 24.4203C48.6648 29.1436 51.4581 36.0036 53.2548 39.3303C54.2081 41.1103 56.1048 44.8603 56.9281 49.4103C57.4481 49.3936 58.0281 49.4703 58.6381 49.6236C60.7915 44.0536 56.8181 38.0669 55.0081 36.4036C54.2748 35.7369 54.2348 35.2869 54.5981 35.2869C56.5648 37.0669 59.1481 40.5269 60.0848 44.4769C60.5181 46.2603 60.6181 48.1569 60.1548 50.0436C60.3781 50.1369 60.6048 50.2436 60.8381 50.2669C64.2781 52.0469 65.5481 53.3936 64.9381 55.3903V55.2469C64.7381 55.2369 64.5381 55.2469 64.3381 55.2469H64.2848C64.7881 53.6903 63.6781 52.4969 60.7348 51.1669C57.6848 49.8336 55.2481 50.0469 54.8348 52.7169C54.8081 52.8603 54.7915 52.9369 54.7748 53.1669C54.5481 53.2436 54.3115 53.3436 54.0781 53.3803C52.6448 54.2736 51.8715 55.6103 51.4348 57.3369C51.0015 59.1136 50.8681 61.1903 50.7515 63.5669V63.5769C50.6848 64.6903 50.1848 66.3703 49.6881 68.0769C44.6881 71.6503 37.7548 73.2036 31.8615 69.1903C31.4916 68.5438 31.0414 67.9468 30.5215 67.4136C30.273 66.9999 29.964 66.6258 29.6048 66.3036C30.2115 66.3036 30.7315 66.2036 31.1548 66.0803C31.6341 65.8579 32.0091 65.4591 32.2015 64.9669C32.5615 64.0769 32.2015 62.6436 31.0515 61.0903C29.9015 59.5336 27.9481 57.7736 25.0915 56.0203C22.9915 54.6869 21.8048 53.1203 21.2581 51.3669C20.7081 49.5869 20.7815 47.7503 21.2081 45.8836C22.0248 42.3169 24.1181 38.8503 25.4548 36.6736C25.8115 36.4569 25.5781 37.1236 24.0948 39.9203C22.7748 42.4236 20.2948 48.2436 23.6881 52.7669C23.8163 49.4666 24.5472 46.2175 25.8448 43.1803C27.7248 38.9203 31.6548 31.5003 31.9648 25.6203C32.1248 25.7403 32.6881 26.0703 32.9281 26.2936C33.6548 26.7369 34.1948 27.4036 34.8948 27.8436C35.5948 28.5136 36.4848 28.9603 37.8148 28.9603C37.9448 28.9703 38.0648 28.9803 38.1815 28.9803C39.5548 28.9803 40.6148 28.5336 41.5048 28.0869C42.4715 27.6403 43.2381 26.9736 43.9715 26.7536H43.9881C45.5448 26.3036 46.7715 25.4136 47.4681 24.4203H47.4715ZM54.7548 54.2803C54.8781 56.2803 55.8981 58.4303 57.6948 58.8703C59.6548 59.3169 62.4748 57.7603 63.6648 56.3203L64.3681 56.2869C65.4181 56.2636 66.2915 56.3203 67.1915 57.1803L67.2015 57.1903C67.8948 57.8536 68.2181 58.9569 68.5048 60.1103C68.7881 61.4436 69.0181 62.7103 69.8681 63.6636C71.4881 65.4203 72.0181 66.6836 71.9881 67.4636L71.9981 67.4403V67.5003L71.9881 67.4603C71.9381 68.3336 71.3715 68.7803 70.3281 69.4436C68.2281 70.7803 64.5081 71.8169 62.1381 74.6769C60.0781 77.1336 57.5715 78.4769 55.3515 78.6469C53.1381 78.8236 51.2281 77.9803 50.1048 75.6536L50.0881 75.6436C49.3881 74.3103 49.6881 72.2269 50.2748 70.0103C50.8615 67.7836 51.7015 65.5303 51.8181 63.6869C51.9415 61.3069 52.0715 59.2369 52.4681 57.6403C52.8681 56.0903 53.4948 54.9836 54.6048 54.3603L54.7548 54.2869V54.2803ZM18.7081 54.4436H18.7415C18.9181 54.4436 19.0915 54.4603 19.2648 54.4903C20.5181 54.6736 21.6181 55.6003 22.6748 56.9969L25.7081 62.5436L25.7181 62.5536C26.5281 64.3303 28.2315 66.1003 29.6815 68.0103C31.1281 70.0036 32.2481 71.7803 32.1115 73.2436V73.2636C31.9215 75.7436 30.5115 77.0903 28.3615 77.5769C26.2115 78.0269 23.2948 77.5836 20.3781 76.0303C17.1515 74.2436 13.3181 74.4669 10.8548 74.0236C9.6248 73.8036 8.82147 73.3569 8.4448 72.6903C8.07813 72.0236 8.06813 70.6836 8.8548 68.5903V68.5769L8.86147 68.5669C9.25147 67.4536 8.96147 66.0603 8.77147 64.8403C8.58813 63.5036 8.4948 62.4736 8.9148 61.7069C9.44813 60.5936 10.2348 60.3736 11.2148 59.9303C12.1948 59.4803 13.3481 59.2569 14.2648 58.3636H14.2715V58.3569C15.1248 57.4636 15.7548 56.3536 16.4981 55.5636C17.1315 54.8936 17.7648 54.4436 18.7081 54.4436ZM42.5715 24.1969C41.1215 24.8669 39.4215 25.9803 37.6115 25.9803C35.8048 25.9803 34.3781 25.0903 33.3448 24.4269C32.8315 23.9803 32.4115 23.5336 32.1015 23.3103C31.5548 22.8636 31.6215 22.2003 31.8548 22.2003C32.2181 22.2536 32.2848 22.6469 32.5181 22.8669C32.8381 23.0869 33.2348 23.5336 33.7181 23.9769C34.6915 24.6436 35.9848 25.5336 37.6081 25.5336C39.2248 25.5336 41.1181 24.6436 42.2681 23.9803C42.9181 23.5303 43.7515 22.8669 44.4281 22.4236C44.9481 21.9703 44.9248 21.5336 45.3581 21.5336C45.7848 21.5869 45.4715 21.9803 44.8681 22.6403C44.1288 23.1994 43.3611 23.7201 42.5681 24.2003L42.5715 24.1969ZM38.9648 18.9203V18.8469C38.9448 18.7803 39.0081 18.7069 39.0615 18.6803C39.3081 18.5369 39.6615 18.5903 39.9281 18.6936C40.1381 18.6936 40.4615 18.9169 40.4281 19.1436C40.4081 19.3069 40.1448 19.3636 39.9781 19.3636C39.7948 19.3636 39.6715 19.2203 39.5081 19.1369C39.3348 19.0769 39.0215 19.1103 38.9648 18.9203ZM37.1281 18.9203C37.0615 19.1136 36.7515 19.0836 36.5748 19.1403C36.4181 19.2236 36.2881 19.3669 36.1081 19.3669C35.9415 19.3669 35.6748 19.3003 35.6548 19.1403C35.6215 18.9203 35.9481 18.6969 36.1548 18.6969C36.4215 18.5936 36.7681 18.5403 37.0181 18.6803C37.0815 18.7103 37.1381 18.7803 37.1181 18.8469V18.9136H37.1281V18.9203Z" fill="currentColor"/>
  </g>
  <defs>
    <clipPath id="clip0_6_49528">
      <rect width="80" height="80" fill="white" transform="translate(0 0.046875)"/>
    </clipPath>
  </defs>
</svg>