<svg width="17" height="17" viewBox="0 0 17 17" fill="none" xmlns="http://www.w3.org/2000/svg">
<path d="M16 8.5C16 12.6421 12.6421 16 8.5 16C4.35786 16 1 12.6421 1 8.5C1 4.35786 4.35786 1 8.5 1C12.6421 1 16 4.35786 16 8.5ZM2.5 8.5C2.5 11.8137 5.18629 14.5 8.5 14.5C11.8137 14.5 14.5 11.8137 14.5 8.5C14.5 5.18629 11.8137 2.5 8.5 2.5C5.18629 2.5 2.5 5.18629 2.5 8.5Z" fill="#222530"/>
<path d="M13.6602 13.9428C12.9454 14.6204 12.1042 15.1506 11.1846 15.5032C10.2649 15.8557 9.28482 16.0237 8.30025 15.9975C7.31569 15.9712 6.34593 15.7514 5.44635 15.3504C4.54676 14.9493 3.73497 14.3751 3.05732 13.6603L4.14585 12.6283C4.68797 13.2001 5.3374 13.6595 6.05707 13.9803C6.77673 14.3011 7.55254 14.477 8.34019 14.498C9.12784 14.519 9.91192 14.3846 10.6476 14.1026C11.3834 13.8205 12.0563 13.3964 12.6281 12.8542L13.6602 13.9428Z" fill="#9469FE"/>
</svg>
