<svg width="18" height="20" viewBox="0 0 18 20" fill="none" xmlns="http://www.w3.org/2000/svg">
<path fill-rule="evenodd" clip-rule="evenodd" d="M16.1001 17.16C16.6901 16.26 16.9101 15.8 17.3601 14.79C14.0401 13.53 13.5101 8.8 16.7901 6.99C15.7901 5.73 14.3801 5 13.0501 5C12.0901 5 11.4301 5.25 10.8401 5.48C10.3401 5.67 9.89007 5.84 9.33007 5.84C8.73007 5.84 8.20007 5.65 7.64007 5.45C7.03007 5.23 6.39007 5 5.59007 5C4.10007 5 2.51007 5.91 1.50007 7.47C0.0800674 9.67 0.330067 13.79 2.62007 17.31C3.44007 18.57 4.54007 19.98 5.97007 20C6.57007 20.01 6.96007 19.83 7.39007 19.64C7.88007 19.42 8.41007 19.18 9.34007 19.18C10.2701 19.17 10.7901 19.42 11.2801 19.64C11.7001 19.83 12.0801 20.01 12.6701 20C14.1201 19.98 15.2801 18.42 16.1001 17.16ZM12.8401 0C13.0001 1.1 12.5501 2.19 11.9601 2.95C11.3301 3.77 10.2301 4.41 9.17007 4.37C8.98007 3.31 9.47007 2.22 10.0701 1.49C10.7401 0.69 11.8701 0.07 12.8401 0Z" fill="#E0E2E2"/>
</svg>
