<svg xmlns="http://www.w3.org/2000/svg" width="80" height="81" viewBox="0 0 80 81" fill="none">
  <g clip-path="url(#macOSIconSVG)">
    <path d="M40.5061 23.0335C37.3461 23.0335 32.4561 19.4402 27.3061 19.5669C20.5061 19.6569 14.2727 23.5102 10.7694 29.6135C3.71273 41.8635 8.94939 59.9569 15.8327 69.9135C19.2094 74.7602 23.1927 80.2135 28.4727 80.0435C33.5394 79.8269 35.4394 76.7535 41.5894 76.7535C47.6927 76.7535 49.4227 80.0435 54.7894 79.9135C60.2461 79.8269 63.7094 74.9802 67.0427 70.0869C70.8961 64.4602 72.496 59.0035 72.5827 58.7035C72.4527 58.6602 61.9761 54.6335 61.8494 42.5135C61.7627 32.3802 70.1161 27.5335 70.5061 27.3169C65.7427 20.3502 58.4294 19.5702 55.8727 19.3969C49.2061 18.8769 43.6227 23.0302 40.5061 23.0302V23.0335ZM51.7661 12.8135C54.5761 9.44021 56.4327 4.72354 55.9161 0.046875C51.8927 0.220208 47.0427 2.73021 44.1427 6.10687C41.5427 9.09354 39.2961 13.9002 39.8994 18.4869C44.3594 18.8335 48.9494 16.1935 51.7627 12.8169" fill="currentColor"/>
  </g>
  <defs>
    <clipPath id="macOSIconSVG">
      <rect width="80" height="80" fill="white" transform="translate(0 0.046875)"/>
    </clipPath>
  </defs>
</svg>