<svg width="16" height="16" viewBox="0 0 16 16" fill="none" xmlns="http://www.w3.org/2000/svg">
<path d="M15.8045 14.8625L11.8252 10.8831C12.9096 9.55686 13.4428 7.86453 13.3144 6.15617C13.1861 4.44782 12.406 2.85415 11.1356 1.70481C9.86516 0.555472 8.20158 -0.0616068 6.48895 -0.0187856C4.77632 0.0240356 3.14566 0.723481 1.93426 1.93487C0.72287 3.14627 0.0234252 4.77693 -0.019396 6.48956C-0.0622172 8.20219 0.554862 9.86577 1.7042 11.1362C2.85354 12.4066 4.44721 13.1867 6.15556 13.315C7.86392 13.4434 9.55625 12.9102 10.8825 11.8258L14.8619 15.8051C14.9876 15.9266 15.156 15.9938 15.3308 15.9922C15.5056 15.9907 15.6728 15.9206 15.7964 15.797C15.92 15.6734 15.9901 15.5062 15.9916 15.3314C15.9932 15.1566 15.926 14.9882 15.8045 14.8625ZM6.66652 12.0005C5.61169 12.0005 4.58054 11.6877 3.70348 11.1016C2.82642 10.5156 2.14283 9.68265 1.73916 8.70811C1.3355 7.73357 1.22988 6.66122 1.43567 5.62665C1.64145 4.59208 2.14941 3.64178 2.89529 2.8959C3.64117 2.15002 4.59147 1.64206 5.62604 1.43628C6.6606 1.23049 7.73296 1.33611 8.7075 1.73977C9.68204 2.14344 10.515 2.82703 11.101 3.70409C11.6871 4.58115 11.9999 5.6123 11.9999 6.66713C11.9983 8.08113 11.4359 9.43676 10.436 10.4366C9.43615 11.4365 8.08052 11.9989 6.66652 12.0005Z" fill="current"/>
</svg>
