<svg width="48" height="44" viewBox="0 0 48 44" fill="none" xmlns="http://www.w3.org/2000/svg">
<path d="M17.3265 27.3585H20.8204C21.0608 27.3585 21.2557 27.1771 21.2557 26.9535V25.5967C21.2557 25.522 21.2334 25.4487 21.1914 25.385L20.9466 25.0135C20.8675 24.8934 20.727 24.8203 20.5756 24.8203H17.5379C17.3712 24.8203 17.2192 24.9089 17.1464 25.0484L16.935 25.4538C16.9062 25.5089 16.8913 25.5694 16.8913 25.6306V26.9535C16.8913 27.1771 17.0862 27.3585 17.3265 27.3585Z" fill="white"/>
<path d="M15.4055 20.3741L13.7982 20.0637C13.423 19.9912 13.3243 19.5355 13.6401 19.3334L14.6105 18.7126C14.8136 18.5827 15.092 18.6354 15.2243 18.8289L15.8611 19.7601C16.0677 20.0622 15.7823 20.4468 15.4055 20.3741Z" fill="white"/>
<path d="M24.2821 20.0637L22.6748 20.3741C22.298 20.4468 22.0126 20.0622 22.2192 19.7601L22.856 18.8289C22.9883 18.6354 23.2667 18.5827 23.4698 18.7126L24.4402 19.3334C24.756 19.5355 24.6573 19.9912 24.2821 20.0637Z" fill="white"/>
<path fill-rule="evenodd" clip-rule="evenodd" d="M2.59973 0.163483C2.27816 0.336712 2.05114 0.629231 1.97554 0.967758L0.884454 5.85381C0.848065 6.01676 0.848046 6.18492 0.884391 6.34788L3.06721 16.1344L0.913162 22.7549C0.841313 22.9758 0.838528 23.2111 0.905127 23.4333L2.88273 30.0327C3.07358 30.6695 3.77671 31.0475 4.46494 30.8831L11.5739 29.1855L15.3724 31.7663C15.596 31.9182 15.8656 32 16.1424 32H22.1434C22.4201 32 22.6898 31.9182 22.9133 31.7663L26.7118 29.1855L33.8208 30.8831C34.509 31.0475 35.2122 30.6695 35.403 30.0327L37.3806 23.4333C37.4472 23.2111 37.4444 22.9758 37.3726 22.7549L35.2185 16.1344L37.4013 6.34788C37.4377 6.18492 37.4377 6.01676 37.4013 5.85381L36.3102 0.967758C36.2346 0.629231 36.0076 0.336712 35.686 0.163483C35.3644 -0.0097457 34.9788 -0.0472726 34.6256 0.0603037L23.3671 3.49004H14.9186L3.6601 0.0603037C3.30697 -0.0472726 2.92131 -0.0097457 2.59973 0.163483ZM21.7174 29.5701H16.5683L13.2059 27.2856L13.5568 23.2039C13.5859 22.8659 13.4619 22.532 13.2147 22.2829C12.9675 22.0337 12.6197 21.8921 12.2554 21.8921H3.92224L5.45781 17.1724L12.9619 15.1358C13.2377 15.0609 13.4793 14.9035 13.6492 14.6879L16.6497 10.8806C17.0674 10.3506 16.9564 9.60759 16.3992 9.20368L9.9605 4.53639L14.3041 5.8596C14.4352 5.89954 14.5723 5.9199 14.7103 5.9199H23.5754C23.7134 5.9199 23.8505 5.89954 23.9816 5.8596L28.3252 4.53639L21.8865 9.20368C21.3293 9.60759 21.2183 10.3506 21.636 10.8806L24.6365 14.6879C24.8064 14.9035 25.048 15.0609 25.3238 15.1358L32.8279 17.1724L34.3635 21.8921H26.0304C25.666 21.8921 25.3182 22.0337 25.071 22.2829C24.8239 22.532 24.6998 22.8659 24.7289 23.2039L25.0798 27.2856L21.7174 29.5701ZM4.10563 3.37241L13.794 10.3953L11.8054 12.9185L5.40435 14.6558L3.49628 6.10113L4.10563 3.37241ZM3.88231 24.3219H10.8411L10.619 26.9049L5.05455 28.2337L3.88231 24.3219ZM34.1801 3.37241L24.4918 10.3953L26.4803 12.9185L32.8814 14.6558L34.7894 6.10113L34.1801 3.37241ZM34.4034 24.3219H27.4446L27.6667 26.9049L33.2312 28.2337L34.4034 24.3219Z" fill="white"/>
<path d="M41.1429 32C39.9562 32 38.7961 32.3519 37.8094 33.0112C36.8227 33.6705 36.0537 34.6075 35.5996 35.7039C35.1455 36.8003 35.0266 38.0067 35.2581 39.1705C35.4897 40.3344 36.0611 41.4035 36.9002 42.2426C37.7393 43.0818 38.8084 43.6532 39.9723 43.8847C41.1362 44.1162 42.3426 43.9974 43.439 43.5433C44.5353 43.0892 45.4724 42.3201 46.1317 41.3334C46.791 40.3467 47.1429 39.1867 47.1429 38C47.1411 36.4092 46.5084 34.8841 45.3836 33.7593C44.2588 32.6344 42.7336 32.0017 41.1429 32ZM41.1429 43C40.154 43 39.1873 42.7068 38.365 42.1573C37.5428 41.6079 36.9019 40.827 36.5235 39.9134C36.145 38.9998 36.046 37.9945 36.2389 37.0245C36.4319 36.0546 36.9081 35.1637 37.6073 34.4645C38.3066 33.7652 39.1975 33.289 40.1674 33.0961C41.1373 32.9031 42.1426 33.0022 43.0563 33.3806C43.9699 33.759 44.7508 34.3999 45.3002 35.2221C45.8496 36.0444 46.1429 37.0111 46.1429 38C46.1414 39.3256 45.6142 40.5966 44.6768 41.5339C43.7394 42.4713 42.4685 42.9985 41.1429 43ZM43.6429 38C43.6429 38.1326 43.5902 38.2598 43.4964 38.3536C43.4026 38.4473 43.2755 38.5 43.1429 38.5H41.6429V40C41.6429 40.1326 41.5902 40.2598 41.4964 40.3536C41.4026 40.4473 41.2755 40.5 41.1429 40.5C41.0103 40.5 40.8831 40.4473 40.7893 40.3536C40.6955 40.2598 40.6429 40.1326 40.6429 40V38.5H39.1429C39.0103 38.5 38.8831 38.4473 38.7893 38.3536C38.6955 38.2598 38.6429 38.1326 38.6429 38C38.6429 37.8674 38.6955 37.7402 38.7893 37.6464C38.8831 37.5527 39.0103 37.5 39.1429 37.5H40.6429V36C40.6429 35.8674 40.6955 35.7402 40.7893 35.6464C40.8831 35.5527 41.0103 35.5 41.1429 35.5C41.2755 35.5 41.4026 35.5527 41.4964 35.6464C41.5902 35.7402 41.6429 35.8674 41.6429 36V37.5H43.1429C43.2755 37.5 43.4026 37.5527 43.4964 37.6464C43.5902 37.7402 43.6429 37.8674 43.6429 38Z" fill="#40FFBA"/>
</svg>
