<svg width="46" height="44" viewBox="0 0 46 44" fill="none" xmlns="http://www.w3.org/2000/svg">
<g clip-path="url(#clip0_422_14141)">
<path d="M33.7318 32.774L26.6482 30.654L21.3064 33.8636L17.5793 33.862L12.2342 30.654L5.15383 32.774L3 25.4663L5.15383 17.3558L3 10.4987L5.15383 2L16.2174 8.64362H22.668L33.7318 2L35.8857 10.4987L33.7318 17.3558L35.8857 25.4663L33.7318 32.774Z" fill="#FF5C16"/>
<path d="M5.15527 2L16.2191 8.64829L15.7792 13.211L5.15527 2ZM12.2359 25.4693L17.1038 29.1965L12.2359 30.654V25.4693ZM16.7148 19.3073L15.7792 13.214L9.79038 17.3577L9.78713 17.356V17.3591L9.80572 21.6242L12.2342 19.3076L16.7148 19.3073ZM33.7319 2L22.668 8.64829L23.1066 13.211L33.7319 2ZM26.6515 25.4693L21.7833 29.1965L26.6515 30.654V25.4693ZM29.0984 17.3588V17.3558L29.097 17.3574L23.1082 13.214L22.1726 19.3073H26.6513L29.0814 21.6237L29.0984 17.3588Z" fill="#FF5C16"/>
<path d="M12.2342 30.654L5.15383 32.7739L3 25.4693H12.2342V30.654ZM16.7131 19.3057L18.0657 28.1148L16.1912 23.2167L9.80265 21.6237L12.2326 19.3059H16.7131V19.3057ZM26.6512 30.654L33.7318 32.7739L35.8857 25.4693H26.6512V30.654ZM22.1725 19.3057L20.82 28.1148L22.6943 23.2167L29.083 21.6237L26.6515 19.3059H22.1725V19.3057Z" fill="#E34807"/>
<path d="M3 25.4662L5.15383 17.3557H9.78545L9.80242 21.6222L16.1914 23.2152L18.0657 28.1131L17.1022 29.1918L12.2342 25.4646H3V25.4662ZM35.8857 25.4662L33.7318 17.3557H29.1L29.083 21.6222L22.6945 23.2152L20.82 28.1131L21.7833 29.1918L26.6515 25.4646H35.8857V25.4662ZM22.668 8.64355H16.2174L15.7794 13.2062L18.0659 28.1084H20.82L23.1079 13.2062L22.668 8.64355Z" fill="#FF8D5D"/>
<path d="M5.15383 2L3 10.4987L5.15383 17.3558H9.78545L15.7775 13.211L5.15383 2ZM15.3745 21.075H13.2762L12.1338 22.2006L16.1928 23.212L15.3745 21.0736V21.075ZM33.7318 2L35.8857 10.4987L33.7318 17.3558H29.1L23.1082 13.211L33.7318 2ZM23.5141 21.075H25.6155L26.7579 22.202L22.6943 23.2153L23.5141 21.0734V21.075ZM21.3048 30.9565L21.7835 29.1949L20.82 28.1162H18.0638L17.1005 29.1949L17.579 30.9565" fill="#661800"/>
<path d="M21.3046 30.9561V33.8648H17.5791V30.9561H21.3046Z" fill="#C0C4CD"/>
<path d="M12.2358 30.6509L17.5823 33.8635V30.9548L17.1036 29.1934L12.2358 30.6509ZM26.6515 30.6509L21.3048 33.8635V30.9548L21.7835 29.1934L26.6515 30.6509Z" fill="#E7EBF6"/>
<path d="M40.0001 32C38.8134 32 37.6533 32.3519 36.6666 33.0112C35.6799 33.6705 34.9109 34.6075 34.4568 35.7039C34.0027 36.8003 33.8838 38.0067 34.1153 39.1705C34.3469 40.3344 34.9183 41.4035 35.7574 42.2426C36.5965 43.0818 37.6656 43.6532 38.8295 43.8847C39.9934 44.1162 41.1998 43.9974 42.2962 43.5433C43.3925 43.0892 44.3296 42.3201 44.9889 41.3334C45.6482 40.3467 46.0001 39.1867 46.0001 38C45.9983 36.4092 45.3656 34.8841 44.2408 33.7593C43.116 32.6344 41.5908 32.0017 40.0001 32ZM40.0001 43C39.0112 43 38.0445 42.7068 37.2222 42.1573C36.4 41.6079 35.7591 40.827 35.3807 39.9134C35.0022 38.9998 34.9032 37.9945 35.0961 37.0245C35.2891 36.0546 35.7653 35.1637 36.4645 34.4645C37.1638 33.7652 38.0547 33.289 39.0246 33.0961C39.9945 32.9031 40.9998 33.0022 41.9135 33.3806C42.8271 33.759 43.608 34.3999 44.1574 35.2221C44.7068 36.0444 45.0001 37.0111 45.0001 38C44.9986 39.3256 44.4714 40.5966 43.534 41.5339C42.5966 42.4713 41.3257 42.9985 40.0001 43ZM42.5001 38C42.5001 38.1326 42.4474 38.2598 42.3536 38.3536C42.2598 38.4473 42.1327 38.5 42.0001 38.5H40.5001V40C40.5001 40.1326 40.4474 40.2598 40.3536 40.3536C40.2598 40.4473 40.1327 40.5 40.0001 40.5C39.8675 40.5 39.7403 40.4473 39.6465 40.3536C39.5527 40.2598 39.5001 40.1326 39.5001 40V38.5H38.0001C37.8675 38.5 37.7403 38.4473 37.6465 38.3536C37.5527 38.2598 37.5001 38.1326 37.5001 38C37.5001 37.8674 37.5527 37.7402 37.6465 37.6464C37.7403 37.5527 37.8675 37.5 38.0001 37.5H39.5001V36C39.5001 35.8674 39.5527 35.7402 39.6465 35.6464C39.7403 35.5527 39.8675 35.5 40.0001 35.5C40.1327 35.5 40.2598 35.5527 40.3536 35.6464C40.4474 35.7402 40.5001 35.8674 40.5001 36V37.5H42.0001C42.1327 37.5 42.2598 37.5527 42.3536 37.6464C42.4474 37.7402 42.5001 37.8674 42.5001 38Z" fill="#40FFBA"/>
</g>
<defs>
<clipPath id="clip0_422_14141">
<rect width="46" height="44" fill="white"/>
</clipPath>
</defs>
</svg>
