<svg width="10" height="10" viewBox="0 0 10 10" fill="none" xmlns="http://www.w3.org/2000/svg">
<g id="SVG_MetaMask_Icon_Color 1">
<g id="MM_Head_background__x28_Do_not_edit_x29_">
<g id="Group">
<path id="Vector" d="M8.17383 4.69238L8.51074 4.29687L8.36426 4.18945L8.59863 3.97461L8.41797 3.83789L8.65234 3.66211L8.50098 3.54492L8.74512 2.35352L8.37402 1.25M8.37402 1.25L5.99121 2.13379H4.00391L1.62109 1.25L1.25 2.35352L1.49902 3.54492L1.34277 3.66211L1.58203 3.83789L1.40137 3.97461L1.63574 4.18945L1.48926 4.29687L1.82617 4.69238L1.31348 6.27441L1.78711 7.89062L3.45215 7.43164L3.77441 7.69531L4.43359 8.14453H5.56152L6.2207 7.69531L6.54297 7.43164L8.21289 7.89062L8.69141 6.27441L8.17383 4.69238" fill="#F5841F"/>
</g>
</g>
<g id="Logos">
<g id="Group_2">
<path id="Vector_2" d="M8.37402 1.25L5.44922 3.40332L5.99121 2.13379L8.37402 1.25Z" fill="#E27625"/>
<path id="Vector_3" d="M1.62109 1.25L4.52148 3.42285L4.00391 2.13379L1.62109 1.25Z" fill="#E27625"/>
<path id="Vector_4" d="M7.32422 6.24512L6.54297 7.42676L8.21289 7.88574L8.69141 6.26953L7.32422 6.24512Z" fill="#E27625"/>
<path id="Vector_5" d="M1.3125 6.26953L1.78613 7.88574L3.45117 7.42676L2.6748 6.24512L1.3125 6.26953Z" fill="#E27625"/>
<path id="Vector_6" d="M3.36426 4.24316L2.90039 4.94141L4.55078 5.01465L4.49707 3.24707L3.36426 4.24316Z" fill="#E27625"/>
<path id="Vector_7" d="M6.63574 4.24316L5.4834 3.22754L5.44922 5.01465L7.09961 4.94141L6.63574 4.24316Z" fill="#E27625"/>
<path id="Vector_8" d="M3.45117 7.42676L4.45215 6.94824L3.58789 6.28418L3.45117 7.42676Z" fill="#E27625"/>
<path id="Vector_9" d="M5.54688 6.94824L6.54297 7.42676L6.40625 6.28418L5.54688 6.94824Z" fill="#E27625"/>
<path id="Vector_10" d="M6.54297 7.42676L5.54688 6.94824L5.62988 7.59277L5.62012 7.86621L6.54297 7.42676Z" fill="#D7C1B3"/>
<path id="Vector_11" d="M3.45117 7.42676L4.37891 7.86621L4.37402 7.59277L4.45215 6.94824L3.45117 7.42676Z" fill="#D7C1B3"/>
<path id="Vector_12" d="M4.39551 5.85449L3.57031 5.61523L4.15625 5.34668L4.39551 5.85449Z" fill="#2F343B"/>
<path id="Vector_13" d="M5.60156 5.85449L5.8457 5.34668L6.43164 5.61523L5.60156 5.85449Z" fill="#2F343B"/>
<path id="Vector_14" d="M3.45215 7.42676L3.59863 6.24512L2.67578 6.26953L3.45215 7.42676Z" fill="#CC6228"/>
<path id="Vector_15" d="M6.40234 6.24512L6.54395 7.42676L7.3252 6.26953L6.40234 6.24512Z" fill="#CC6228"/>
<path id="Vector_16" d="M7.09961 4.94141L5.44922 5.01465L5.60059 5.85449L5.84473 5.34668L6.43066 5.61523L7.09961 4.94141Z" fill="#CC6228"/>
<path id="Vector_17" d="M3.56934 5.61523L4.15527 5.34668L4.39453 5.85449L4.55078 5.01465L2.90039 4.94141L3.56934 5.61523Z" fill="#CC6228"/>
<path id="Vector_18" d="M2.90039 4.94141L3.58887 6.28418L3.56934 5.61523L2.90039 4.94141Z" fill="#E27625"/>
<path id="Vector_19" d="M6.43066 5.61523L6.40625 6.28418L7.09961 4.94141L6.43066 5.61523Z" fill="#E27625"/>
<path id="Vector_20" d="M4.55078 5.01465L4.39453 5.85449L4.58984 6.85059L4.63379 5.54199L4.55078 5.01465Z" fill="#E27625"/>
<path id="Vector_21" d="M5.4502 5.01465L5.36719 5.53711L5.40625 6.85059L5.60156 5.85449L5.4502 5.01465Z" fill="#E27625"/>
<path id="Vector_22" d="M5.60156 5.85449L5.40625 6.85059L5.54785 6.94824L6.40723 6.28418L6.43164 5.61523L5.60156 5.85449Z" fill="#F5841F"/>
<path id="Vector_23" d="M3.57031 5.61523L3.58984 6.28418L4.4541 6.94824L4.59082 6.85059L4.39551 5.85449L3.57031 5.61523Z" fill="#F5841F"/>
<path id="Vector_24" d="M5.61914 7.86621L5.62891 7.59277L5.55078 7.5293H4.44238L4.37402 7.59277L4.37891 7.86621L3.45117 7.42676L3.77344 7.69043L4.43262 8.14453H5.56055L6.21973 7.69043L6.54199 7.42676L5.61914 7.86621Z" fill="#C0AD9E"/>
<path id="Vector_25" d="M5.54688 6.94824L5.40527 6.85059H4.58984L4.45312 6.94824L4.375 7.59277L4.44336 7.5293H5.55176L5.62988 7.59277L5.54688 6.94824Z" fill="#2F343B"/>
<path id="Vector_26" d="M8.50098 3.54492L8.74512 2.35352L8.37402 1.25L5.54688 3.33008L6.63574 4.24316L8.17383 4.69238L8.51074 4.29688L8.36426 4.18945L8.59863 3.97949L8.41797 3.83789L8.65234 3.66211L8.50098 3.54492Z" fill="#763E1A"/>
<path id="Vector_27" d="M1.25 2.35352L1.49902 3.54492L1.34277 3.66211L1.57715 3.84277L1.39648 3.97949L1.63086 4.18945L1.48437 4.29688L1.82617 4.69238L3.36426 4.24316L4.45312 3.33008L1.62109 1.25L1.25 2.35352Z" fill="#763E1A"/>
<path id="Vector_28" d="M8.17383 4.69238L6.63574 4.24316L7.09961 4.94141L6.40625 6.28418L7.32422 6.26953H8.69141L8.17383 4.69238Z" fill="#F5841F"/>
<path id="Vector_29" d="M3.36328 4.24316L1.8252 4.69238L1.3125 6.26953H2.6748L3.58789 6.28418L2.89941 4.94141L3.36328 4.24316Z" fill="#F5841F"/>
<path id="Vector_30" d="M5.44922 5.01465L5.54687 3.33008L5.99121 2.13379H4.00391L4.45312 3.33008L4.55078 5.01465L4.58984 5.54199V6.85059H5.40527L5.41016 5.54199L5.44922 5.01465Z" fill="#F5841F"/>
</g>
</g>
</g>
</svg>
