<svg width="18" height="16" viewBox="0 0 18 16" fill="none" xmlns="http://www.w3.org/2000/svg">
<path d="M8.20535 12.9693H9.73394C9.8391 12.9693 9.92435 12.89 9.92435 12.7921V12.1986C9.92435 12.1659 9.91462 12.1338 9.89625 12.1059L9.78913 11.9434C9.75451 11.8909 9.69304 11.8589 9.62682 11.8589H8.29785C8.22491 11.8589 8.15839 11.8976 8.12655 11.9587L8.03405 12.1361C8.02147 12.1602 8.01494 12.1866 8.01494 12.2134V12.7921C8.01494 12.89 8.10019 12.9693 8.20535 12.9693Z" fill="white"/>
<path d="M7.36491 9.91366L6.66172 9.77786C6.49755 9.74615 6.45438 9.54676 6.59254 9.45838L7.01711 9.18676C7.10595 9.12993 7.22774 9.15301 7.28562 9.23764L7.56424 9.64506C7.65462 9.77722 7.52974 9.9455 7.36491 9.91366Z" fill="white"/>
<path d="M11.2484 9.77786L10.5452 9.91366C10.3804 9.9455 10.2555 9.77722 10.3459 9.64506L10.6245 9.23764C10.6824 9.15301 10.8042 9.12993 10.893 9.18676L11.3176 9.45838C11.4558 9.54676 11.4126 9.74615 11.2484 9.77786Z" fill="white"/>
<path fill-rule="evenodd" clip-rule="evenodd" d="M1.76238 1.07152C1.62169 1.14731 1.52237 1.27529 1.4893 1.42339L1.01195 3.56104C0.996027 3.63233 0.996018 3.7059 1.01192 3.7772L1.9669 8.05879L1.02451 10.9553C0.993073 11.0519 0.991854 11.1548 1.02099 11.2521L1.88619 14.1393C1.96969 14.4179 2.27731 14.5833 2.57841 14.5114L5.68859 13.7686L7.35044 14.8977C7.44824 14.9642 7.56619 15 7.68728 15H10.3127C10.4338 15 10.5518 14.9642 10.6496 14.8977L12.3114 13.7686L15.4216 14.5114C15.7227 14.5833 16.0303 14.4179 16.1138 14.1393L16.979 11.2521C17.0081 11.1548 17.0069 11.0519 16.9755 10.9553L16.0331 8.05879L16.9881 3.7772C17.004 3.7059 17.004 3.63233 16.9881 3.56104L16.5107 1.42339C16.4776 1.27529 16.3783 1.14731 16.2376 1.07152C16.0969 0.995736 15.9282 0.979318 15.7737 1.02638L10.8481 2.52689H7.15188L2.22629 1.02638C2.0718 0.979318 1.90307 0.995736 1.76238 1.07152ZM10.1264 13.9369H7.87363L6.40259 12.9375L6.55612 11.1517C6.56883 11.0038 6.51456 10.8577 6.40643 10.7488C6.29829 10.6398 6.14613 10.5778 5.98672 10.5778H2.34098L3.01279 8.51292L6.29583 7.6219C6.4165 7.58915 6.52219 7.52027 6.59652 7.42595L7.90924 5.76026C8.09198 5.52838 8.04342 5.20332 7.79965 5.02661L4.98272 2.98467L6.88304 3.56357C6.94041 3.58105 7.00039 3.58996 7.06076 3.58996H10.9392C10.9996 3.58996 11.0596 3.58105 11.117 3.56357L13.0173 2.98467L10.2004 5.02661C9.95658 5.20332 9.90802 5.52838 10.0908 5.76026L11.4035 7.42595C11.4778 7.52027 11.5835 7.58915 11.7042 7.6219L14.9872 8.51292L15.659 10.5778H12.0133C11.8539 10.5778 11.7017 10.6398 11.5936 10.7488C11.4854 10.8577 11.4312 11.0038 11.4439 11.1517L11.5974 12.9375L10.1264 13.9369ZM2.42121 2.47543L6.65985 5.54795L5.78988 6.65186L2.9894 7.41191L2.15462 3.66925L2.42121 2.47543ZM2.32351 11.6408H5.36798L5.27082 12.7709L2.83636 13.3523L2.32351 11.6408ZM15.5788 2.47543L11.3401 5.54795L12.2101 6.65186L15.0106 7.41191L15.8454 3.66924L15.5788 2.47543ZM15.6765 11.6408H12.632L12.7292 12.7709L15.1636 13.3523L15.6765 11.6408Z" fill="white"/>
<path d="M8.20535 12.9693H9.73394C9.8391 12.9693 9.92435 12.89 9.92435 12.7921V12.1986C9.92435 12.1659 9.91462 12.1338 9.89625 12.1059L9.78913 11.9434C9.75451 11.8909 9.69304 11.8589 9.62682 11.8589H8.29785C8.22491 11.8589 8.15839 11.8976 8.12655 11.9587L8.03405 12.1361C8.02147 12.1602 8.01494 12.1866 8.01494 12.2134V12.7921C8.01494 12.89 8.10019 12.9693 8.20535 12.9693Z" stroke="white" stroke-width="0.125"/>
<path d="M7.36491 9.91366L6.66172 9.77786C6.49755 9.74615 6.45438 9.54676 6.59254 9.45838L7.01711 9.18676C7.10595 9.12993 7.22774 9.15301 7.28562 9.23764L7.56424 9.64506C7.65462 9.77722 7.52974 9.9455 7.36491 9.91366Z" stroke="white" stroke-width="0.125"/>
<path d="M11.2484 9.77786L10.5452 9.91366C10.3804 9.9455 10.2555 9.77722 10.3459 9.64506L10.6245 9.23764C10.6824 9.15301 10.8042 9.12993 10.893 9.18676L11.3176 9.45838C11.4558 9.54676 11.4126 9.74615 11.2484 9.77786Z" stroke="white" stroke-width="0.125"/>
<path fill-rule="evenodd" clip-rule="evenodd" d="M1.76238 1.07152C1.62169 1.14731 1.52237 1.27529 1.4893 1.42339L1.01195 3.56104C0.996027 3.63233 0.996018 3.7059 1.01192 3.7772L1.9669 8.05879L1.02451 10.9553C0.993073 11.0519 0.991854 11.1548 1.02099 11.2521L1.88619 14.1393C1.96969 14.4179 2.27731 14.5833 2.57841 14.5114L5.68859 13.7686L7.35044 14.8977C7.44824 14.9642 7.56619 15 7.68728 15H10.3127C10.4338 15 10.5518 14.9642 10.6496 14.8977L12.3114 13.7686L15.4216 14.5114C15.7227 14.5833 16.0303 14.4179 16.1138 14.1393L16.979 11.2521C17.0081 11.1548 17.0069 11.0519 16.9755 10.9553L16.0331 8.05879L16.9881 3.7772C17.004 3.7059 17.004 3.63233 16.9881 3.56104L16.5107 1.42339C16.4776 1.27529 16.3783 1.14731 16.2376 1.07152C16.0969 0.995736 15.9282 0.979318 15.7737 1.02638L10.8481 2.52689H7.15188L2.22629 1.02638C2.0718 0.979318 1.90307 0.995736 1.76238 1.07152ZM10.1264 13.9369H7.87363L6.40259 12.9375L6.55612 11.1517C6.56883 11.0038 6.51456 10.8577 6.40643 10.7488C6.29829 10.6398 6.14613 10.5778 5.98672 10.5778H2.34098L3.01279 8.51292L6.29583 7.6219C6.4165 7.58915 6.52219 7.52027 6.59652 7.42595L7.90924 5.76026C8.09198 5.52838 8.04342 5.20332 7.79965 5.02661L4.98272 2.98467L6.88304 3.56357C6.94041 3.58105 7.00039 3.58996 7.06076 3.58996H10.9392C10.9996 3.58996 11.0596 3.58105 11.117 3.56357L13.0173 2.98467L10.2004 5.02661C9.95658 5.20332 9.90802 5.52838 10.0908 5.76026L11.4035 7.42595C11.4778 7.52027 11.5835 7.58915 11.7042 7.6219L14.9872 8.51292L15.659 10.5778H12.0133C11.8539 10.5778 11.7017 10.6398 11.5936 10.7488C11.4854 10.8577 11.4312 11.0038 11.4439 11.1517L11.5974 12.9375L10.1264 13.9369ZM2.42121 2.47543L6.65985 5.54795L5.78988 6.65186L2.9894 7.41191L2.15462 3.66925L2.42121 2.47543ZM2.32351 11.6408H5.36798L5.27082 12.7709L2.83636 13.3523L2.32351 11.6408ZM15.5788 2.47543L11.3401 5.54795L12.2101 6.65186L15.0106 7.41191L15.8454 3.66924L15.5788 2.47543ZM15.6765 11.6408H12.632L12.7292 12.7709L15.1636 13.3523L15.6765 11.6408Z" stroke="white" stroke-width="0.125"/>
</svg>
