<svg width="46" height="44" viewBox="0 0 46 44" fill="none" xmlns="http://www.w3.org/2000/svg">
<g clip-path="url(#clip0_422_14095)">
<path d="M43.1428 36.0001H38.1428V35.5001C38.1427 34.9458 38.3267 34.4072 38.6661 33.9689C39.0054 33.5306 39.4808 33.2176 40.0175 33.0789C40.5541 32.9403 41.1217 32.9839 41.6309 33.203C42.14 33.4221 42.562 33.8041 42.8303 34.2891C42.8622 34.3466 42.9051 34.3971 42.9565 34.438C43.0079 34.4788 43.0669 34.5092 43.13 34.5272C43.1932 34.5453 43.2592 34.5507 43.3245 34.5433C43.3898 34.5358 43.4529 34.5155 43.5103 34.4836C43.5677 34.4518 43.6183 34.4089 43.6592 34.3575C43.7 34.306 43.7303 34.2471 43.7484 34.1839C43.7665 34.1208 43.7719 34.0547 43.7644 33.9894C43.7569 33.9242 43.7367 33.8611 43.7048 33.8036C43.329 33.1248 42.7382 32.5901 42.0253 32.2836C41.3125 31.9771 40.518 31.9162 39.7667 32.1104C39.0155 32.3046 38.3501 32.743 37.8751 33.3566C37.4001 33.9702 37.1425 34.7242 37.1428 35.5001V36.2121C36.6975 36.4065 36.3185 36.7264 36.0521 37.1327C35.7857 37.5391 35.6434 38.0143 35.6428 38.5001V41.5001C35.6436 42.1629 35.9072 42.7984 36.3759 43.267C36.8446 43.7357 37.48 43.9993 38.1428 44.0001H43.1428C43.8056 43.9993 44.441 43.7357 44.9097 43.267C45.3784 42.7984 45.642 42.1629 45.6428 41.5001V38.5001C45.642 37.8373 45.3784 37.2019 44.9097 36.7332C44.441 36.2646 43.8056 36.0009 43.1428 36.0001ZM44.6428 41.5001C44.6428 41.898 44.4848 42.2795 44.2035 42.5608C43.9222 42.8421 43.5406 43.0001 43.1428 43.0001H38.1428C37.745 43.0001 37.3634 42.8421 37.0821 42.5608C36.8008 42.2795 36.6428 41.898 36.6428 41.5001V38.5001C36.6428 38.1023 36.8008 37.7208 37.0821 37.4395C37.3634 37.1582 37.745 37.0001 38.1428 37.0001H43.1428C43.5406 37.0001 43.9222 37.1582 44.2035 37.4395C44.4848 37.7208 44.6428 38.1023 44.6428 38.5001V41.5001Z" fill="#CEA2FC"/>
<path d="M40.6428 39C40.5102 39 40.383 39.0527 40.2893 39.1465C40.1955 39.2402 40.1428 39.3674 40.1428 39.5V40.5C40.1428 40.6326 40.1955 40.7598 40.2893 40.8536C40.383 40.9473 40.5102 41 40.6428 41C40.7754 41 40.9026 40.9473 40.9964 40.8536C41.0901 40.7598 41.1428 40.6326 41.1428 40.5V39.5C41.1428 39.3674 41.0901 39.2402 40.9964 39.1465C40.9026 39.0527 40.7754 39 40.6428 39Z" fill="#CEA2FC"/>
<path d="M33.7318 32.774L26.6482 30.654L21.3064 33.8636L17.5793 33.862L12.2342 30.654L5.15383 32.774L3 25.4663L5.15383 17.3558L3 10.4987L5.15383 2L16.2174 8.64362H22.668L33.7318 2L35.8857 10.4987L33.7318 17.3558L35.8857 25.4663L33.7318 32.774Z" fill="#FF5C16"/>
<path d="M5.15527 2L16.2191 8.64829L15.7792 13.211L5.15527 2ZM12.2359 25.4693L17.1038 29.1965L12.2359 30.654V25.4693ZM16.7148 19.3073L15.7792 13.214L9.79038 17.3577L9.78713 17.356V17.3591L9.80572 21.6242L12.2342 19.3076L16.7148 19.3073ZM33.7319 2L22.668 8.64829L23.1066 13.211L33.7319 2ZM26.6515 25.4693L21.7833 29.1965L26.6515 30.654V25.4693ZM29.0984 17.3588V17.3558L29.097 17.3574L23.1082 13.214L22.1726 19.3073H26.6513L29.0814 21.6237L29.0984 17.3588Z" fill="#FF5C16"/>
<path d="M12.2342 30.654L5.15383 32.7739L3 25.4693H12.2342V30.654ZM16.7131 19.3057L18.0657 28.1148L16.1912 23.2167L9.80265 21.6237L12.2326 19.3059H16.7131V19.3057ZM26.6512 30.654L33.7318 32.7739L35.8857 25.4693H26.6512V30.654ZM22.1725 19.3057L20.82 28.1148L22.6943 23.2167L29.083 21.6237L26.6515 19.3059H22.1725V19.3057Z" fill="#E34807"/>
<path d="M3 25.4662L5.15383 17.3557H9.78545L9.80242 21.6222L16.1914 23.2152L18.0657 28.1131L17.1022 29.1918L12.2342 25.4646H3V25.4662ZM35.8857 25.4662L33.7318 17.3557H29.1L29.083 21.6222L22.6945 23.2152L20.82 28.1131L21.7833 29.1918L26.6515 25.4646H35.8857V25.4662ZM22.668 8.64355H16.2174L15.7794 13.2062L18.0659 28.1084H20.82L23.1079 13.2062L22.668 8.64355Z" fill="#FF8D5D"/>
<path d="M5.15383 2L3 10.4987L5.15383 17.3558H9.78545L15.7775 13.211L5.15383 2ZM15.3745 21.075H13.2762L12.1338 22.2006L16.1928 23.212L15.3745 21.0736V21.075ZM33.7318 2L35.8857 10.4987L33.7318 17.3558H29.1L23.1082 13.211L33.7318 2ZM23.5141 21.075H25.6155L26.7579 22.202L22.6943 23.2153L23.5141 21.0734V21.075ZM21.3048 30.9565L21.7835 29.1949L20.82 28.1162H18.0638L17.1005 29.1949L17.579 30.9565" fill="#661800"/>
<path d="M21.3046 30.9561V33.8648H17.5791V30.9561H21.3046Z" fill="#C0C4CD"/>
<path d="M12.2358 30.6509L17.5823 33.8635V30.9548L17.1036 29.1934L12.2358 30.6509ZM26.6515 30.6509L21.3048 33.8635V30.9548L21.7835 29.1934L26.6515 30.6509Z" fill="#E7EBF6"/>
</g>
<defs>
<clipPath id="clip0_422_14095">
<rect width="46" height="44" fill="white"/>
</clipPath>
</defs>
</svg>
