<svg width="28" height="28" viewBox="0 0 28 28" fill="none" xmlns="http://www.w3.org/2000/svg">
<path d="M14 1.25C6.95837 1.25 1.25 6.95837 1.25 14C1.25 21.0416 6.95837 26.75 14 26.75C21.0416 26.75 26.75 21.0416 26.75 14C26.75 6.95837 21.0416 1.25 14 1.25Z" fill="url(#paint0_linear_726_20953)"/>
<path d="M14 1.25C6.95837 1.25 1.25 6.95837 1.25 14C1.25 21.0416 6.95837 26.75 14 26.75C21.0416 26.75 26.75 21.0416 26.75 14C26.75 6.95837 21.0416 1.25 14 1.25Z" stroke-width="1.5"/>
<g clip-path="url(#clip0_726_20953)">
<path d="M20.9003 20.9061L17.4658 19.8793L14.8758 21.4339L13.0687 21.4331L10.4772 19.8793L7.04428 20.9061L6 17.3665L7.04428 13.438L6 10.1166L7.04428 6L12.4085 9.218H15.536L20.9003 6L21.9446 10.1166L20.9003 13.438L21.9446 17.3665L20.9003 20.9061Z" fill="#FF5C16"/>
<path d="M7.04492 5.99976L12.4092 9.22002L12.1959 11.4301L7.04492 5.99976ZM10.4779 17.3677L12.8382 19.1731L10.4779 19.879V17.3677ZM12.6495 14.383L12.1959 11.4315L9.29225 13.4386L9.29067 13.4378V13.4393L9.29968 15.5052L10.4771 14.3831L12.6495 14.383ZM20.9002 5.99976L15.536 9.22002L15.7486 11.4301L20.9002 5.99976ZM17.4673 17.3677L15.107 19.1731L17.4673 19.879V17.3677ZM18.6537 13.4392V13.4377L18.653 13.4385L15.7494 11.4315L15.2957 14.383H17.4672L18.6455 15.505L18.6537 13.4392Z" fill="#FF5C16"/>
<path d="M10.4772 19.8789L7.04428 20.9058L6 17.3676H10.4772V19.8789ZM12.6488 14.3821L13.3046 18.649L12.3957 16.2765L9.29825 15.5049L10.4764 14.3822H12.6488V14.3821ZM17.4673 19.8789L20.9003 20.9058L21.9446 17.3676H17.4673V19.8789ZM15.2958 14.3821L14.64 18.649L15.5487 16.2765L18.6463 15.5049L17.4674 14.3822H15.2958V14.3821Z" fill="#E34807"/>
<path d="M6 17.3662L7.04428 13.4377H9.28992L9.29814 15.5043L12.3958 16.2759L13.3046 18.6483L12.8374 19.1708L10.4772 17.3655H6V17.3662ZM21.9446 17.3662L20.9003 13.4377H18.6545L18.6463 15.5043L15.5488 16.2759L14.64 18.6483L15.107 19.1708L17.4674 17.3655H21.9446V17.3662ZM15.536 9.21777H12.4085L12.1961 11.4278L13.3047 18.6461H14.64L15.7493 11.4278L15.536 9.21777Z" fill="#FF8D5D"/>
<path d="M7.04428 6L6 10.1166L7.04428 13.438H9.28992L12.1952 11.4303L7.04428 6ZM11.9998 15.2395H10.9824L10.4285 15.7847L12.3965 16.2746L11.9998 15.2388V15.2395ZM20.9003 6L21.9446 10.1166L20.9003 13.438H18.6545L15.7494 11.4303L20.9003 6ZM15.9463 15.2395H16.9651L17.519 15.7854L15.5487 16.2762L15.9463 15.2387V15.2395ZM14.875 20.0258L15.1072 19.1725L14.64 18.65H13.3037L12.8366 19.1725L13.0686 20.0258" fill="#661800"/>
<path d="M14.8752 20.0254V21.4343H13.0688V20.0254H14.8752Z" fill="#C0C4CD"/>
<path d="M10.478 19.8776L13.0703 21.4337V20.0248L12.8381 19.1716L10.478 19.8776ZM17.4674 19.8776L14.8751 21.4337V20.0248L15.1072 19.1716L17.4674 19.8776Z" fill="#E7EBF6"/>
</g>
<defs>
<linearGradient id="paint0_linear_726_20953" x1="14" y1="2" x2="14" y2="26" gradientUnits="userSpaceOnUse">
<stop stop-color="#FFF4E3"/>
<stop offset="1" stop-color="#E6CDB3"/>
</linearGradient>
<clipPath id="clip0_726_20953">
<rect width="16" height="15.5" fill="white" transform="translate(6 6)"/>
</clipPath>
</defs>
</svg>
