<svg width="46" height="44" viewBox="0 0 46 44" fill="none" xmlns="http://www.w3.org/2000/svg">
<path d="M16.8265 27.3585H20.3204C20.5608 27.3585 20.7556 27.1771 20.7556 26.9535V25.5967C20.7556 25.522 20.7334 25.4487 20.6914 25.385L20.4466 25.0135C20.3674 24.8934 20.2269 24.8203 20.0756 24.8203H17.0379C16.8712 24.8203 16.7191 24.9089 16.6464 25.0484L16.4349 25.4538C16.4062 25.5089 16.3913 25.5694 16.3913 25.6306V26.9535C16.3913 27.1771 16.5861 27.3585 16.8265 27.3585Z" fill="white"/>
<path d="M14.9055 20.3741L13.2982 20.0637C12.923 19.9912 12.8243 19.5355 13.1401 19.3334L14.1105 18.7126C14.3136 18.5827 14.5919 18.6354 14.7242 18.8289L15.3611 19.7601C15.5677 20.0622 15.2822 20.4468 14.9055 20.3741Z" fill="white"/>
<path d="M23.7821 20.0637L22.1748 20.3741C21.798 20.4468 21.5126 20.0622 21.7192 19.7601L22.356 18.8289C22.4883 18.6354 22.7667 18.5827 22.9697 18.7126L23.9402 19.3334C24.256 19.5355 24.1573 19.9912 23.7821 20.0637Z" fill="white"/>
<path fill-rule="evenodd" clip-rule="evenodd" d="M2.0997 0.163483C1.77813 0.336712 1.55111 0.629231 1.47551 0.967758L0.384423 5.85381C0.348035 6.01676 0.348015 6.18492 0.38436 6.34788L2.56718 16.1344L0.413132 22.7549C0.341283 22.9758 0.338497 23.2111 0.405096 23.4333L2.38269 30.0327C2.57355 30.6695 3.27667 31.0475 3.96491 30.8831L11.0739 29.1855L14.8724 31.7663C15.0959 31.9182 15.3656 32 15.6423 32H21.6433C21.9201 32 22.1897 31.9182 22.4133 31.7663L26.2118 29.1855L33.3207 30.8831C34.009 31.0475 34.7121 30.6695 34.903 30.0327L36.8806 23.4333C36.9472 23.2111 36.9444 22.9758 36.8725 22.7549L34.7185 16.1344L36.9013 6.34788C36.9376 6.18492 36.9376 6.01676 36.9012 5.85381L35.8102 0.967758C35.7346 0.629231 35.5075 0.336712 35.186 0.163483C34.8644 -0.0097457 34.4787 -0.0472726 34.1256 0.0603037L22.8671 3.49004H14.4186L3.16007 0.0603037C2.80694 -0.0472726 2.42128 -0.0097457 2.0997 0.163483ZM21.2174 29.5701H16.0683L12.7059 27.2856L13.0568 23.2039C13.0859 22.8659 12.9618 22.532 12.7147 22.2829C12.4675 22.0337 12.1197 21.8921 11.7553 21.8921H3.42221L4.95778 17.1724L12.4619 15.1358C12.7377 15.0609 12.9793 14.9035 13.1492 14.6879L16.1497 10.8806C16.5674 10.3506 16.4564 9.60759 15.8992 9.20368L9.46047 4.53639L13.8041 5.8596C13.9352 5.89954 14.0723 5.9199 14.2103 5.9199H23.0754C23.2134 5.9199 23.3505 5.89954 23.4816 5.8596L27.8252 4.53639L21.3865 9.20368C20.8293 9.60759 20.7183 10.3506 21.136 10.8806L24.1365 14.6879C24.3064 14.9035 24.548 15.0609 24.8238 15.1358L32.3279 17.1724L33.8635 21.8921H25.5303C25.166 21.8921 24.8182 22.0337 24.571 22.2829C24.3238 22.532 24.1998 22.8659 24.2289 23.2039L24.5798 27.2856L21.2174 29.5701ZM3.6056 3.37241L13.2939 10.3953L11.3054 12.9185L4.90432 14.6558L2.99625 6.10113L3.6056 3.37241ZM3.38228 24.3219H10.3411L10.119 26.9049L4.55451 28.2337L3.38228 24.3219ZM33.6801 3.37241L23.9917 10.3953L25.9803 12.9185L32.3813 14.6558L34.2894 6.10113L33.6801 3.37241ZM33.9034 24.3219H26.9446L27.1667 26.9049L32.7311 28.2337L33.9034 24.3219Z" fill="white"/>
<path d="M43.1429 36.0004H38.1429V35.5004C38.1428 34.9461 38.3268 34.4075 38.6662 33.9692C39.0055 33.5309 39.4809 33.2179 40.0176 33.0792C40.5542 32.9406 41.1218 32.9842 41.631 33.2033C42.1401 33.4224 42.5621 33.8044 42.8304 34.2894C42.8623 34.3469 42.9052 34.3974 42.9566 34.4383C43.008 34.4791 43.067 34.5095 43.1301 34.5275C43.1933 34.5456 43.2593 34.551 43.3246 34.5436C43.3899 34.5361 43.453 34.5158 43.5104 34.4839C43.5678 34.4521 43.6184 34.4092 43.6593 34.3578C43.7001 34.3063 43.7304 34.2474 43.7485 34.1842C43.7666 34.1211 43.772 34.055 43.7645 33.9897C43.757 33.9245 43.7368 33.8614 43.7049 33.8039C43.3291 33.1251 42.7383 32.5904 42.0254 32.2839C41.3126 31.9774 40.5181 31.9165 39.7668 32.1107C39.0156 32.3049 38.3502 32.7433 37.8752 33.3569C37.4002 33.9705 37.1426 34.7245 37.1429 35.5004V36.2124C36.6976 36.4068 36.3186 36.7267 36.0522 37.133C35.7858 37.5394 35.6435 38.0146 35.6429 38.5004V41.5004C35.6437 42.1632 35.9073 42.7987 36.376 43.2673C36.8447 43.736 37.4801 43.9996 38.1429 44.0004H43.1429C43.8057 43.9996 44.4411 43.736 44.9098 43.2673C45.3785 42.7987 45.6421 42.1632 45.6429 41.5004V38.5004C45.6421 37.8376 45.3785 37.2022 44.9098 36.7335C44.4411 36.2649 43.8057 36.0012 43.1429 36.0004ZM44.6429 41.5004C44.6429 41.8983 44.4849 42.2798 44.2036 42.5611C43.9223 42.8424 43.5407 43.0004 43.1429 43.0004H38.1429C37.7451 43.0004 37.3635 42.8424 37.0822 42.5611C36.8009 42.2798 36.6429 41.8983 36.6429 41.5004V38.5004C36.6429 38.1026 36.8009 37.7211 37.0822 37.4398C37.3635 37.1585 37.7451 37.0004 38.1429 37.0004H43.1429C43.5407 37.0004 43.9223 37.1585 44.2036 37.4398C44.4849 37.7211 44.6429 38.1026 44.6429 38.5004V41.5004Z" fill="#CEA2FC"/>
<path d="M40.6429 39.0003C40.5103 39.0003 40.3831 39.053 40.2894 39.1468C40.1956 39.2405 40.1429 39.3677 40.1429 39.5003V40.5003C40.1429 40.6329 40.1956 40.7601 40.2894 40.8539C40.3831 40.9476 40.5103 41.0003 40.6429 41.0003C40.7755 41.0003 40.9027 40.9476 40.9965 40.8539C41.0902 40.7601 41.1429 40.6329 41.1429 40.5003V39.5003C41.1429 39.3677 41.0902 39.2405 40.9965 39.1468C40.9027 39.053 40.7755 39.0003 40.6429 39.0003Z" fill="#CEA2FC"/>
</svg>
