<svg width="16" height="20" viewBox="0 0 16 20" fill="none" xmlns="http://www.w3.org/2000/svg">
<path d="M15.78 6.72L9.28 0.22C9.14 0.09 8.96 0 8.76 0H1.75C0.79 0 0 0.79 0 1.75V18.25C0 19.21 0.79 20 1.75 20H14.25C15.21 20 16 19.21 16 18.25V7.24C16 7.04 15.91 6.86 15.78 6.72ZM9.5 2.56L13.44 6.5H9.5V2.56ZM14.5 18.25C14.5 18.39 14.39 18.5 14.25 18.5H1.75C1.61 18.5 1.5 18.39 1.5 18.25V1.75C1.5 1.61 1.61 1.5 1.75 1.5H8V7.25C8 7.66 8.34 8 8.75 8H14.5V18.25Z" fill="current"/>
<path d="M15.78 6.72C15.91 6.86 16 7.04 16 7.24C16 7.05 15.93 6.86 15.78 6.72ZM9.28001 0.22C9.14001 0.07 8.95001 0 8.76001 0C8.96001 0 9.14001 0.09 9.28001 0.22Z" fill="current"/>
<path d="M11.25 12.5H4.75C4.34 12.5 4 12.16 4 11.75C4 11.34 4.34 11 4.75 11H11.25C11.66 11 12 11.34 12 11.75C12 12.16 11.66 12.5 11.25 12.5Z" fill="current"/>
<path d="M11.25 15.5H4.75C4.34 15.5 4 15.16 4 14.75C4 14.34 4.34 14 4.75 14H11.25C11.66 14 12 14.34 12 14.75C12 15.16 11.66 15.5 11.25 15.5Z" fill="current"/>
</svg>
