<svg width="20" height="21" viewBox="0 0 20 21" fill="none" xmlns="http://www.w3.org/2000/svg">
<g clip-path="url(#clip0_2545_21488)">
<path d="M5.41667 0.5C4.64312 0.5 3.90125 0.807291 3.35427 1.35427C2.80729 1.90125 2.5 2.64312 2.5 3.41667V17.5833C2.5 18.3569 2.80729 19.0987 3.35427 19.6457C3.90125 20.1927 4.64312 20.5 5.41667 20.5C6.19022 20.5 6.93208 20.1927 7.47906 19.6457C8.02604 19.0987 8.33333 18.3569 8.33333 17.5833V3.41667C8.33333 2.64312 8.02604 1.90125 7.47906 1.35427C6.93208 0.807291 6.19022 0.5 5.41667 0.5V0.5ZM6.66667 17.5833C6.66667 17.9149 6.53497 18.2328 6.30055 18.4672C6.06613 18.7016 5.74819 18.8333 5.41667 18.8333C5.08515 18.8333 4.7672 18.7016 4.53278 18.4672C4.29836 18.2328 4.16667 17.9149 4.16667 17.5833V3.41667C4.16667 3.08515 4.29836 2.7672 4.53278 2.53278C4.7672 2.29836 5.08515 2.16667 5.41667 2.16667C5.74819 2.16667 6.06613 2.29836 6.30055 2.53278C6.53497 2.7672 6.66667 3.08515 6.66667 3.41667V17.5833Z" fill="#6AD2FF"/>
<path d="M14.5834 0.5C13.8099 0.5 13.068 0.807291 12.521 1.35427C11.974 1.90125 11.6667 2.64312 11.6667 3.41667V17.5833C11.6667 18.3569 11.974 19.0987 12.521 19.6457C13.068 20.1927 13.8099 20.5 14.5834 20.5C15.357 20.5 16.0988 20.1927 16.6458 19.6457C17.1928 19.0987 17.5001 18.3569 17.5001 17.5833V3.41667C17.5001 2.64312 17.1928 1.90125 16.6458 1.35427C16.0988 0.807291 15.357 0.5 14.5834 0.5V0.5ZM15.8334 17.5833C15.8334 17.9149 15.7017 18.2328 15.4673 18.4672C15.2329 18.7016 14.9149 18.8333 14.5834 18.8333C14.2519 18.8333 13.934 18.7016 13.6995 18.4672C13.4651 18.2328 13.3334 17.9149 13.3334 17.5833V3.41667C13.3334 3.08515 13.4651 2.7672 13.6995 2.53278C13.934 2.29836 14.2519 2.16667 14.5834 2.16667C14.9149 2.16667 15.2329 2.29836 15.4673 2.53278C15.7017 2.7672 15.8334 3.08515 15.8334 3.41667V17.5833Z" fill="#6AD2FF"/>
</g>
<defs>
<clipPath id="clip0_2545_21488">
<rect width="20" height="20" fill="white" transform="translate(0 0.5)"/>
</clipPath>
</defs>
</svg>
