<svg width="17" height="21" viewBox="0 0 17 21" fill="none" xmlns="http://www.w3.org/2000/svg">
<path d="M15.0783 7.13966L7.12833 1.30633C6.50741 0.851651 5.77269 0.577826 5.00564 0.515217C4.23859 0.452607 3.46919 0.603661 2.78275 0.951628C2.0963 1.2996 1.51965 1.83088 1.11672 2.48657C0.713783 3.14226 0.500322 3.89673 0.5 4.66633V16.333C0.500137 17.1029 0.713611 17.8578 1.11673 18.5138C1.51985 19.1698 2.09684 19.7012 2.78368 20.0492C3.47052 20.3971 4.24034 20.548 5.00771 20.4849C5.77507 20.4219 6.50996 20.1475 7.13083 19.6922L15.0808 13.8588C15.6086 13.4718 16.0377 12.966 16.3335 12.3822C16.6293 11.7985 16.7835 11.1532 16.7835 10.4988C16.7835 9.84441 16.6293 9.1992 16.3335 8.61545C16.0377 8.0317 15.6086 7.52583 15.0808 7.13883L15.0783 7.13966ZM14.0917 12.5147L6.14167 18.348C5.76918 18.6202 5.32864 18.784 4.86881 18.8213C4.40898 18.8586 3.9478 18.7679 3.53631 18.5594C3.12482 18.3508 2.77907 18.0324 2.53734 17.6394C2.2956 17.2465 2.16731 16.7943 2.16667 16.333V4.66633C2.16204 4.20412 2.28791 3.74998 2.52981 3.3561C2.77172 2.96222 3.11983 2.64457 3.53417 2.43966C3.88658 2.26041 4.27629 2.16676 4.67167 2.16633C5.20158 2.16835 5.71685 2.3404 6.14167 2.65716L14.0917 8.4905C14.4079 8.72274 14.6651 9.02617 14.8423 9.37622C15.0195 9.72628 15.1119 10.1131 15.1119 10.5055C15.1119 10.8979 15.0195 11.2847 14.8423 11.6348C14.6651 11.9848 14.4079 12.2883 14.0917 12.5205V12.5147Z" fill="current"/>
</svg>
