<svg width="24" height="25" viewBox="0 0 24 25" fill="none" xmlns="http://www.w3.org/2000/svg">
<path d="M5 5.05232C5 4.08115 5 3.59557 5.20249 3.3279C5.37889 3.09471 5.64852 2.95041 5.9404 2.93298C6.27544 2.91298 6.67946 3.18233 7.48752 3.72104L18.0031 10.7314C18.6708 11.1765 19.0046 11.3991 19.1209 11.6796C19.2227 11.9249 19.2227 12.2005 19.1209 12.4458C19.0046 12.7263 18.6708 12.9488 18.0031 13.394L7.48752 20.4043C6.67946 20.943 6.27544 21.2124 5.9404 21.1924C5.64852 21.175 5.37889 21.0307 5.20249 20.7975C5 20.5298 5 20.0442 5 19.0731V5.05232Z" stroke="current" stroke-width="1.5" stroke-linecap="round" stroke-linejoin="round"/>
</svg>
