<svg width="24" height="24" viewBox="0 0 24 24" fill="none" xmlns="http://www.w3.org/2000/svg">
<path d="M17.4896 8.50148C17.1157 8.28783 16.635 8.28783 16.2077 8.50148L13.2166 10.2641L11.1869 11.3858L8.24926 13.1484C7.87537 13.362 7.39466 13.362 6.96736 13.1484L4.67062 11.7596C4.29674 11.546 4.02967 11.1187 4.02967 10.638V7.96736C4.02967 7.54006 4.24332 7.11276 4.67062 6.8457L6.96736 5.51039C7.34125 5.29674 7.82196 5.29674 8.24926 5.51039L10.546 6.89911C10.9199 7.11276 11.1869 7.54006 11.1869 8.02077V9.78338L13.2166 8.60831V6.79228C13.2166 6.36499 13.003 5.93769 12.5757 5.67062L8.30267 3.16024C7.92878 2.94659 7.44807 2.94659 7.02077 3.16024L2.64095 5.72404C2.21365 5.93769 2 6.36499 2 6.79228V11.8131C2 12.2404 2.21365 12.6677 2.64095 12.9347L6.96736 15.4451C7.34125 15.6588 7.82196 15.6588 8.24926 15.4451L11.1869 13.7359L13.2166 12.5608L16.1543 10.8516C16.5282 10.638 17.0089 10.638 17.4362 10.8516L19.7329 12.1869C20.1068 12.4006 20.3739 12.8279 20.3739 13.3086V15.9792C20.3739 16.4065 20.1602 16.8338 19.7329 17.1009L17.4896 18.4362C17.1157 18.6499 16.635 18.6499 16.2077 18.4362L13.911 17.1009C13.5371 16.8872 13.27 16.4599 13.27 15.9792V14.27L11.2404 15.4451V17.2077C11.2404 17.635 11.454 18.0623 11.8813 18.3294L16.2077 20.8398C16.5816 21.0534 17.0623 21.0534 17.4896 20.8398L21.816 18.3294C22.1899 18.1157 22.457 17.6884 22.457 17.2077V12.1335C22.457 11.7062 22.2433 11.2789 21.816 11.0119L17.4896 8.50148Z" fill="current"/>
</svg>
