<svg width="60" height="60" viewBox="0 0 60 60" fill="none" xmlns="http://www.w3.org/2000/svg">
  <path d="M54.4278 50.5186C54.4278 54.3686 51.1611 57.5 47.146 57.5C43.1309 57.5 39.8654 54.3686 39.8654 50.5186C39.8654 46.6687 43.1321 43.5373 47.146 43.5373C51.1599 43.5373 54.4278 46.6687 54.4278 50.5186ZM53.9048 11.9711L53.8056 11.8419C52.2194 9.77467 49.7917 8.59098 47.1166 8.59098C47.0725 8.59098 47.0308 8.59098 46.9867 8.59098C44.2651 8.62685 41.8141 9.8763 40.261 12.0189C39.2982 13.3484 38.9234 15.0188 39.2321 16.609L45.2805 36.6133C45.4189 37.3056 46.0546 37.8077 46.7895 37.8077C47.5245 37.8077 48.1406 37.3187 48.2912 36.6444L48.3194 36.5439L55.0096 16.8206C55.3771 15.1276 54.9741 13.3616 53.9048 11.9687V11.9711ZM36.6942 53.2076C36.6807 53.2076 36.6685 53.21 36.6538 53.21C27.8825 53.2148 19.1088 53.2064 10.3363 53.2196C8.79782 53.222 7.47129 52.8418 6.57959 51.5612C5.01053 49.3122 6.38483 46.3339 9.19467 45.8891C9.63808 45.8186 10.0962 45.8281 10.5482 45.8281C19.1394 45.8245 27.7306 45.8245 36.323 45.8281C36.6929 45.8281 37.0665 45.8556 37.4438 45.8771C38.1175 44.5847 39.0704 43.4596 40.2169 42.5413C31.3011 42.5365 22.3865 42.5162 13.4731 42.5676C12.0768 42.576 11.724 42.1766 11.7436 40.8758C11.8183 35.6723 11.7755 30.4677 11.7755 25.263C11.7767 19.9723 11.7644 14.6804 11.784 9.38967C11.7914 7.63925 13.1877 6.1985 15.1243 5.8422C16.5696 5.57676 18.4204 6.59186 19.0855 8.01348C19.7837 9.51043 19.2925 11.5335 17.8827 12.4326C17.2666 12.8271 16.4949 13.1021 15.7612 13.2026C14.5902 13.3604 13.783 13.9271 13.892 15.002C14.0011 16.0841 14.9246 16.4404 16.0944 16.4368C22.6094 16.4153 29.1233 16.4236 35.6383 16.4248C35.5293 15.35 35.5906 14.2727 35.8576 13.2289C31.4517 13.2277 27.0434 13.2385 22.6376 13.2361C22.4661 13.2361 22.2946 13.1667 21.8843 13.077C23.2268 10.6499 23.1447 8.3124 21.9259 5.90676C22.4722 5.85296 22.8201 5.78959 23.1692 5.78959C29.8949 5.786 36.6182 5.7872 43.344 5.79437C44.4892 5.43089 45.6773 5.17263 46.9341 5.1559H47.0921L47.1178 5.1547C50.9357 5.1547 54.4266 6.85012 56.793 9.93489C57.0172 10.2266 57.1715 10.5506 57.3589 10.8615C57.6406 9.50326 57.5108 8.06251 56.8763 6.7473C55.4383 3.76895 52.8979 2.50396 49.5737 2.50276C38.5351 2.50037 27.4966 2.49798 16.4557 2.50276C11.2831 2.50515 8.23561 5.46437 8.23561 10.4705C8.23193 20.7112 8.22214 30.9507 8.25276 41.1914C8.25398 42.179 8.01513 42.6943 6.9642 43.1164C2.57182 44.8812 1.1522 49.9232 3.91795 53.6488C5.5703 55.8739 7.96369 56.5208 10.678 56.5148C19.0022 56.4969 27.3264 56.5148 35.6506 56.5064C36.5288 56.5064 37.4083 56.51 38.2865 56.5136C37.5577 55.526 37.0273 54.4057 36.6917 53.2064L36.6942 53.2076Z" fill="current"/>
</svg>
