<svg width="80" height="80" viewBox="0 0 80 80" fill="none" xmlns="http://www.w3.org/2000/svg">
  <circle cx="40" cy="40" r="37" fill="#13141A" stroke="#282B34" stroke-width="6"/>
  <path d="M54.5217 46.8232C55.9754 47.3866 55.7589 48.491 55.7589 49.5118C55.7589 51.2466 55.7643 52.9822 55.7571 54.717C55.7464 57.5761 53.7192 59.7821 50.8199 59.9273C48.5877 60.0386 46.3476 59.9882 44.1101 59.9908C38.0559 59.9969 32.0016 59.9839 25.9474 59.9969C23.9736 60.0013 22.2331 59.5221 21.0315 57.8743C19.0194 55.1161 20.0526 51.3822 23.2467 50.0762C24.0101 49.764 24.1856 49.3831 24.1838 48.651C24.1615 41.0685 24.1686 33.4859 24.1704 25.9034C24.1713 22.1957 26.3874 20.0053 30.1498 20.0026C38.1779 19.9983 46.2068 20 54.2349 20.0026C56.6514 20.0026 58.4997 20.94 59.5436 23.1443C60.755 25.7026 59.4634 28.9104 56.7521 29.9303C55.9754 30.2225 55.7322 30.6042 55.7393 31.4008C55.7794 35.7703 55.7491 40.1398 55.7651 44.5093C55.7687 45.4441 55.8106 46.3571 54.5208 46.824L54.5217 46.8232ZM26.7437 36.8546C26.7437 40.7085 26.7758 44.5623 26.7214 48.4153C26.7081 49.3779 26.9628 49.6736 27.9783 49.6675C35.1477 49.6257 42.3171 49.6449 49.4865 49.6466C49.8481 49.6466 50.2846 49.5388 50.5544 49.697C51.0105 49.964 51.5868 50.3466 51.7026 50.784C51.8754 51.437 51.3427 51.897 50.6489 52.0483C50.3932 52.104 50.1233 52.0987 49.8695 52.1596C48.0551 52.6005 47.1448 54.5535 48.0221 56.1065C48.6189 57.163 49.8454 57.7274 51.0194 57.4865C52.2913 57.2248 53.1883 56.2848 53.24 55.0083C53.3005 53.5013 53.183 51.984 53.3005 50.4831C53.3896 49.3449 52.9736 48.6858 51.927 48.2797C51.2456 48.0153 50.5607 47.6458 50.5402 46.8206C50.5179 45.9162 51.3623 45.671 51.9823 45.278C52.0633 45.2267 52.1666 45.2101 52.2575 45.1736C53.0075 44.8771 53.305 44.3867 53.2943 43.5476C53.2462 39.598 53.2738 35.6477 53.2729 31.6981C53.2729 30.7724 52.8106 30.3086 51.8861 30.3069C44.5519 30.306 37.2186 30.2956 29.8844 30.3199C29.0338 30.3225 28.3622 30.0582 28.2829 29.2573C28.2045 28.4617 28.7906 28.0425 29.6412 27.9252C30.1757 27.8512 30.7359 27.6469 31.1848 27.3556C32.2092 26.6895 32.5672 25.1913 32.0586 24.0835C31.575 23.0304 30.2291 22.2791 29.1781 22.4757C27.7698 22.7391 26.7535 23.8061 26.7491 25.1017C26.7348 29.0199 26.7437 32.9373 26.7428 36.8555L26.7437 36.8546ZM45.7704 52.1344C45.3722 52.1161 44.9848 52.0831 44.5982 52.0822C38.3498 52.0788 32.1014 52.0796 25.853 52.0822C25.5252 52.0822 25.1912 52.0753 24.8696 52.1274C22.8263 52.457 21.8269 54.6622 22.9671 56.3274C23.6164 57.2761 24.581 57.5569 25.6998 57.5552C32.08 57.5456 38.4594 57.5517 44.8396 57.5482C45.1513 57.5482 45.464 57.51 45.7927 57.4891C45.3788 55.9355 45.3716 54.1506 45.7713 52.1344H45.7704ZM34.0966 27.8321C34.3941 27.8982 34.5188 27.9495 34.6435 27.9495C41.3141 27.9547 47.9856 27.9721 54.6562 27.9391C55.7153 27.9338 56.6327 27.4712 57.1484 26.4782C58.1639 24.5226 56.8046 22.4478 54.4522 22.44C47.9785 22.4191 41.5047 22.4313 35.031 22.4357C34.7771 22.4357 34.5233 22.4835 34.1269 22.5226C35.014 24.3043 35.0728 26.0347 34.0975 27.8321H34.0966Z" fill="#FFD7A7"/>
  <path d="M39.8987 37.3616C37.2996 37.3616 34.7014 37.3651 32.1023 37.3599C30.9987 37.3581 30.4402 36.9529 30.4331 36.1729C30.4259 35.3912 30.9559 34.919 32.0693 34.9051C35.0621 34.8695 38.0567 34.8868 41.0496 34.8851C43.0893 34.8834 45.1291 34.8816 47.1688 34.8886C47.5287 34.8895 47.8894 34.9312 48.2484 34.9634C48.9983 35.0312 49.3965 35.4694 49.3787 36.1712C49.3591 36.9364 48.8398 37.3364 48.0907 37.3485C46.3146 37.3772 44.5376 37.3599 42.7615 37.3607C41.8076 37.3607 40.8536 37.3607 39.8996 37.3607L39.8987 37.3616Z" fill="#FFD7A7"/>
  <path d="M40.0457 45.2476C38.6669 45.2433 37.2881 45.2468 35.9092 45.2476C34.5304 45.2476 33.1516 45.2476 31.7727 45.2476C30.9702 45.2476 30.3975 44.9476 30.4429 44.0842C30.4856 43.2798 31.029 42.9163 31.8271 42.9146C34.5518 42.9103 37.2774 42.912 40.0021 42.9129L43.548 42.9398C45.1219 42.8816 46.7003 42.8807 48.2742 42.9381C48.9921 42.9642 49.3921 43.4868 49.3716 44.1815C49.352 44.845 48.9636 45.2415 48.2368 45.2407C47.4485 45.2389 46.6611 45.2407 45.8728 45.2407C45.1175 45.2407 44.3631 45.2389 43.6077 45.2407L40.0466 45.2485L40.0457 45.2476Z" fill="#FFD7A7"/>
</svg>
  