<svg width="24" height="24" viewBox="0 0 24 24" fill="none" xmlns="http://www.w3.org/2000/svg">
    <g id="icon/logged-out">
        <path id="?"
              d="M13.2555 16.4112V19.4766C13.2555 19.8255 13.0976 20 12.7819 20H10.5639C10.2316 20 10.0654 19.8172 10.0654 19.4517V16.4361C10.0654 16.1038 10.2316 15.9377 10.5639 15.9377H12.7819C13.0976 15.9377 13.2555 16.0955 13.2555 16.4112ZM13.2305 13.1464V13.7944C13.2305 14.1433 13.0561 14.3178 12.7072 14.3178H10.7383C10.3894 14.3178 10.215 14.1433 10.215 13.7944V13.1215C10.215 12.5732 10.3063 12.1329 10.4891 11.8006C10.6719 11.4517 10.9792 11.1028 11.4112 10.7539L12.8069 9.60748C13.3385 9.19211 13.6044 8.7352 13.6044 8.23676V8.08723C13.6044 7.57217 13.4798 7.20665 13.2305 6.99065C12.9979 6.75805 12.6075 6.64174 12.0592 6.64174H11.6106C11.0955 6.64174 10.7217 6.74974 10.4891 6.96573C10.2731 7.18172 10.1651 7.55555 10.1651 8.08723V8.61059C10.1651 8.97612 9.99065 9.15888 9.64174 9.15888H7.52336C7.17445 9.15888 7 8.97612 7 8.61059V8.03738C7 6.74143 7.35722 5.74455 8.07165 5.04673C8.78609 4.34891 9.79958 4 11.1121 4H12.5826C13.8951 4 14.9086 4.34891 15.6231 5.04673C16.3375 5.74455 16.6947 6.74143 16.6947 8.03738V8.38629C16.6947 9.20042 16.3209 9.93146 15.5732 10.5794L13.8785 11.9502C13.4465 12.3489 13.2305 12.7477 13.2305 13.1464Z"
              fill="current"/>
    </g>
</svg>
