<svg width="19" height="19" viewBox="0 0 19 19" fill="none" xmlns="http://www.w3.org/2000/svg">
<path d="M15.9664 12.4057C16.6387 12.6663 16.5386 13.1771 16.5386 13.6492C16.5386 14.4515 16.5411 15.2543 16.5378 16.0566C16.5329 17.3789 15.5952 18.3992 14.2543 18.4664C13.2219 18.5179 12.1859 18.4945 11.151 18.4958C8.3509 18.4986 5.5508 18.4925 2.7507 18.4986C1.83779 18.5006 1.03282 18.279 0.477085 17.5169C-0.453536 16.2412 0.0243393 14.5143 1.50163 13.9102C1.85468 13.7659 1.93584 13.5897 1.93502 13.2511C1.92472 9.74416 1.92801 6.23725 1.92884 2.73034C1.92925 1.01549 2.95421 0.00243131 4.69433 0.00122481C8.40734 -0.000786037 12.1208 1.83005e-05 15.8338 0.00122481C16.9514 0.00122481 17.8062 0.434763 18.2891 1.45426C18.8493 2.63744 18.252 4.12104 16.998 4.59278C16.6387 4.72791 16.5263 4.90447 16.5296 5.27285C16.5481 7.29375 16.5341 9.31465 16.5415 11.3355C16.5432 11.7679 16.5625 12.1902 15.966 12.4061L15.9664 12.4057ZM3.11899 7.79525C3.11899 9.57767 3.13382 11.3601 3.10869 13.1421C3.10251 13.5873 3.22034 13.724 3.68997 13.7212C7.00585 13.7019 10.3217 13.7108 13.6376 13.7116C13.8049 13.7116 14.0067 13.6617 14.1315 13.7349C14.3425 13.8583 14.609 14.0353 14.6626 14.2376C14.7425 14.5396 14.4961 14.7524 14.1752 14.8223C14.057 14.8481 13.9322 14.8457 13.8147 14.8738C12.9756 15.0777 12.5546 15.981 12.9603 16.6993C13.2364 17.1879 13.8036 17.4489 14.3466 17.3375C14.9349 17.2165 15.3497 16.7817 15.3736 16.1913C15.4016 15.4944 15.3472 14.7926 15.4016 14.0984C15.4428 13.572 15.2504 13.2672 14.7664 13.0793C14.4512 12.9571 14.1344 12.7862 14.125 12.4045C14.1147 11.9863 14.5052 11.8728 14.7919 11.6911C14.8294 11.6673 14.8772 11.6597 14.9192 11.6428C15.2661 11.5057 15.4037 11.2788 15.3987 10.8907C15.3765 9.06409 15.3893 7.23704 15.3889 5.41039C15.3889 4.98222 15.175 4.76773 14.7474 4.76692C11.3553 4.76652 7.96366 4.7617 4.57157 4.77296C4.17815 4.77416 3.86753 4.6519 3.83086 4.28151C3.79461 3.91352 4.06568 3.71968 4.4591 3.66538C4.70628 3.6312 4.9654 3.53669 5.17303 3.40196C5.64679 3.0939 5.8124 2.40097 5.57717 1.8886C5.35347 1.40158 4.731 1.0541 4.24488 1.14499C3.59357 1.26685 3.12352 1.76031 3.12147 2.35954C3.11487 4.17171 3.11899 5.98348 3.11858 7.79566L3.11899 7.79525ZM11.9189 14.8622C11.7348 14.8537 11.5556 14.8384 11.3768 14.838C8.48685 14.8364 5.59694 14.8368 2.70703 14.838C2.55543 14.838 2.40094 14.8348 2.25223 14.8589C1.30719 15.0114 0.844967 16.0313 1.37228 16.8014C1.6726 17.2402 2.11875 17.3701 2.63617 17.3693C5.58705 17.3649 8.53752 17.3677 11.4884 17.3661C11.6326 17.3661 11.7772 17.3484 11.9292 17.3387C11.7378 16.6202 11.7345 15.7947 11.9193 14.8622H11.9189ZM6.51973 3.62235C6.65733 3.65292 6.715 3.67664 6.77268 3.67664C9.85786 3.67906 12.9434 3.6871 16.0286 3.67182C16.5184 3.66941 16.9428 3.45545 17.1813 2.99618C17.6509 2.0917 17.0223 1.13212 15.9343 1.1285C12.9402 1.11885 9.94602 1.12448 6.95188 1.12649C6.83447 1.12649 6.71706 1.14861 6.53374 1.16671C6.94406 1.99075 6.97124 2.79107 6.52015 3.62235H6.51973Z" fill="current"/>
<path d="M9.20325 8.02974C8.00115 8.02974 6.79945 8.03135 5.59735 8.02893C5.08693 8.02813 4.82863 7.84072 4.82534 7.47997C4.82204 7.11842 5.06716 6.90004 5.58211 6.89361C6.9663 6.87712 8.35131 6.88516 9.7355 6.88436C10.6789 6.88356 11.6223 6.88275 12.5657 6.88597C12.7321 6.88637 12.899 6.90568 13.065 6.92056C13.4118 6.95192 13.596 7.15462 13.5878 7.47917C13.5787 7.83308 13.3385 8.01807 12.9921 8.0237C12.1706 8.03698 11.3487 8.02893 10.5273 8.02933C10.0861 8.02933 9.64487 8.02933 9.20366 8.02933L9.20325 8.02974Z" fill="current"/>
<path d="M9.27123 11.677C8.63351 11.675 7.9958 11.6766 7.35808 11.677C6.72037 11.677 6.08265 11.677 5.44493 11.677C5.07376 11.677 4.80886 11.5383 4.82987 11.1389C4.84965 10.7669 5.10095 10.5988 5.47006 10.598C6.73025 10.596 7.99085 10.5968 9.25104 10.5972L10.8911 10.6097C11.619 10.5827 12.349 10.5823 13.0769 10.6089C13.409 10.6209 13.5939 10.8626 13.5845 11.184C13.5754 11.4908 13.3958 11.6742 13.0596 11.6738C12.695 11.673 12.3309 11.6738 11.9663 11.6738C11.6169 11.6738 11.268 11.673 10.9187 11.6738L9.27164 11.6774L9.27123 11.677Z" fill="current"/>
</svg>
