<svg width="24" height="24" viewBox="0 0 24 24" fill="none" xmlns="http://www.w3.org/2000/svg">
<path d="M15.0636 19.2705C15.0636 20.7758 13.7374 22 12.106 22C10.4746 22 9.14931 20.7758 9.14931 19.2705C9.14931 17.7651 10.4755 16.5409 12.106 16.5409C13.7365 16.5409 15.0636 17.7651 15.0636 19.2705ZM16.4741 6.22833L12.9043 13.3055L12.8895 13.357C12.8095 13.7035 12.4721 13.9544 12.0886 13.9544C11.7051 13.9544 11.3573 13.6962 11.2833 13.3407L8.05621 6.11883C7.89185 5.3016 8.09186 4.44351 8.60493 3.76112C9.43367 2.66032 10.7407 2.0188 12.193 2C12.2164 2 12.239 2 12.2617 2C13.6887 2 14.9835 2.60802 15.8297 3.6696L15.8827 3.73579C16.4532 4.45168 16.668 5.3588 16.4723 6.22752L16.4741 6.22833Z" fill="#FBAB4D"/>
</svg>
