<svg width="40" height="40" viewBox="0 0 40 40" fill="none" xmlns="http://www.w3.org/2000/svg">
<path d="M34.5217 26.8232C35.9754 27.3866 35.7589 28.491 35.7589 29.5118C35.7589 31.2466 35.7643 32.9822 35.7571 34.717C35.7464 37.5761 33.7192 39.7821 30.8199 39.9273C28.5877 40.0386 26.3476 39.9882 24.1101 39.9908C18.0559 39.9969 12.0016 39.9839 5.94741 39.9969C3.97357 40.0013 2.23311 39.5221 1.03153 37.8743C-0.98061 35.1161 0.0526251 31.3822 3.24675 30.0762C4.01009 29.764 4.18557 29.3831 4.18378 28.651C4.16152 21.0685 4.16864 13.4859 4.17042 5.90344C4.17131 2.19566 6.38742 0.00525689 10.1498 0.00264823C18.1779 -0.00169954 26.2068 3.95686e-05 34.2349 0.00264823C36.6514 0.00264823 38.4997 0.940027 39.5436 3.14435C40.755 5.70257 39.4634 8.91036 36.7521 9.93034C35.9754 10.2225 35.7322 10.6042 35.7393 11.4008C35.7794 15.7703 35.7491 20.1398 35.7651 24.5093C35.7687 25.4441 35.8106 26.3571 34.5208 26.824L34.5217 26.8232ZM6.74371 16.8546C6.74371 20.7085 6.77578 24.5623 6.72145 28.4153C6.70808 29.3779 6.96283 29.6736 7.97825 29.6675C15.1477 29.6257 22.3171 29.6449 29.4865 29.6466C29.8481 29.6466 30.2846 29.5388 30.5544 29.697C31.0105 29.964 31.5868 30.3466 31.7026 30.784C31.8754 31.437 31.3427 31.897 30.6489 32.0483C30.3932 32.104 30.1233 32.0987 29.8695 32.1596C28.0551 32.6005 27.1448 34.5535 28.0221 36.1065C28.6189 37.163 29.8454 37.7274 31.0194 37.4865C32.2913 37.2248 33.1883 36.2848 33.24 35.0083C33.3005 33.5013 33.183 31.984 33.3005 30.4831C33.3896 29.3449 32.9736 28.6858 31.927 28.2797C31.2456 28.0153 30.5607 27.6458 30.5402 26.8206C30.5179 25.9162 31.3623 25.671 31.9823 25.278C32.0633 25.2267 32.1666 25.2101 32.2575 25.1736C33.0075 24.8771 33.305 24.3867 33.2943 23.5476C33.2462 19.598 33.2738 15.6477 33.2729 11.6981C33.2729 10.7724 32.8106 10.3086 31.8861 10.3069C24.5519 10.306 17.2186 10.2956 9.88439 10.3199C9.03375 10.3225 8.36215 10.0582 8.28288 9.25731C8.20449 8.46167 8.79059 8.04254 9.64122 7.92515C10.1757 7.85124 10.7359 7.6469 11.1848 7.3556C12.2092 6.68952 12.5672 5.19128 12.0586 4.08346C11.575 3.03043 10.2291 2.27914 9.17805 2.47566C7.76982 2.73913 6.75351 3.80608 6.74906 5.10171C6.73481 9.01992 6.74371 12.9373 6.74282 16.8555L6.74371 16.8546ZM25.7704 32.1344C25.3722 32.1161 24.9848 32.0831 24.5982 32.0822C18.3498 32.0788 12.1014 32.0796 5.85299 32.0822C5.52521 32.0822 5.19119 32.0753 4.86964 32.1274C2.82633 32.457 1.82694 34.6622 2.96706 36.3274C3.6164 37.2761 4.58105 37.5569 5.69979 37.5552C12.08 37.5456 18.4594 37.5517 24.8396 37.5482C25.1513 37.5482 25.464 37.51 25.7927 37.4891C25.3788 35.9355 25.3716 34.1506 25.7713 32.1344H25.7704ZM14.0966 7.83211C14.3941 7.8982 14.5188 7.9495 14.6435 7.9495C21.3141 7.95472 27.9856 7.97211 34.6562 7.93907C35.7153 7.93385 36.6327 7.47125 37.1484 6.47822C38.1639 4.52259 36.8046 2.44783 34.4522 2.44001C27.9785 2.41914 21.5047 2.43131 15.031 2.43566C14.7771 2.43566 14.5233 2.48349 14.1269 2.52262C15.014 4.30433 15.0728 6.03474 14.0975 7.83211H14.0966Z" fill="current"/>
<path d="M19.8987 17.3616C17.2996 17.3616 14.7014 17.3651 12.1023 17.3599C10.9987 17.3581 10.4402 16.9529 10.4331 16.1729C10.4259 15.3912 10.9559 14.919 12.0693 14.9051C15.0621 14.8695 18.0567 14.8868 21.0496 14.8851C23.0893 14.8834 25.1291 14.8816 27.1688 14.8886C27.5287 14.8895 27.8894 14.9312 28.2484 14.9634C28.9983 15.0312 29.3965 15.4694 29.3787 16.1712C29.3591 16.9364 28.8398 17.3364 28.0907 17.3485C26.3146 17.3772 24.5376 17.3599 22.7615 17.3607C21.8076 17.3607 20.8536 17.3607 19.8996 17.3607L19.8987 17.3616Z" fill="current"/>
<path d="M20.0457 25.2476C18.6669 25.2433 17.2881 25.2468 15.9092 25.2476C14.5304 25.2476 13.1516 25.2476 11.7727 25.2476C10.9702 25.2476 10.3975 24.9476 10.4429 24.0842C10.4856 23.2798 11.029 22.9163 11.8271 22.9146C14.5518 22.9103 17.2774 22.912 20.0021 22.9129L23.548 22.9398C25.1219 22.8816 26.7003 22.8807 28.2742 22.9381C28.9921 22.9642 29.3921 23.4868 29.3716 24.1815C29.352 24.845 28.9636 25.2415 28.2368 25.2407C27.4485 25.2389 26.6611 25.2407 25.8728 25.2407C25.1175 25.2407 24.3631 25.2389 23.6077 25.2407L20.0466 25.2485L20.0457 25.2476Z" fill="current"/>
</svg>
