<svg width="26" height="24" viewBox="0 0 26 24" fill="none" xmlns="http://www.w3.org/2000/svg">
<path d="M3.85807 2C3.08452 2 2.34266 2.30729 1.79568 2.85427C1.2487 3.40125 0.941406 4.14312 0.941406 4.91667V19.0833C0.941406 19.8569 1.2487 20.5987 1.79568 21.1457C2.34266 21.6927 3.08452 22 3.85807 22C4.63162 22 5.37349 21.6927 5.92047 21.1457C6.46745 20.5987 6.77474 19.8569 6.77474 19.0833V4.91667C6.77474 4.14312 6.46745 3.40125 5.92047 2.85427C5.37349 2.30729 4.63162 2 3.85807 2ZM5.10807 19.0833C5.10807 19.4149 4.97638 19.7328 4.74196 19.9672C4.50754 20.2016 4.18959 20.3333 3.85807 20.3333C3.52655 20.3333 3.20861 20.2016 2.97419 19.9672C2.73977 19.7328 2.60807 19.4149 2.60807 19.0833V4.91667C2.60807 4.58515 2.73977 4.2672 2.97419 4.03278C3.20861 3.79836 3.52655 3.66667 3.85807 3.66667C4.18959 3.66667 4.50754 3.79836 4.74196 4.03278C4.97638 4.2672 5.10807 4.58515 5.10807 4.91667V19.0833Z" fill="current"/>
<path d="M23.3537 8.63973L15.4037 2.80639C14.7828 2.35171 14.0481 2.07789 13.281 2.01528C12.514 1.95267 11.7446 2.10372 11.0581 2.45169C10.3717 2.79966 9.79504 3.33094 9.39211 3.98663C8.98917 4.64232 8.77571 5.39679 8.77539 6.16639V17.8331C8.77553 18.603 8.989 19.3579 9.39212 20.0138C9.79524 20.6698 10.3722 21.2013 11.0591 21.5492C11.7459 21.8972 12.5157 22.048 13.2831 21.985C14.0505 21.922 14.7854 21.6476 15.4062 21.1922L23.3562 15.3589C23.8839 14.9719 24.3131 14.466 24.6089 13.8823C24.9047 13.2985 25.0588 12.6533 25.0588 11.9989C25.0588 11.3445 24.9047 10.6993 24.6089 10.1155C24.3131 9.53176 23.8839 9.0259 23.3562 8.63889L23.3537 8.63973ZM22.3671 14.0147L14.4171 19.8481C14.0446 20.1202 13.604 20.2841 13.1442 20.3214C12.6844 20.3587 12.2232 20.268 11.8117 20.0594C11.4002 19.8508 11.0545 19.5324 10.8127 19.1395C10.571 18.7466 10.4427 18.2944 10.4421 17.8331V6.16639C10.4374 5.70418 10.5633 5.25004 10.8052 4.85616C11.0471 4.46228 11.3952 4.14463 11.8096 3.93973C12.162 3.76047 12.5517 3.66682 12.9471 3.66639C13.477 3.66842 13.9922 3.84046 14.4171 4.15723L22.3671 9.99056C22.6833 10.2228 22.9404 10.5262 23.1177 10.8763C23.2949 11.2263 23.3873 11.6132 23.3873 12.0056C23.3873 12.3979 23.2949 12.7848 23.1177 13.1348C22.9404 13.4849 22.6833 13.7883 22.3671 14.0206V14.0147Z" fill="current"/>
</svg>
