<svg width="20" height="20" viewBox="0 0 20 20" fill="none" xmlns="http://www.w3.org/2000/svg">
<path d="M10 14C9.66 14 9.31 13.96 8.97 13.87C8.7 13.79 8.33 13.67 7.98 13.45C7.39 13.12 6.88 12.61 6.53 11.99C6.33 11.67 6.21 11.3 6.14 11.06C6.04 10.69 6 10.34 6 9.99999C6 9.65999 6.04 9.30999 6.13 8.96999C6.21 8.69999 6.33 8.32999 6.55 7.97999C6.88 7.38999 7.39 6.87999 8.01 6.52999C8.24 6.37999 8.55 6.24999 8.94 6.12999C9.67 5.93999 10.34 5.94999 11.02 6.11999C11.44 6.23999 11.74 6.36999 12.01 6.53999C12.6 6.86999 13.11 7.37999 13.46 7.99999C13.66 8.30999 13.78 8.67999 13.85 8.92999C13.96 9.30999 14 9.65999 14 9.99999C14 10.34 13.96 10.69 13.87 11.03C13.79 11.3 13.67 11.67 13.45 12.02C13.12 12.61 12.61 13.12 11.99 13.47C11.67 13.67 11.3 13.79 11.06 13.86C10.69 13.96 10.34 14 10 14ZM10 7.49999C9.79 7.49999 9.57 7.52999 9.35 7.58999C9.11 7.65999 8.93 7.73999 8.78 7.82999C8.37 8.05999 8.06 8.36999 7.85 8.74999C7.74 8.92999 7.66 9.11999 7.58 9.37999C7.53 9.56999 7.5 9.77999 7.5 9.99999C7.5 10.22 7.53 10.43 7.59 10.65C7.66 10.89 7.74 11.08 7.83 11.22C8.06 11.63 8.37 11.94 8.75 12.15C8.93 12.26 9.12 12.34 9.38 12.42C9.77 12.52 10.22 12.53 10.66 12.41C10.9 12.34 11.09 12.26 11.23 12.17C11.64 11.94 11.95 11.63 12.16 11.25C12.27 11.07 12.35 10.88 12.43 10.62C12.48 10.42 12.51 10.21 12.51 9.98999C12.51 9.76999 12.48 9.55999 12.42 9.33999C12.35 9.09999 12.27 8.90999 12.18 8.76999C11.95 8.35999 11.64 8.04999 11.26 7.83999C11.08 7.72999 10.89 7.64999 10.63 7.56999C10.43 7.52999 10.21 7.49999 10 7.49999Z" fill="current"/>
<path d="M10 14C9.66 14 9.31 13.96 8.97 13.87C8.7 13.79 8.33 13.67 7.98 13.45C7.39 13.12 6.88 12.61 6.53 11.99C6.33 11.67 6.21 11.3 6.14 11.06C6.04 10.69 6 10.34 6 9.99999C6 9.65999 6.04 9.30999 6.13 8.96999C6.21 8.69999 6.33 8.32999 6.55 7.97999C6.88 7.38999 7.39 6.87999 8.01 6.52999C8.24 6.37999 8.55 6.24999 8.94 6.12999C9.67 5.93999 10.34 5.94999 11.02 6.11999C11.44 6.23999 11.74 6.36999 12.01 6.53999C12.6 6.86999 13.11 7.37999 13.46 7.99999C13.66 8.30999 13.78 8.67999 13.85 8.92999C13.96 9.30999 14 9.65999 14 9.99999C14 10.34 13.96 10.69 13.87 11.03C13.79 11.3 13.67 11.67 13.45 12.02C13.12 12.61 12.61 13.12 11.99 13.47C11.67 13.67 11.3 13.79 11.06 13.86C10.69 13.96 10.34 14 10 14ZM10 7.49999C9.79 7.49999 9.57 7.52999 9.35 7.58999C9.11 7.65999 8.93 7.73999 8.78 7.82999C8.37 8.05999 8.06 8.36999 7.85 8.74999C7.74 8.92999 7.66 9.11999 7.58 9.37999C7.53 9.56999 7.5 9.77999 7.5 9.99999C7.5 10.22 7.53 10.43 7.59 10.65C7.66 10.89 7.74 11.08 7.83 11.22C8.06 11.63 8.37 11.94 8.75 12.15C8.93 12.26 9.12 12.34 9.38 12.42C9.77 12.52 10.22 12.53 10.66 12.41C10.9 12.34 11.09 12.26 11.23 12.17C11.64 11.94 11.95 11.63 12.16 11.25C12.27 11.07 12.35 10.88 12.43 10.62C12.48 10.42 12.51 10.21 12.51 9.98999C12.51 9.76999 12.48 9.55999 12.42 9.33999C12.35 9.09999 12.27 8.90999 12.18 8.76999C11.95 8.35999 11.64 8.04999 11.26 7.83999C11.08 7.72999 10.89 7.64999 10.63 7.56999C10.43 7.52999 10.21 7.49999 10 7.49999Z" fill="current"/>
<path d="M11.75 20H8.25001C7.56001 20 7.00001 19.44 7.00001 18.75V17.41C6.32001 17.14 5.68001 16.77 5.09001 16.3L3.93001 16.97C3.33001 17.32 2.56001 17.12 2.22001 16.52L0.470006 13.49C0.300006 13.18 0.270006 12.85 0.350006 12.54C0.440006 12.21 0.660006 11.94 0.950006 11.78L2.08001 11.13C2.03001 10.76 2.00001 10.39 2.00001 10C2.00001 9.61 2.03001 9.24 2.08001 8.88L0.930006 8.21C0.650006 8.06 0.440006 7.78 0.350006 7.46C0.260006 7.15 0.290006 6.82 0.450006 6.53L2.21001 3.48C2.38001 3.19 2.65001 2.98 2.98001 2.9C3.30001 2.82 3.64001 2.86 3.93001 3.03L5.09001 3.7C5.68001 3.23 6.32001 2.86 7.00001 2.59V1.25C7.00001 0.56 7.56001 0 8.25001 0H11.75C12.44 0 13 0.56 13 1.25V2.59C13.68 2.86 14.32 3.23 14.91 3.71L16.07 3.04C16.36 2.87 16.69 2.83 17.02 2.91C17.35 2.99 17.62 3.2 17.79 3.49L19.54 6.52C19.71 6.82 19.74 7.16 19.66 7.47C19.57 7.8 19.35 8.07 19.06 8.23L17.93 8.89C17.97 9.24 18 9.61 18 10C18 10.39 17.97 10.76 17.92 11.12L19.07 11.78C19.36 11.94 19.57 12.21 19.66 12.54C19.75 12.86 19.71 13.19 19.55 13.47L17.79 16.52C17.44 17.12 16.67 17.32 16.07 16.97L14.91 16.3C14.32 16.77 13.68 17.14 13 17.41V18.75C13 19.44 12.44 20 11.75 20ZM8.50001 18.5H11.5V16.88C11.5 16.55 11.71 16.26 12.03 16.16C12.87 15.9 13.64 15.45 14.32 14.82C14.56 14.6 14.92 14.56 15.2 14.72L16.61 15.54L18.11 12.95L16.71 12.14C16.42 11.97 16.28 11.64 16.35 11.32C16.44 10.91 16.49 10.46 16.49 9.99C16.49 9.51 16.44 9.07 16.35 8.66C16.28 8.34 16.42 8.01 16.71 7.84L18.11 7.03L16.61 4.44L15.2 5.26C14.92 5.42 14.56 5.39 14.32 5.16C13.64 4.53 12.87 4.08 12.03 3.82C11.72 3.72 11.5 3.43 11.5 3.1V1.5H8.50001V3.12C8.50001 3.45 8.29001 3.74 7.97001 3.84C7.13001 4.1 6.36001 4.55 5.68001 5.17C5.44001 5.39 5.08001 5.43 4.80001 5.27L3.38001 4.45L1.88001 7.04L3.28001 7.85C3.57001 8.01 3.71001 8.35 3.64001 8.67C3.55001 9.08 3.50001 9.52 3.50001 10C3.50001 10.48 3.55001 10.92 3.64001 11.33C3.71001 11.65 3.57001 11.98 3.28001 12.15L1.88001 12.96L3.38001 15.55L4.79001 14.73C5.08001 14.56 5.43001 14.61 5.67001 14.83C6.35001 15.46 7.13001 15.91 7.96001 16.17C8.27001 16.27 8.49001 16.56 8.49001 16.89V18.5H8.50001ZM1.69001 13.07L1.68001 13.08C1.68001 13.08 1.68001 13.08 1.69001 13.07ZM18.33 6.92C18.32 6.92 18.32 6.92 18.33 6.92V6.92ZM1.66001 6.91L1.67001 6.92L1.66001 6.91ZM10 14C9.66001 14 9.31001 13.96 8.97001 13.87C8.70001 13.79 8.33001 13.67 7.98001 13.45C7.39001 13.12 6.88001 12.61 6.53001 11.99C6.33001 11.67 6.21001 11.3 6.14001 11.06C6.04001 10.69 6.00001 10.34 6.00001 10C6.00001 9.66 6.04001 9.31 6.13001 8.97C6.21001 8.7 6.33001 8.33 6.55001 7.98C6.88001 7.39 7.39001 6.88 8.01001 6.53C8.24001 6.38 8.55 6.25 8.94001 6.13C9.67001 5.94 10.34 5.95 11.02 6.12C11.44 6.24 11.74 6.37 12.01 6.54C12.6 6.87 13.11 7.38 13.46 8C13.66 8.31 13.78 8.68 13.85 8.93C13.96 9.31 14 9.66 14 10C14 10.34 13.96 10.69 13.87 11.03C13.87 11.04 13.87 11.05 13.86 11.05C13.79 11.3 13.66 11.67 13.45 12.02C13.12 12.61 12.61 13.12 11.99 13.47C11.67 13.67 11.3 13.79 11.06 13.86C10.69 13.96 10.34 14 10 14ZM10 7.5C9.79001 7.5 9.57001 7.53 9.35001 7.59C9.11001 7.66 8.93001 7.74 8.78001 7.83C8.37001 8.06 8.06001 8.37 7.85001 8.75C7.74001 8.93 7.66001 9.12 7.58001 9.38C7.53001 9.57 7.50001 9.78 7.50001 10C7.50001 10.22 7.53001 10.43 7.59001 10.65C7.66001 10.89 7.74001 11.08 7.83001 11.22C8.06001 11.63 8.37001 11.94 8.75001 12.15C8.93001 12.26 9.12001 12.34 9.38001 12.42C9.77001 12.52 10.22 12.53 10.66 12.41C10.9 12.34 11.09 12.26 11.23 12.17C11.64 11.94 11.95 11.63 12.16 11.25C12.27 11.08 12.35 10.89 12.42 10.64C12.48 10.42 12.5 10.21 12.5 10C12.5 9.78 12.47 9.57 12.41 9.35C12.34 9.11 12.26 8.92 12.17 8.78C11.94 8.37 11.63 8.06 11.25 7.85C11.07 7.74 10.88 7.66 10.62 7.58C10.43 7.53 10.21 7.5 10 7.5Z" fill="current"/>
</svg>
