<svg width="40" height="40" viewBox="0 0 40 40" fill="currentColor" xmlns="http://www.w3.org/2000/svg">
<path d="M19.9654 0C9.46378 0 0.852109 8.1 0.0371094 18.395L10.7571 22.825C11.6654 22.2067 12.7621 21.8417 13.9438 21.8417C14.0488 21.8417 14.1521 21.8483 14.2571 21.8517L19.0254 14.9483V14.85C19.0254 10.6917 22.4054 7.31 26.5654 7.31C30.7221 7.31 34.1054 10.695 34.1054 14.855C34.1054 19.015 30.7221 22.3967 26.5654 22.3967H26.3904L19.5971 27.2483C19.5971 27.335 19.6038 27.4233 19.6038 27.5133C19.6038 30.6383 17.0788 33.1733 13.9538 33.1733C11.2288 33.1733 8.92711 31.2183 8.40211 28.6283L0.727109 25.45C3.10378 33.845 10.8104 40 19.9654 40C31.0104 40 39.9638 31.045 39.9638 20C39.9638 8.955 31.0088 0 19.9654 0ZM12.5671 30.35L10.1121 29.3333C10.5488 30.2383 11.3021 30.9983 12.3021 31.4167C14.4638 32.315 16.9571 31.29 17.8554 29.125C18.2938 28.075 18.2954 26.9267 17.8638 25.8767C17.4321 24.8267 16.6138 24.0083 15.5688 23.5717C14.5288 23.1383 13.4188 23.1567 12.4388 23.5217L14.9771 24.5717C16.5704 25.2383 17.3254 27.0717 16.6588 28.6633C15.9971 30.2583 14.1638 31.0133 12.5688 30.35H12.5671ZM31.5921 14.845C31.5921 12.075 29.3371 9.82 26.5671 9.82C23.7921 9.82 21.5421 12.075 21.5421 14.845C21.5421 17.62 23.7921 19.87 26.5671 19.87C29.3388 19.87 31.5921 17.62 31.5921 14.845ZM22.8038 14.8367C22.8038 12.75 24.4921 11.06 26.5788 11.06C28.6604 11.06 30.3554 12.75 30.3554 14.8367C30.3554 16.9217 28.6604 18.6117 26.5788 18.6117C24.4904 18.6117 22.8038 16.9217 22.8038 14.8367Z" fill="currentColor"/>
</svg>
