<svg xmlns="http://www.w3.org/2000/svg" width="80" height="81" viewBox="0 0 80 81" fill="none">
  <g clip-path="url(#steamDeckIconSVG)">
    <path d="M28.3136 0.0470581V14.4104C42.4536 14.4104 53.9603 25.9104 53.9603 40.0471C53.9603 54.1837 42.4536 65.6837 28.3136 65.6837V80.0471C50.3703 80.0471 68.3136 62.1037 68.3136 40.0471C68.3136 17.9904 50.3703 0.0470581 28.3136 0.0470581ZM64.377 12.1137V12.7604H65.4703V15.7371H66.2303V12.7604H67.3303V12.1137H64.377ZM67.8336 12.1137V15.7371H68.5236V13.4571L69.517 15.6337H69.9836L70.9503 13.4337V15.7371H71.6803V12.1104H70.9136L69.787 14.6837L68.5603 12.1104L67.8336 12.1137ZM28.3136 20.0837C25.6875 20.0837 23.0871 20.6011 20.661 21.6063C18.2348 22.6114 16.0305 24.0847 14.1739 25.942C12.3172 27.7993 10.8447 30.0041 9.8403 32.4306C8.83593 34.857 8.31944 37.4576 8.32031 40.0837C8.32031 45.3872 10.4271 50.4734 14.1772 54.2235C17.9273 57.9736 23.0135 60.0804 28.317 60.0804C33.6204 60.0804 38.7067 57.9736 42.4568 54.2235C46.2069 50.4734 48.3136 45.3872 48.3136 40.0837C48.3136 34.7794 46.2065 29.6923 42.4558 25.9416C38.7051 22.1909 33.618 20.0837 28.3136 20.0837Z" fill="current"/>
  </g>
  <defs>
    <clipPath id="steamDeckIconSVG">
      <rect width="80" height="80" fill="white" transform="translate(0 0.046875)"/>
    </clipPath>
  </defs>
</svg>