<svg width="150" height="150" viewBox="0 0 150 150" fill="none" xmlns="http://www.w3.org/2000/svg">
    <g clip-path="url(#clip0_1437_3258)">
        <path d="M74.868 0C35.4867 0 3.19297 30.375 0.136719 68.9812L40.3367 85.5938C43.743 83.275 47.8555 81.9062 52.2867 81.9062C52.6805 81.9062 53.068 81.9313 53.4617 81.9437L71.343 56.0562V55.6875C71.343 40.0938 84.018 27.4125 99.618 27.4125C115.205 27.4125 127.893 40.1063 127.893 55.7062C127.893 71.3063 115.205 83.9875 99.618 83.9875H98.9617L73.4867 102.181C73.4867 102.506 73.5117 102.837 73.5117 103.175C73.5117 114.894 64.043 124.4 52.3242 124.4C42.1055 124.4 33.4742 117.069 31.5055 107.356L2.72422 95.4375C11.6367 126.919 40.5367 150 74.868 150C116.287 150 149.862 116.419 149.862 75C149.862 33.5812 116.28 0 74.868 0ZM47.1242 113.812L37.918 110C39.5555 113.394 42.3805 116.244 46.1305 117.812C54.2367 121.181 63.5867 117.338 66.9555 109.219C68.5992 105.281 68.6055 100.975 66.9867 97.0375C65.368 93.1 62.2992 90.0312 58.3805 88.3937C54.4805 86.7687 50.318 86.8375 46.643 88.2063L56.1617 92.1438C62.1367 94.6438 64.968 101.519 62.468 107.488C59.9867 113.469 53.1117 116.3 47.1305 113.812H47.1242ZM118.468 55.6687C118.468 45.2812 110.012 36.825 99.6242 36.825C89.218 36.825 80.7805 45.2812 80.7805 55.6687C80.7805 66.075 89.218 74.5125 99.6242 74.5125C110.018 74.5125 118.468 66.075 118.468 55.6687ZM85.5117 55.6375C85.5117 47.8125 91.843 41.475 99.668 41.475C107.474 41.475 113.83 47.8125 113.83 55.6375C113.83 63.4563 107.474 69.7937 99.668 69.7937C91.8367 69.7937 85.5117 63.4563 85.5117 55.6375Z" fill="white"/>
    </g>
    <path d="M147.5 75C147.5 115.041 115.041 147.5 75 147.5C34.9594 147.5 2.5 115.041 2.5 75C2.5 34.9594 34.9594 2.5 75 2.5C115.041 2.5 147.5 34.9594 147.5 75Z" stroke="#40FFBA" stroke-width="5"/>
    <defs>
        <clipPath id="clip0_1437_3258">
            <rect width="150" height="150" fill="white"/>
        </clipPath>
    </defs>
</svg>
