<svg width="24" height="24" viewBox="0 0 24 24" fill="none" xmlns="http://www.w3.org/2000/svg">
    <g id="SteamIconId" clip-path="url(#clip0_4817_509)">
        <path id="Vector" d="M11.9785 0C5.67748 0 0.510484 4.86 0.0214844 11.037L6.45348 13.695C6.99848 13.324 7.65648 13.105 8.36548 13.105C8.42848 13.105 8.49048 13.109 8.55348 13.111L11.4145 8.969V8.91C11.4145 6.415 13.4425 4.386 15.9385 4.386C18.4325 4.386 20.4625 6.417 20.4625 8.913C20.4625 11.409 18.4325 13.438 15.9385 13.438H15.8335L11.7575 16.349C11.7575 16.401 11.7615 16.454 11.7615 16.508C11.7615 18.383 10.2465 19.904 8.37148 19.904C6.73648 19.904 5.35548 18.731 5.04048 17.177L0.435484 15.27C1.86148 20.307 6.48548 24 11.9785 24C18.6055 24 23.9775 18.627 23.9775 12C23.9775 5.373 18.6045 0 11.9785 0ZM7.53948 18.21L6.06648 17.6C6.32848 18.143 6.78048 18.599 7.38048 18.85C8.67748 19.389 10.1735 18.774 10.7125 17.475C10.9755 16.845 10.9765 16.156 10.7175 15.526C10.4585 14.896 9.96748 14.405 9.34048 14.143C8.71648 13.883 8.05048 13.894 7.46248 14.113L8.98548 14.743C9.94148 15.143 10.3945 16.243 9.99448 17.198C9.59748 18.155 8.49748 18.608 7.54048 18.21H7.53948ZM18.9545 8.907C18.9545 7.245 17.6015 5.892 15.9395 5.892C14.2745 5.892 12.9245 7.245 12.9245 8.907C12.9245 10.572 14.2745 11.922 15.9395 11.922C17.6025 11.922 18.9545 10.572 18.9545 8.907ZM13.6815 8.902C13.6815 7.65 14.6945 6.636 15.9465 6.636C17.1955 6.636 18.2125 7.65 18.2125 8.902C18.2125 10.153 17.1955 11.167 15.9465 11.167C14.6935 11.167 13.6815 10.153 13.6815 8.902Z" fill="current"/>
    </g>
    <defs>
        <clipPath id="clip0_4817_509">
            <rect width="24" height="24" fill="white"/>
        </clipPath>
    </defs>
</svg>
