<svg width="24" height="24" viewBox="0 0 24 24" fill="none" xmlns="http://www.w3.org/2000/svg">
<g clip-path="url(#clip0_3065_21585)">
<path d="M16.5 0C12.294 0 9 1.977 9 4.5V7.087C8.517 7.03 8.015 7 7.5 7C3.294 7 0 8.977 0 11.5V19.5C0 22.023 3.294 24 7.5 24C10.907 24 13.716 22.703 14.66 20.869C15.258 20.956 15.874 21 16.5 21C20.706 21 24 19.023 24 16.5V4.5C24 1.977 20.706 0 16.5 0ZM22 12.5C22 13.68 19.648 15 16.5 15C15.988 15 15.486 14.965 15 14.897V12.913C15.49 12.97 15.992 13 16.5 13C18.694 13 20.64 12.462 22 11.589V12.5ZM2 14.589C3.36 15.462 5.306 16 7.5 16C9.694 16 11.64 15.462 13 14.589V15.5C13 16.68 10.648 18 7.5 18C4.352 18 2 16.68 2 15.5V14.589ZM22 8.5C22 9.68 19.648 11 16.5 11C15.965 11 15.44 10.962 14.934 10.888C14.741 10.001 14.134 9.204 13.228 8.565C14.212 8.845 15.32 9 16.5 9C18.694 9 20.64 8.462 22 7.589V8.5ZM16.5 2C19.648 2 22 3.32 22 4.5C22 5.68 19.648 7 16.5 7C13.352 7 11 5.68 11 4.5C11 3.32 13.352 2 16.5 2ZM7.5 9C10.648 9 13 10.32 13 11.5C13 12.68 10.648 14 7.5 14C4.352 14 2 12.68 2 11.5C2 10.32 4.352 9 7.5 9ZM7.5 22C4.352 22 2 20.68 2 19.5V18.589C3.36 19.462 5.306 20 7.5 20C9.694 20 11.64 19.462 13 18.589V19.5C13 20.68 10.648 22 7.5 22ZM16.5 19C15.988 19 15.486 18.965 15 18.897V16.913C15.49 16.97 15.992 17 16.5 17C18.694 17 20.64 16.462 22 15.589V16.5C22 17.68 19.648 19 16.5 19Z" fill="current"/>
</g>
<defs>
<clipPath id="clip0_3065_21585">
<rect width="24" height="24" fill="current"/>
</clipPath>
</defs>
</svg>
