<svg width="24" height="20" viewBox="0 0 24 20" fill="none" xmlns="http://www.w3.org/2000/svg">
<path d="M20.7672 4.73954L21.1036 4.49632C21.3156 4.34299 21.5208 4.18099 21.7185 4.0108C21.5664 4.03574 21.4135 4.05741 21.2602 4.07578L20.7855 2.68776C20.9797 2.5714 21.163 2.44025 21.334 2.29597C21.0118 2.39204 20.6848 2.47287 20.3538 2.53799L19.9468 2.61805L19.6627 2.31592C18.0814 0.634662 15.4373 0.553287 13.7561 2.13421L20.7672 4.73954ZM20.7672 4.73954L20.7946 5.15375C20.8067 5.33579 20.807 5.52286 20.807 5.7401C20.807 11.8337 16.24 18.7923 7.92178 18.9955L7.54588 18.9961C5.99345 18.9984 4.46059 18.7267 3.01564 18.2007M20.7672 4.73954L3.01564 18.2007M3.01564 18.2007C4.73503 17.8995 6.36364 17.1778 7.75047 16.0878L9.40391 14.7881L7.30124 14.7482C5.91683 14.7219 4.66439 14.0165 3.91622 12.9089C4.31743 12.8877 4.71648 12.8239 5.10666 12.7179L5.05844 11.2589C3.4851 10.9413 2.26902 9.76377 1.85939 8.27577C2.28645 8.39191 2.72724 8.4577 3.17301 8.47077L5.78293 8.54734L3.61149 7.09737C2.08879 6.08059 1.43982 4.22712 1.89646 2.53573C4.48566 5.23099 8.01727 6.853 11.7803 7.04215L12.7734 7.09207L12.5486 6.12348C12.212 4.67396 12.6722 3.15459 13.7558 2.13443L3.01564 18.2007Z" stroke="current" stroke-width="1.5"/>
</svg>
