<svg width="24" height="24" viewBox="0 0 24 24" fill="none" xmlns="http://www.w3.org/2000/svg">
<g clip-path="url(#clip0_2943_17937)">
<path d="M15.7544 3.53846C16.9932 3.53846 18.3987 4.04 19.1863 4.87538C20.1655 4.68154 21.0897 4.32692 21.9203 3.83538C21.5997 4.83615 20.9154 5.67615 20.0267 6.20692C20.8966 6.10154 21.7295 5.87308 22.5013 5.53077C21.9234 6.39 21.1938 7.14615 20.3519 7.75154C20.3594 7.93462 20.364 8.11923 20.364 8.30385C20.364 13.9708 16.1829 20.4615 8.25682 20.4615C5.82453 20.4615 3.40432 19.7946 1.49937 18.5777C1.83585 18.6192 2.17912 18.6392 2.52616 18.6392C4.54502 18.6392 6.40318 17.9538 7.87961 16.8015C5.99202 16.7685 4.40017 15.5277 3.85396 13.8254C4.11575 13.8746 4.38734 13.9023 4.66497 13.9023C5.05577 13.9023 5.43827 13.8508 5.79888 13.7515C3.82755 13.36 2.34283 11.6262 2.34283 9.54846C2.34283 9.52846 2.34283 9.51077 2.34283 9.49231C2.9245 9.81385 3.58764 10.0077 4.29455 10.0308C3.138 9.25923 2.37829 7.94923 2.37829 6.46077C2.37829 5.67462 2.59028 4.93692 2.96071 4.30615C5.08519 6.89769 8.26135 8.60615 11.8434 8.78615C11.7687 8.47231 11.7302 8.14154 11.7302 7.81C11.7302 5.44077 13.3734 3.53846 15.7544 3.53846ZM22.5013 5.53077H22.505ZM15.7544 2C12.8543 2 10.6114 4.11769 10.2749 7.04C7.86905 6.54231 5.68044 5.23385 4.1082 3.31615C3.82227 2.96692 3.4013 2.76769 2.96071 2.76769C2.92148 2.76769 2.88225 2.76923 2.84302 2.77231C2.36018 2.81154 1.92563 3.08692 1.67591 3.51231C1.1546 4.40154 0.878476 5.42077 0.878476 6.46077C0.878476 7.15385 1.00069 7.83 1.23004 8.46154C0.984851 8.74 0.843773 9.10615 0.843773 9.49231V9.54846C0.843773 11.0554 1.42393 12.4531 2.3881 13.5015C2.33302 13.7646 2.34509 14.0423 2.42959 14.3062C2.76305 15.3446 3.3681 16.2385 4.15271 16.92C3.62536 17.04 3.08142 17.1008 2.52616 17.1008C2.23268 17.1008 1.94826 17.0838 1.68044 17.05C1.61933 17.0431 1.55897 17.0392 1.49862 17.0392C0.870178 17.0392 0.299072 17.4446 0.0855681 18.0662C-0.148306 18.7462 0.10971 19.5023 0.70722 19.8838C2.84377 21.2485 5.52503 22 8.25682 22C13.4164 22 16.6205 19.5715 18.3994 17.5346C20.5571 15.0646 21.8125 11.7831 21.8615 8.50385C22.5609 7.90923 23.178 7.22308 23.7008 6.45538C23.8902 6.19846 24.0026 5.87769 24.0026 5.53077C24.0026 5.00692 23.7483 4.54462 23.3598 4.26615C23.528 3.67385 23.3349 3.03231 22.8657 2.64077C22.5918 2.41308 22.2568 2.29692 21.9196 2.29692C21.6623 2.29692 21.4036 2.36462 21.1704 2.50308C20.6687 2.8 20.1323 3.03385 19.5673 3.20154C18.5292 2.45538 17.1207 2 15.7544 2Z" fill="current"/>
</g>
<defs>
<clipPath id="clip0_2943_17937">
<rect width="24" height="24" fill="white"/>
</clipPath>
</defs>
</svg>
