<svg width="80" height="80" viewBox="0 0 80 80" fill="none" xmlns="http://www.w3.org/2000/svg">
  <circle cx="39.9998" cy="40" r="38.6667" stroke="#FBAB4D" stroke-width="2.66667"/>
  <rect x="57.0662" y="58.6665" width="19.2" height="19.2" rx="9.6" fill="#13141A"/>
  <path fill-rule="evenodd" clip-rule="evenodd" d="M66.7665 72.8667C69.2518 72.8667 71.2665 70.852 71.2665 68.3667C71.2665 65.8814 69.2518 63.8667 66.7665 63.8667C64.2812 63.8667 62.2665 65.8814 62.2665 68.3667C62.2665 70.852 64.2812 72.8667 66.7665 72.8667ZM66.2665 66.3667C66.2665 66.0905 66.4903 65.8667 66.7665 65.8667C67.0426 65.8667 67.2665 66.0905 67.2665 66.3667V68.3667C67.2665 68.6428 67.0426 68.8667 66.7665 68.8667C66.4903 68.8667 66.2665 68.6428 66.2665 68.3667V66.3667ZM67.2664 70.3666C67.2664 70.6428 67.0426 70.8666 66.7664 70.8666C66.4903 70.8666 66.2664 70.6428 66.2664 70.3666C66.2664 70.0905 66.4903 69.8666 66.7664 69.8666C67.0426 69.8666 67.2664 70.0905 67.2664 70.3666Z" fill="#FBAB4D"/>
  <path fill-rule="evenodd" clip-rule="evenodd" d="M50.5448 14.3999H29.9872C27.8584 14.3999 26.1327 16.1256 26.1327 18.2544V61.9393C26.1327 64.0681 27.8584 65.7938 29.9872 65.7938H50.5448C52.6736 65.7938 54.3994 64.0681 54.3994 61.9393V18.2544C54.3994 16.1256 52.6736 14.3999 50.5448 14.3999ZM28.7024 18.2544C28.7024 17.5448 29.2776 16.9696 29.9872 16.9696H50.5448C51.2544 16.9696 51.8297 17.5448 51.8297 18.2544V61.9393C51.8297 62.6489 51.2544 63.2241 50.5448 63.2241H29.9872C29.2776 63.2241 28.7024 62.6489 28.7024 61.9393V55.5145H51.8295V54.2296H28.7024V24.678H51.8295V23.3932H28.7024V18.2544ZM40.2659 60.6539C40.9755 60.6539 41.5508 60.0787 41.5508 59.3691C41.5508 58.6595 40.9755 58.0842 40.2659 58.0842C39.5563 58.0842 38.9811 58.6595 38.9811 59.3691C38.9811 60.0787 39.5563 60.6539 40.2659 60.6539ZM33.8419 20.1814C33.8419 19.8266 34.1295 19.5389 34.4843 19.5389H43.4783C43.8331 19.5389 44.1207 19.8266 44.1207 20.1814C44.1207 20.5362 43.8331 20.8238 43.4783 20.8238H34.4843C34.1295 20.8238 33.8419 20.5362 33.8419 20.1814ZM46.0478 20.8238C46.4026 20.8238 46.6902 20.5362 46.6902 20.1814C46.6902 19.8266 46.4026 19.5389 46.0478 19.5389C45.693 19.5389 45.4054 19.8266 45.4054 20.1814C45.4054 20.5362 45.693 20.8238 46.0478 20.8238Z" fill="#FBAB4D"/>
  </svg>
  