<svg width="80" height="80" viewBox="0 0 80 80" fill="none" xmlns="http://www.w3.org/2000/svg">
  <circle cx="39.9998" cy="40" r="38.6667" stroke="#F0397B" stroke-width="2.66667"/>
  <rect x="60.7998" y="60.7998" width="19.2" height="19.2" rx="9.6" fill="#13141A"/>
  <path d="M66.0204 70.5811C65.1971 72.0033 66.2233 73.7833 67.8667 73.7833H72.933C74.5764 73.7833 75.6027 72.0033 74.7793 70.5811L72.2461 66.2056C71.4244 64.7863 69.3753 64.7863 68.5536 66.2056L66.0204 70.5811ZM70.9665 71.5166C70.9665 71.8296 70.7128 72.0833 70.3999 72.0833C70.0869 72.0833 69.8332 71.8296 69.8332 71.5166C69.8332 71.2036 70.0869 70.9499 70.3999 70.9499C70.7128 70.9499 70.9665 71.2036 70.9665 71.5166ZM70.9665 69.2499C70.9665 69.5629 70.7128 69.8166 70.3999 69.8166C70.0869 69.8166 69.8332 69.5629 69.8332 69.2499V68.1166C69.8332 67.8036 70.0869 67.5499 70.3999 67.5499C70.7128 67.5499 70.9665 67.8036 70.9665 68.1166V69.2499Z" fill="#F0397B"/>
  <path fill-rule="evenodd" clip-rule="evenodd" d="M50.5452 14.3999H29.9876C27.8588 14.3999 26.1331 16.1256 26.1331 18.2544V61.9393C26.1331 64.0681 27.8588 65.7938 29.9876 65.7938H50.5452C52.674 65.7938 54.3998 64.0681 54.3998 61.9393V18.2544C54.3998 16.1256 52.674 14.3999 50.5452 14.3999ZM28.7028 18.2544C28.7028 17.5448 29.278 16.9696 29.9876 16.9696H50.5452C51.2548 16.9696 51.8301 17.5448 51.8301 18.2544V23.3934H28.7029V24.6783H51.8301V54.2296H28.7029V55.5145H51.8301V61.9393C51.8301 62.6489 51.2548 63.2241 50.5452 63.2241H29.9876C29.278 63.2241 28.7028 62.6489 28.7028 61.9393V18.2544ZM40.2664 60.6542C40.976 60.6542 41.5512 60.079 41.5512 59.3694C41.5512 58.6598 40.976 58.0845 40.2664 58.0845C39.5568 58.0845 38.9815 58.6598 38.9815 59.3694C38.9815 60.079 39.5568 60.6542 40.2664 60.6542ZM33.8422 20.1814C33.8422 19.8266 34.1298 19.5389 34.4846 19.5389H43.4786C43.8334 19.5389 44.121 19.8266 44.121 20.1814C44.121 20.5362 43.8334 20.8238 43.4786 20.8238H34.4846C34.1298 20.8238 33.8422 20.5362 33.8422 20.1814ZM46.0485 20.8238C46.4033 20.8238 46.6909 20.5362 46.6909 20.1814C46.6909 19.8266 46.4033 19.5389 46.0485 19.5389C45.6936 19.5389 45.406 19.8266 45.406 20.1814C45.406 20.5362 45.6936 20.8238 46.0485 20.8238Z" fill="#F0397B"/>
  </svg>
  