<svg width="80" height="80" viewBox="0 0 80 80" fill="none" xmlns="http://www.w3.org/2000/svg">
  <path fill-rule="evenodd" clip-rule="evenodd" d="M50.5465 14.4004H29.9889C27.8601 14.4004 26.1344 16.1261 26.1344 18.2549V61.9398C26.1344 64.0686 27.8601 65.7943 29.9889 65.7943H50.5465C52.6753 65.7943 54.4011 64.0686 54.4011 61.9398V18.2549C54.4011 16.1261 52.6753 14.4004 50.5465 14.4004ZM28.7041 18.2549C28.7041 17.5453 29.2793 16.9701 29.9889 16.9701H50.5465C51.2561 16.9701 51.8314 17.5453 51.8314 18.2549V23.3928L28.7045 23.3928V24.6776H51.8314V54.23H28.7045V55.5148H51.8314V61.9398C51.8314 62.6494 51.2561 63.2246 50.5465 63.2246H29.9889C29.2793 63.2246 28.7041 62.6494 28.7041 61.9398V18.2549ZM40.2688 60.6536C40.9784 60.6536 41.5537 60.0784 41.5537 59.3688C41.5537 58.6592 40.9784 58.0839 40.2688 58.0839C39.5592 58.0839 38.984 58.6592 38.984 59.3688C38.984 60.0784 39.5592 60.6536 40.2688 60.6536ZM33.8446 20.1811C33.8446 19.8263 34.1323 19.5386 34.4871 19.5386H43.481C43.8358 19.5386 44.1234 19.8263 44.1234 20.1811C44.1234 20.5359 43.8358 20.8235 43.481 20.8235H34.4871C34.1323 20.8235 33.8446 20.5359 33.8446 20.1811ZM46.0518 20.8235C46.4066 20.8235 46.6942 20.5359 46.6942 20.1811C46.6942 19.8263 46.4066 19.5386 46.0518 19.5386C45.697 19.5386 45.4094 19.8263 45.4094 20.1811C45.4094 20.5359 45.697 20.8235 46.0518 20.8235Z" fill="url(#paint0_linear_1358_12761)"/>
  <circle cx="40" cy="40" r="38.6667" stroke="url(#paint1_linear_1358_12761)" stroke-width="2.66667"/>
  <rect x="55.7336" y="1.06641" width="19.2" height="19.2" rx="9.6" fill="#13141A"/>
  <g clip-path="url(#clip0_1358_12761)">
  <circle cx="64.8014" cy="11.2007" r="4.26667" fill="url(#paint2_linear_1358_12761)"/>
  </g>
  <path fill-rule="evenodd" clip-rule="evenodd" d="M64.5561 12.7605L64.5409 12.7786L62.934 11.1684L63.6219 10.35L64.9094 11.6401L66.7773 9.60107L67.4978 10.3876L64.9401 13.1797L64.5561 12.7605Z" fill="#FCFCF9"/>
  <defs>
  <linearGradient id="paint0_linear_1358_12761" x1="40.2677" y1="14.4004" x2="40.2677" y2="65.7943" gradientUnits="userSpaceOnUse">
  <stop stop-color="#3C71F3"/>
  <stop offset="1" stop-color="#B923FF"/>
  </linearGradient>
  <linearGradient id="paint1_linear_1358_12761" x1="40" y1="0" x2="40" y2="80" gradientUnits="userSpaceOnUse">
  <stop stop-color="#3C71F3"/>
  <stop offset="1" stop-color="#B923FF"/>
  </linearGradient>
  <linearGradient id="paint2_linear_1358_12761" x1="64.8014" y1="6.93408" x2="64.8014" y2="15.4674" gradientUnits="userSpaceOnUse">
  <stop stop-color="#3C71F3"/>
  <stop offset="1" stop-color="#B923FF"/>
  </linearGradient>
  <clipPath id="clip0_1358_12761">
  <rect x="58.133" y="4.26562" width="11.7333" height="11.7333" fill="white"/>
  </clipPath>
  </defs>
  </svg>
  