<svg width="80" height="80" viewBox="0 0 80 80" fill="none" xmlns="http://www.w3.org/2000/svg">
  <path fill-rule="evenodd" clip-rule="evenodd" d="M50.5447 14.4003H29.9871C27.8583 14.4003 26.1325 16.1261 26.1325 18.2549V61.9397C26.1325 64.0685 27.8583 65.7943 29.9871 65.7943H50.5447C52.6735 65.7943 54.3992 64.0685 54.3992 61.9397V18.2549C54.3992 16.1261 52.6735 14.4003 50.5447 14.4003ZM28.7022 18.2549C28.7022 17.5453 29.2775 16.97 29.9871 16.97H50.5447C51.2543 16.97 51.8295 17.5453 51.8295 18.2549V23.3938H28.7026V24.6787H51.8295V54.2299H28.7026V55.5148H51.8295V61.9397C51.8295 62.6493 51.2543 63.2246 50.5447 63.2246H29.9871C29.2775 63.2246 28.7022 62.6493 28.7022 61.9397V18.2549ZM40.2659 60.6543C40.9755 60.6543 41.5508 60.0791 41.5508 59.3695C41.5508 58.6599 40.9755 58.0846 40.2659 58.0846C39.5563 58.0846 38.9811 58.6599 38.9811 59.3695C38.9811 60.0791 39.5563 60.6543 40.2659 60.6543ZM33.8421 20.1814C33.8421 19.8266 34.1297 19.5389 34.4845 19.5389H43.4785C43.8333 19.5389 44.1209 19.8266 44.1209 20.1814C44.1209 20.5362 43.8333 20.8238 43.4785 20.8238H34.4845C34.1297 20.8238 33.8421 20.5362 33.8421 20.1814ZM46.048 20.8238C46.4028 20.8238 46.6904 20.5362 46.6904 20.1814C46.6904 19.8266 46.4028 19.5389 46.048 19.5389C45.6932 19.5389 45.4055 19.8266 45.4055 20.1814C45.4055 20.5362 45.6932 20.8238 46.048 20.8238Z" fill="#40FFBA"/>
  <circle cx="40" cy="40" r="38.6667" stroke="#40FFBA" stroke-width="2.66667"/>
  <rect x="55.7334" y="1.06689" width="19.2" height="19.2" rx="9.6" fill="#13141A"/>
  <g clip-path="url(#clip0_1358_12870)">
  <circle cx="64.8001" cy="11.2003" r="4.26667" fill="#40FFBA"/>
  </g>
  <path fill-rule="evenodd" clip-rule="evenodd" d="M64.5559 12.7604L64.5404 12.7788L62.9335 11.1685L63.6214 10.3501L64.908 11.6395L66.7762 9.6001L67.4967 10.3867L64.939 13.1787L64.5559 12.7604Z" fill="#13141A"/>
  <defs>
  <clipPath id="clip0_1358_12870">
  <rect x="58.1334" y="4.2666" width="11.7333" height="11.7333" fill="white"/>
  </clipPath>
  </defs>
  </svg>
  