<svg width="14" height="14" viewBox="0 0 14 14" fill="currentColor" xmlns="http://www.w3.org/2000/svg">
<path d="M12.8117 7.51042C12.6992 8.84031 12.1354 10.0918 11.2139 11.0572C10.2923 12.0226 9.06843 12.644 7.74519 12.8181C6.42196 12.9923 5.07895 12.7088 3.93898 12.0147C2.79901 11.3207 1.9306 10.2577 1.47782 9.00221C1.02504 7.74671 1.01512 6.37415 1.44969 5.11223C1.88427 3.85032 2.73722 2.77491 3.86703 2.06442C4.99685 1.35393 6.33562 1.05107 7.66123 1.20609C8.98685 1.3611 10.2196 1.96467 11.155 2.91667H9.33386C9.17915 2.91667 9.03078 2.97813 8.92139 3.08752C8.81199 3.19692 8.75053 3.34529 8.75053 3.5C8.75053 3.65471 8.81199 3.80308 8.92139 3.91248C9.03078 4.02188 9.17915 4.08333 9.33386 4.08333H11.7506C12.0379 4.08318 12.3133 3.969 12.5164 3.76589C12.7195 3.56277 12.8337 3.28733 12.8339 3.00008V0.583333C12.8339 0.428624 12.7724 0.280251 12.663 0.170854C12.5536 0.0614582 12.4052 0 12.2505 0V0C12.0958 0 11.9474 0.0614582 11.8381 0.170854C11.7287 0.280251 11.6672 0.428624 11.6672 0.583333V1.7955C10.4939 0.747092 9.0013 0.125116 7.43072 0.0301649C5.86014 -0.0647857 4.30346 0.372842 3.01243 1.27227C1.7214 2.17169 0.771516 3.48033 0.316411 4.98652C-0.138693 6.49271 -0.0724102 8.10838 0.504541 9.57223C1.08149 11.0361 2.13537 12.2625 3.49574 13.0532C4.85611 13.8438 6.44341 14.1525 8.00093 13.9292C9.55845 13.7059 10.9951 12.9637 12.0786 11.8228C13.162 10.6818 13.8289 9.20865 13.9714 7.64167C13.9789 7.56043 13.9694 7.47852 13.9436 7.40115C13.9177 7.32378 13.876 7.25264 13.8211 7.19228C13.7662 7.13191 13.6994 7.08364 13.6248 7.05053C13.5503 7.01743 13.4696 7.00022 13.388 7C13.2457 6.99828 13.1079 7.0496 13.0013 7.14396C12.8948 7.23831 12.8272 7.36895 12.8117 7.51042Z" />
</svg>
