<svg viewBox="0 0 23.72 23.72" fill='currentColor'>
  <path d="m16.84,12.3c-.1,1.14-.58,2.21-1.37,3.04-.79.83-1.84,1.36-2.97,1.51-1.13.15-2.29-.09-3.26-.69-.98-.59-1.72-1.51-2.11-2.58-.39-1.08-.4-2.25-.02-3.33.37-1.08,1.1-2,2.07-2.61.97-.61,2.12-.87,3.25-.74,1.14.13,2.19.65,2.99,1.47h-1.56c-.13,0-.26.05-.35.15s-.15.22-.15.35.05.26.15.35c.09.09.22.15.35.15h2.07c.25,0,.48-.1.66-.27s.27-.41.27-.66v-2.07c0-.13-.05-.26-.15-.35-.09-.09-.22-.15-.35-.15h0c-.13,0-.26.05-.35.15-.09.09-.15.22-.15.35v1.04c-1.01-.9-2.29-1.43-3.63-1.51-1.35-.08-2.68.29-3.79,1.06-1.11.77-1.92,1.89-2.31,3.18-.39,1.29-.33,2.68.16,3.93.49,1.25,1.4,2.31,2.56,2.98,1.17.68,2.53.94,3.86.75,1.34-.19,2.57-.83,3.5-1.81.93-.98,1.5-2.24,1.62-3.58,0-.07,0-.14-.02-.21s-.06-.13-.1-.18c-.05-.05-.1-.09-.17-.12-.06-.03-.13-.04-.2-.04-.12,0-.24.04-.33.12-.09.08-.15.19-.16.31Z"/>
  <path d="m11.86,23.72C5.32,23.72,0,18.4,0,11.86S5.32,0,11.86,0s11.86,5.32,11.86,11.86-5.32,11.86-11.86,11.86Zm0-21.72C6.42,2,2,6.42,2,11.86s4.42,9.86,9.86,9.86,9.86-4.42,9.86-9.86S17.29,2,11.86,2Z"/>
</svg>