<svg width="24" height="24" viewBox="0 0 24 24" fill="none" xmlns="http://www.w3.org/2000/svg">
    <path d="M7.19144 8.89228C9.8473 6.23643 14.1533 6.23643 16.8091 8.89228L17.1288 9.21191C17.2616 9.34471 17.2616 9.56 17.1288 9.6928L16.0354 10.7862C15.969 10.8526 15.8613 10.8526 15.7949 10.7862L15.3551 10.3464C13.5023 8.49356 10.4983 8.49356 8.64552 10.3464L8.17447 10.8174C8.10807 10.8838 8.00042 10.8838 7.93403 10.8174L6.84062 9.72399C6.70782 9.5912 6.70782 9.3759 6.84062 9.24311L7.19144 8.89228ZM19.0704 11.1536L20.0435 12.1267C20.1763 12.2595 20.1763 12.4748 20.0435 12.6076L15.6556 16.9956C15.5228 17.1284 15.3075 17.1284 15.1747 16.9956C15.1747 16.9956 15.1747 16.9956 15.1747 16.9956L12.0604 13.8813C12.0272 13.8481 11.9734 13.8481 11.9402 13.8813C11.9402 13.8813 11.9402 13.8813 11.9402 13.8813L8.82597 16.9956C8.69318 17.1284 8.47788 17.1284 8.34508 16.9956C8.34508 16.9956 8.34508 16.9956 8.34508 16.9956L3.95702 12.6075C3.82422 12.4747 3.82422 12.2594 3.95702 12.1266L4.93016 11.1535C5.06295 11.0207 5.27825 11.0207 5.41104 11.1535L8.52538 14.2679C8.55858 14.3011 8.6124 14.3011 8.6456 14.2679C8.6456 14.2679 8.6456 14.2679 8.6456 14.2679L11.7598 11.1535C11.8926 11.0207 12.1079 11.0207 12.2407 11.1535C12.2407 11.1535 12.2407 11.1535 12.2407 11.1535L15.355 14.2679C15.3882 14.3011 15.442 14.3011 15.4752 14.2679L18.5895 11.1536C18.7223 11.0208 18.9376 11.0208 19.0704 11.1536Z"
          fill="white"/>
</svg>
