<svg fill="currentColor" viewBox="0 0 24 24" xmlns="http://www.w3.org/2000/svg">
<path d="M11.0004 12V6C11.0004 5.45 11.4504 5 12.0004 5C12.5504 5 13.0004 5.45 13.0004 6V12C13.0004 12.55 12.5504 13 12.0004 13C11.4504 13 11.0004 12.55 11.0004 12ZM12.0004 14C11.1704 14 10.5004 14.67 10.5004 15.5C10.5004 16.33 11.1704 17 12.0004 17C12.8304 17 13.5004 16.33 13.5004 15.5C13.5004 14.67 12.8304 14 12.0004 14ZM23.5804 18.88C22.8804 20.23 21.4104 21 19.5704 21H4.44039C2.59039 21 1.13039 20.23 0.430393 18.88C-0.279607 17.52 -0.0796075 15.78 0.930393 14.32L8.97039 1.6C9.68039 0.58 10.8004 0 12.0004 0C13.2004 0 14.3204 0.58 15.0004 1.57L23.0804 14.34C24.0904 15.8 24.2804 17.53 23.5704 18.88H23.5804ZM21.4304 15.46C21.4304 15.46 21.4104 15.44 21.4104 15.42L13.3404 2.67C13.0504 2.26 12.5504 2 12.0004 2C11.4504 2 10.9504 2.26 10.6404 2.71L2.59039 15.42C1.97039 16.3 1.83039 17.26 2.19039 17.95C2.54039 18.63 3.34039 19 4.43039 19H19.5504C20.6404 19 21.4404 18.63 21.7904 17.95C22.1504 17.26 22.0104 16.3 21.4204 15.46H21.4304Z"/>
</svg>
