<svg xmlns="http://www.w3.org/2000/svg" width="20" height="20" viewBox="0 0 80 81" fill="none">
  <path id="windowsIconSVG" d="M31.0067 4.76354C27.06 4.8302 22.3667 5.8302 16.5367 8.24354L8.92667 34.7402C15.08 32.2035 19.9633 31.0269 24.05 31.0735C29.3413 31.2768 34.4358 33.1339 38.6167 36.3835L46.27 9.98354C42.07 7.13354 37.58 4.65354 31.0033 4.76354H31.0067ZM50.1733 12.8002L42.6533 39.2969C49.3733 43.8535 57.4533 47.6102 72.3433 40.9402L80 14.4902H79.86C64.3567 20.9269 56.84 17.3102 50.17 12.8002H50.1733ZM22.0567 35.9469C18.11 36.0069 13.42 36.9969 7.60667 39.3935L0 65.9769C15.5 59.5435 22.8767 63.3002 29.5933 67.8102L37.3467 41.1769C33.1467 38.3269 28.6367 35.8435 22.06 35.9435L22.0567 35.9469ZM41.3367 43.7602L41.3733 43.7869L41.3833 43.7602H41.3367ZM41.3733 43.7869L33.7267 70.1135C40.4433 74.6702 47.9133 78.2902 63.4133 71.8535L71.07 45.4535C55.6 51.8769 48.13 48.2869 41.3733 43.7869Z" fill="current"/>
</svg>