<svg width="20" height="21" viewBox="0 0 20 21" fill="none" xmlns="http://www.w3.org/2000/svg">
<g clip-path="url(#clip0_2545_21484)">
<path d="M13.3333 7.16678C13.177 7.01055 12.9651 6.92279 12.7442 6.92279C12.5232 6.92279 12.3113 7.01055 12.155 7.16678L9.99999 9.32178L7.845 7.16678C7.68783 7.01498 7.47733 6.93099 7.25883 6.93288C7.04033 6.93478 6.83132 7.02242 6.67682 7.17693C6.52231 7.33144 6.43467 7.54045 6.43277 7.75895C6.43087 7.97744 6.51487 8.18794 6.66667 8.34511L8.82166 10.5001L6.66667 12.6551C6.51487 12.8123 6.43087 13.0228 6.43277 13.2413C6.43467 13.4598 6.52231 13.6688 6.67682 13.8233C6.83132 13.9778 7.04033 14.0654 7.25883 14.0673C7.47733 14.0692 7.68783 13.9852 7.845 13.8334L9.99999 11.6784L12.155 13.8334C12.3122 13.9852 12.5227 14.0692 12.7412 14.0673C12.9597 14.0654 13.1687 13.9778 13.3232 13.8233C13.4777 13.6688 13.5653 13.4598 13.5672 13.2413C13.5691 13.0228 13.4851 12.8123 13.3333 12.6551L11.1783 10.5001L13.3333 8.34511C13.4895 8.18884 13.5773 7.97692 13.5773 7.75595C13.5773 7.53498 13.4895 7.32305 13.3333 7.16678Z" fill="#FF6976"/>
<path d="M10 0.5C8.02219 0.5 6.08879 1.08649 4.4443 2.1853C2.79981 3.28412 1.51809 4.8459 0.761209 6.67317C0.00433286 8.50043 -0.193701 10.5111 0.192152 12.4509C0.578004 14.3907 1.53041 16.1725 2.92894 17.5711C4.32746 18.9696 6.10929 19.922 8.0491 20.3079C9.98891 20.6937 11.9996 20.4957 13.8268 19.7388C15.6541 18.9819 17.2159 17.7002 18.3147 16.0557C19.4135 14.4112 20 12.4778 20 10.5C19.9971 7.84872 18.9426 5.30684 17.0679 3.4321C15.1932 1.55736 12.6513 0.502868 10 0.5V0.5ZM10 18.8333C8.35183 18.8333 6.74066 18.3446 5.37025 17.4289C3.99984 16.5132 2.93174 15.2117 2.30101 13.689C1.67028 12.1663 1.50525 10.4908 1.82679 8.87425C2.14834 7.25774 2.94201 5.77288 4.10745 4.60744C5.27289 3.44201 6.75774 2.64833 8.37425 2.32679C9.99076 2.00525 11.6663 2.17027 13.189 2.801C14.7118 3.43173 16.0132 4.49984 16.9289 5.87025C17.8446 7.24066 18.3333 8.85182 18.3333 10.5C18.3309 12.7094 17.4522 14.8276 15.8899 16.3899C14.3276 17.9522 12.2094 18.8309 10 18.8333V18.8333Z" fill="#FF6976"/>
</g>
<defs>
<clipPath id="clip0_2545_21484">
<rect width="20" height="20" fill="white" transform="translate(0 0.5)"/>
</clipPath>
</defs>
</svg>
