<svg xmlns="http://www.w3.org/2000/svg" width="32" height="32" viewBox="0 0 32 32" fill="none">
  <path fill-rule="evenodd" clip-rule="evenodd" d="M27.6095 6.27615C28.1301 5.75544 28.1301 4.91123 27.6095 4.39052C27.0888 3.86983 26.2445 3.86983 25.7239 4.39052L17.8847 12.2297L12.3402 4.55268C12.0895 4.2056 11.6874 4 11.2593 4H5.33333C4.83263 4 4.37413 4.28052 4.14619 4.72633C3.91824 5.17213 3.95928 5.70808 4.25243 6.11399L12.5339 17.5805L4.39056 25.7239C3.86987 26.2445 3.86987 27.0888 4.39056 27.6095C4.91127 28.1301 5.75548 28.1301 6.27619 27.6095L14.1153 19.7703L19.6599 27.4473C19.9105 27.7944 20.3127 28 20.7408 28H26.6667C27.1673 28 27.6259 27.7195 27.8539 27.2737C28.0817 26.8279 28.0408 26.2919 27.7476 25.886L19.4661 14.4195L27.6095 6.27615Z" fill="curerntColor"/>
</svg>