<svg xmlns="http://www.w3.org/2000/svg" width="21" height="20" viewBox="0 0 21 20" fill="none">
  <path fill-rule="evenodd" clip-rule="evenodd" d="M17.7559 3.92259C18.0813 3.59715 18.0813 3.06952 17.7559 2.74408C17.4305 2.41864 16.9028 2.41864 16.5774 2.74408L11.6779 7.64355L8.21261 2.84543C8.05593 2.6285 7.80463 2.5 7.53704 2.5H3.83333C3.52039 2.5 3.23383 2.67532 3.09137 2.95396C2.9489 3.23258 2.97455 3.56755 3.15777 3.82124L8.33367 10.9878L3.2441 16.0774C2.91867 16.4028 2.91867 16.9305 3.2441 17.2559C3.56954 17.5813 4.09717 17.5813 4.42262 17.2559L9.32208 12.3564L12.7874 17.1546C12.9441 17.3715 13.1954 17.5 13.463 17.5H17.1667C17.4796 17.5 17.7662 17.3247 17.9087 17.0461C18.0511 16.7674 18.0255 16.4324 17.8422 16.1787L12.6663 9.01217L17.7559 3.92259Z" fill="current"/>
</svg>