<svg width="24" height="24" viewBox="0 0 24 24" fill="currentColor" xmlns="http://www.w3.org/2000/svg">
    <g id="youtube (1)" clip-path="url(#clip0_3059_20879)">
        <g id="XMLID_184_">
            <path id="Vector" d="M23.498 6.1859C23.222 5.1469 22.409 4.3279 21.376 4.0499C19.505 3.5459 12 3.5459 12 3.5459C12 3.5459 4.495 3.5459 2.623 4.0499C1.591 4.3279 0.778 5.1459 0.502 6.1859C0 8.0699 0 11.9999 0 11.9999C0 11.9999 0 15.9299 0.502 17.8139C0.778 18.8529 1.591 19.6719 2.624 19.9499C4.495 20.4539 12 20.4539 12 20.4539C12 20.4539 19.505 20.4539 21.377 19.9499C22.409 19.6719 23.222 18.8539 23.499 17.8139C24 15.9299 24 11.9999 24 11.9999C24 11.9999 24 8.0699 23.498 6.1859ZM9.546 15.5689V8.4309L15.818 11.9999L9.546 15.5689Z"/>
        </g>
    </g>
    <defs>
        <clipPath id="clip0_3059_20879">
            <rect width="24" height="24" fill="current"/>
        </clipPath>
    </defs>
</svg>
