<svg width="19" height="18" viewBox="0 0 19 18" fill="none" xmlns="http://www.w3.org/2000/svg">
<path fill-rule="evenodd" clip-rule="evenodd" d="M9.33301 0.22168C4.36276 0.22168 0.333008 4.25068 0.333008 9.22168C0.333008 13.1982 2.91151 16.5717 6.48751 17.7619C6.93751 17.8452 7.10251 17.5669 7.10251 17.3292C7.10251 17.1147 7.09426 16.4059 7.09051 15.6537C4.58701 16.1982 4.05826 14.5917 4.05826 14.5917C3.64876 13.5514 3.05926 13.2747 3.05926 13.2747C2.24251 12.7159 3.12076 12.7279 3.12076 12.7279C4.02451 12.7917 4.50001 13.6557 4.50001 13.6557C5.30251 15.0312 6.60526 14.6337 7.11901 14.4034C7.20001 13.8214 7.43326 13.4247 7.69051 13.1997C5.69176 12.9724 3.59026 12.2007 3.59026 8.75218C3.59026 7.76968 3.94201 6.96643 4.51801 6.33643C4.42426 6.10918 4.11601 5.19418 4.60501 3.95443C4.60501 3.95443 5.36101 3.71293 7.08076 4.87693C7.79851 4.67743 8.56801 4.57768 9.33301 4.57393C10.098 4.57768 10.8683 4.67743 11.5875 4.87693C13.305 3.71218 14.0603 3.95443 14.0603 3.95443C14.55 5.19418 14.2418 6.10918 14.1488 6.33643C14.7255 6.96643 15.075 7.76968 15.075 8.75218C15.075 12.2089 12.9698 12.9702 10.9658 13.1929C11.2883 13.4719 11.5763 14.0202 11.5763 14.8594C11.5763 16.0639 11.5658 17.0329 11.5658 17.3292C11.5658 17.5684 11.7278 17.8497 12.1838 17.7612C15.7583 16.5694 18.3338 13.1974 18.3338 9.22243C18.333 4.25143 14.3033 0.22168 9.33301 0.22168Z" fill="white"/>
</svg>
