<svg width="157" height="32" viewBox="0 0 157 32" fill="none" xmlns="http://www.w3.org/2000/svg">
<g clip-path="url(#clip0_1051_825)">
<path fill-rule="evenodd" clip-rule="evenodd" d="M7.74213 2.88529C-2.39224 7.80548 -2.63257 23.613 7.34734 28.8508C8.51359 29.4629 8.55683 29.4478 8.20067 28.5507C7.12727 25.8472 6.2378 21.1579 6.84716 21.4154C10.8023 23.0863 15.417 23.1352 19.124 21.5455C20.1799 21.0927 19.7759 24.3624 18.2777 28.3963C17.8778 29.4729 17.8904 29.4818 18.9915 28.8963C29.0288 23.5588 28.8653 7.83647 18.7213 2.90835C17.9307 2.52431 17.8753 2.56867 18.1934 3.33189C18.73 4.61925 19.3892 7.18822 19.708 9.23494C19.9452 10.7573 19.9378 10.7814 19.3249 10.488C15.8733 8.83635 10.8853 8.83731 6.93807 10.4904C6.25111 10.7781 6.94758 6.75369 8.14068 3.54145C8.51719 2.52773 8.50841 2.51327 7.74213 2.88529ZM15.2426 12.7527C21.4579 13.6582 22.3684 17.4411 16.7207 18.893C11.3082 20.2844 4.75146 18.1129 5.95045 15.3261C6.76736 13.4273 11.2852 12.1761 15.2426 12.7527Z" fill="#FCFCF9"/>
<path d="M29.332 26.3562H32.5559V17.065H42.7296V26.3562H45.98V5.69727H42.7296V14.1898H32.5559V5.69727H29.332V26.3562ZM48.9107 31.9735H54.5391L61.7796 11.3146H58.82L54.7769 22.8953L50.7076 11.3146H47.748L53.2443 26.9419L52.3988 29.258H48.9107V31.9735ZM63.232 31.9735H66.2444V25.1582C67.3015 26.0899 68.7548 26.6224 70.3668 26.6224C75.0969 26.6224 77.0524 23.0816 77.0524 18.7954C77.0524 14.5092 75.0705 11.0483 70.4196 11.0483C68.7548 11.0483 67.275 11.5542 66.2444 12.5392V11.3146H63.232V31.9735ZM66.2444 23.3745V14.2696H73.8549V23.3745H66.2444ZM85.4989 26.6756C89.4627 26.6756 91.656 24.5192 92.4224 21.5375H89.6741V23.5608H81.3238V19.7805H92.713C92.7395 19.4876 92.7659 19.1681 92.7659 18.8487C92.7659 14.5625 90.599 11.0217 85.4989 11.0217C80.4253 11.0217 78.2584 14.5625 78.2584 18.8487C78.2584 23.1349 80.4253 26.6756 85.4989 26.6756ZM81.3238 17.4377V14.1632H89.6741V17.4377H81.3238ZM94.6352 11.3146V26.3562H97.6477V14.03H102.51V11.3146H94.6352ZM105.173 26.3562H108.344V18.2896H113.523C118.729 18.2896 120.79 15.6008 120.79 12.1399C120.79 8.67896 118.888 5.69727 113.999 5.69727H105.173V26.3562ZM108.344 15.441V8.67896H117.329V15.441H108.344ZM122.58 26.3562H125.593V5.69727H122.58V26.3562ZM132.882 26.5691C134.229 26.5958 136.475 26.2763 137.427 25.238V26.3562H140.413V11.3146H128.204V14.03H137.427V17.5708C136.317 16.7189 134.546 16.5059 132.855 16.5059C129.711 16.5059 127.464 18.0234 127.464 21.5375C127.517 24.7322 129.658 26.5691 132.882 26.5691ZM130.265 23.7738V19.2746H137.427V23.7738H130.265ZM143.223 31.9735H148.851L156.092 11.3146H153.132L149.089 22.8953L145.02 11.3146H142.06L147.557 26.9419L146.711 29.258H143.223V31.9735Z" fill="#FCFCF9"/>
</g>
<defs>
<clipPath id="clip0_1051_825">
<rect width="156.279" height="32" fill="white"/>
</clipPath>
</defs>
</svg>
