<svg
    width="5"
    height="10"
    viewBox="0 0 5 10"
    fill="none"
    xmlns="http://www.w3.org/2000/svg"
>
    <path
        d="M4.26654 3.58667L1.20654 0.526671C1.08163 0.402504 0.912659 0.332809 0.736535 0.332809C0.560411 0.332809 0.391443 0.402504 0.266535 0.526671C0.204049 0.588646 0.154453 0.66238 0.120607 0.74362C0.0867616 0.82486 0.0693359 0.911997 0.0693359 1C0.0693359 1.08801 0.0867616 1.17515 0.120607 1.25639C0.154453 1.33763 0.204049 1.41136 0.266535 1.47334L3.3332 4.52667C3.39569 4.58865 3.44528 4.66238 3.47913 4.74362C3.51298 4.82486 3.5304 4.912 3.5304 5.00001C3.5304 5.08801 3.51298 5.17515 3.47913 5.25639C3.44528 5.33763 3.39569 5.41136 3.3332 5.47334L0.266535 8.52667C0.140999 8.65133 0.0701225 8.82074 0.0694974 8.99765C0.0688723 9.17456 0.13855 9.34447 0.263202 9.47001C0.387854 9.59554 0.557269 9.66642 0.734178 9.66704C0.911087 9.66767 1.081 9.59799 1.20654 9.47334L4.26654 6.41334C4.64107 6.03834 4.85144 5.53001 4.85144 5.00001C4.85144 4.47 4.64107 3.96167 4.26654 3.58667Z"
        fill="#FCFCF9"
    />
</svg>