<svg width="24" height="24" viewBox="0 0 24 24" fill="none" xmlns="http://www.w3.org/2000/svg">
  <path d="M18.0002 5.99982C17.8127 5.81235 17.5584 5.70703 17.2932 5.70703C17.0281 5.70703 16.7738 5.81235 16.5862 5.99982L12.0002 10.5858L7.41425 5.99982C7.22672 5.81235 6.97241 5.70703 6.70724 5.70703C6.44208 5.70703 6.18777 5.81235 6.00025 5.99982C5.81277 6.18735 5.70746 6.44165 5.70746 6.70682C5.70746 6.97198 5.81277 7.22629 6.00025 7.41382L10.5862 11.9998L6.00025 16.5858C5.81277 16.7733 5.70746 17.0277 5.70746 17.2928C5.70746 17.558 5.81277 17.8123 6.00025 17.9998C6.18777 18.1873 6.44208 18.2926 6.70724 18.2926C6.97241 18.2926 7.22672 18.1873 7.41425 17.9998L12.0002 13.4138L16.5862 17.9998C16.7738 18.1873 17.0281 18.2926 17.2932 18.2926C17.5584 18.2926 17.8127 18.1873 18.0002 17.9998C18.1877 17.8123 18.293 17.558 18.293 17.2928C18.293 17.0277 18.1877 16.7733 18.0002 16.5858L13.4142 11.9998L18.0002 7.41382C18.1877 7.22629 18.293 6.97198 18.293 6.70682C18.293 6.44165 18.1877 6.18735 18.0002 5.99982Z" fill="#8D93A6"/>
  </svg>
  