<svg width="39" height="36" viewBox="0 0 39 36" fill="none" xmlns="http://www.w3.org/2000/svg">
<path fill-rule="evenodd" clip-rule="evenodd" d="M11.3023 0.301792C-3.4923 6.95509 -3.84313 28.3309 10.726 35.4137C12.4285 36.2414 12.4916 36.2209 11.9716 35.0079C10.4047 31.352 9.10615 25.0109 9.99577 25.3591C15.7697 27.6185 22.5064 27.6847 27.918 25.535C29.4594 24.9228 28.8697 29.3443 26.6825 34.7991C26.0987 36.2549 26.1171 36.2669 27.7245 35.4751C42.3774 28.2575 42.1388 6.99704 27.3301 0.332983C26.1759 -0.186336 26.0951 -0.126353 26.5595 0.905708C27.3429 2.64654 28.3051 6.1204 28.7706 8.88814C29.1168 10.9467 29.106 10.9793 28.2112 10.5826C23.1725 8.3491 15.8908 8.35043 10.1285 10.5858C9.12565 10.9748 10.1423 5.53283 11.8841 1.18909C12.4337 -0.181714 12.4209 -0.201264 11.3023 0.301792ZM22.2518 13.6449C31.325 14.8695 32.6543 19.9849 24.4095 21.9482C16.5081 23.8297 6.93637 20.8933 8.6867 17.1248C9.87927 14.5572 16.4746 12.8652 22.2518 13.6449Z" fill="white"/>
</svg>
