<svg width="20" height="19" viewBox="0 0 20 19" fill="none" xmlns="http://www.w3.org/2000/svg">
<circle cx="9.5" cy="9.5" r="4.5" fill="white"/>
<mask id="path-2-inside-1_198_2756" fill="white">
<path d="M10 19C12.6522 19 15.1957 17.9991 17.0711 16.2175C18.9464 14.4359 20 12.0196 20 9.5C20 6.98044 18.9464 4.56408 17.0711 2.78249C15.1957 1.00089 12.6522 4.90576e-07 10 0L10 3.59266C11.6492 3.59266 13.2308 4.21504 14.397 5.32288C15.5631 6.43072 16.2183 7.93328 16.2183 9.5C16.2183 11.0667 15.5631 12.5693 14.397 13.6771C13.2308 14.785 11.6492 15.4073 10 15.4073L10 19Z"/>
</mask>
<path d="M10 19C12.6522 19 15.1957 17.9991 17.0711 16.2175C18.9464 14.4359 20 12.0196 20 9.5C20 6.98044 18.9464 4.56408 17.0711 2.78249C15.1957 1.00089 12.6522 4.90576e-07 10 0L10 3.59266C11.6492 3.59266 13.2308 4.21504 14.397 5.32288C15.5631 6.43072 16.2183 7.93328 16.2183 9.5C16.2183 11.0667 15.5631 12.5693 14.397 13.6771C13.2308 14.785 11.6492 15.4073 10 15.4073L10 19Z" stroke="white" stroke-width="36" mask="url(#path-2-inside-1_198_2756)"/>
</svg>
