<svg width="80" height="80" viewBox="0 0 80 80" fill="none" xmlns="http://www.w3.org/2000/svg">
  <circle cx="39.9998" cy="40" r="38.6667" stroke="#C285FF" stroke-width="2.66667"/>
  <rect x="60.7997" y="60.7998" width="19.2" height="19.2" rx="9.6" fill="#13141A"/>
  <path fill-rule="evenodd" clip-rule="evenodd" d="M70.4999 75C72.9852 75 74.9999 72.9853 74.9999 70.5C74.9999 68.0147 72.9852 66 70.4999 66C68.0147 66 65.9999 68.0147 65.9999 70.5C65.9999 72.9853 68.0147 75 70.4999 75ZM69.9999 68.5C69.9999 68.2239 70.2238 68 70.4999 68C70.7761 68 70.9999 68.2239 70.9999 68.5V70.5C70.9999 70.7761 70.7761 71 70.4999 71C70.2238 71 69.9999 70.7761 69.9999 70.5V68.5ZM70.9999 72.5C70.9999 72.7761 70.7761 73 70.4999 73C70.2238 73 69.9999 72.7761 69.9999 72.5C69.9999 72.2239 70.2238 72 70.4999 72C70.7761 72 70.9999 72.2239 70.9999 72.5Z" fill="#C285FF"/>
  <path fill-rule="evenodd" clip-rule="evenodd" d="M50.5452 14.4001H29.9876C27.8588 14.4001 26.1331 16.1258 26.1331 18.2546V61.9395C26.1331 64.0683 27.8588 65.794 29.9876 65.794H50.5452C52.674 65.794 54.3998 64.0683 54.3998 61.9395V18.2546C54.3998 16.1258 52.674 14.4001 50.5452 14.4001ZM28.7028 18.2546C28.7028 17.545 29.278 16.9698 29.9876 16.9698H50.5452C51.2548 16.9698 51.8301 17.545 51.8301 18.2546V23.3936H28.7029V24.6785H51.8301V54.2298H28.7029V55.5147H51.8301V61.9395C51.8301 62.6491 51.2548 63.2243 50.5452 63.2243H29.9876C29.278 63.2243 28.7028 62.6491 28.7028 61.9395V18.2546ZM40.2664 60.6544C40.976 60.6544 41.5513 60.0792 41.5513 59.3696C41.5513 58.66 40.976 58.0847 40.2664 58.0847C39.5568 58.0847 38.9816 58.66 38.9816 59.3696C38.9816 60.0792 39.5568 60.6544 40.2664 60.6544ZM33.8422 20.1816C33.8422 19.8268 34.1299 19.5391 34.4847 19.5391H43.4786C43.8334 19.5391 44.121 19.8268 44.121 20.1816C44.121 20.5364 43.8334 20.824 43.4786 20.824H34.4847C34.1299 20.824 33.8422 20.5364 33.8422 20.1816ZM46.0485 20.824C46.4033 20.824 46.6909 20.5364 46.6909 20.1816C46.6909 19.8268 46.4033 19.5391 46.0485 19.5391C45.6937 19.5391 45.406 19.8268 45.406 20.1816C45.406 20.5364 45.6937 20.824 46.0485 20.824Z" fill="#C285FF"/>
  </svg>
  