<svg width="20" height="20" viewBox="0 0 20 20" fill="none" xmlns="http://www.w3.org/2000/svg">
<path fill-rule="evenodd" clip-rule="evenodd" d="M18.8 0.240952L10.8 1.84095C10.33 1.93095 10 2.34095 10 2.82095V8.00095C10 8.55095 10.45 9.00095 11 9.00095H19C19.55 9.00095 20 8.55095 20 8.00095V1.22095C20 0.590953 19.42 0.120952 18.8 0.240952ZM18.8 19.76L10.8 18.16C10.33 18.07 10 17.66 10 17.18V12C10 11.45 10.45 11 11 11H19C19.55 11 20 11.45 20 12V18.78C20 19.41 19.42 19.88 18.8 19.76ZM6.79 2.55995L0.79 3.82995C0.33 3.92995 0 4.33995 0 4.80995V7.99995C0 8.54995 0.45 8.99995 1 8.99995H7C7.55 8.99995 8 8.54995 8 7.99995V3.52995C8 2.89995 7.41 2.41995 6.79 2.55995ZM6.79 17.44L0.79 16.17C0.33 16.07 0 15.66 0 15.19V12C0 11.45 0.45 11 1 11H7C7.55 11 8 11.45 8 12V16.47C8 17.1 7.41 17.58 6.79 17.44Z" fill="#F4F5F6"/>
</svg>
