<svg width="20" height="14" viewBox="0 0 20 14" fill="none" xmlns="http://www.w3.org/2000/svg">
<path d="M14.7602 13.9979C14.7602 13.9979 14.1438 13.2813 13.6301 12.648C14.8713 12.3636 15.9691 11.6612 16.7294 10.665C16.1133 11.0641 15.4527 11.3939 14.7602 11.6481C13.9637 11.979 13.1305 12.2195 12.2774 12.3647C10.8109 12.6275 9.30686 12.6219 7.84246 12.3481C6.98275 12.1844 6.14021 11.9445 5.32534 11.6316C4.89579 11.4708 4.4781 11.2815 4.07522 11.065C4.02395 11.0316 3.97255 11.015 3.92118 10.9816C3.89542 10.9691 3.87222 10.9522 3.85269 10.9317C3.54449 10.765 3.37324 10.6484 3.37324 10.6484C4.10604 11.6237 5.16598 12.3192 6.36981 12.6147C5.85618 13.248 5.22258 13.9978 5.22258 13.9978C4.20543 14.0245 3.19714 13.8074 2.28645 13.3657C1.37575 12.9241 0.590571 12.2713 0 11.4649C0.0555931 8.08664 0.898698 4.76472 2.46573 1.74973C3.84474 0.695701 5.52599 0.0843201 7.27734 0L7.44858 0.200036C5.80085 0.596778 4.26323 1.34211 2.94518 2.38298C2.94518 2.38298 3.32187 2.18306 3.95536 1.89975C5.18623 1.35296 6.49807 0.998656 7.84246 0.849913C7.93831 0.830551 8.03573 0.819384 8.13358 0.816539C9.28106 0.671071 10.4423 0.659904 11.5925 0.783278C13.4013 0.984314 15.1521 1.52775 16.7465 2.38298C15.4952 1.39178 14.042 0.670437 12.4828 0.266687L12.7225 0.000113562C14.4739 0.084367 16.1552 0.695755 17.5342 1.74984C19.1013 4.76477 19.9444 8.08666 20 11.4649C19.4046 12.2705 18.6161 12.9224 17.7029 13.3638C16.7897 13.8052 15.7795 14.0229 14.7602 13.9978V13.9979ZM6.79789 6.21574C6.33304 6.21576 5.88723 6.39548 5.55854 6.71537C5.22985 7.03526 5.04519 7.46912 5.0452 7.92151C5.04521 8.37389 5.22988 8.80775 5.55858 9.12763C5.88728 9.44751 6.3331 9.62722 6.79795 9.62722C7.2628 9.62722 7.70861 9.44751 8.03731 9.12763C8.36602 8.80775 8.55068 8.37389 8.55069 7.92151C8.5507 7.46912 8.36605 7.03526 8.03736 6.71537C7.70866 6.39548 7.26286 6.21576 6.79801 6.21574H6.79789ZM13.048 6.21574C12.6652 6.18418 12.2816 6.26582 11.9473 6.44998C11.613 6.63413 11.3436 6.91222 11.1744 7.24784C11.0052 7.58346 10.9441 7.96097 10.9991 8.33096C11.054 8.70094 11.2225 9.04616 11.4824 9.32143C11.7423 9.5967 12.0815 9.78918 12.4557 9.87369C12.8299 9.9582 13.2216 9.93079 13.5795 9.79505C13.9374 9.65932 14.2449 9.42158 14.4617 9.11296C14.6784 8.80433 14.7944 8.43921 14.7944 8.06538C14.8046 7.83231 14.7676 7.59956 14.6853 7.38044C14.6031 7.16131 14.4773 6.96011 14.3151 6.78833C14.1529 6.61656 13.9575 6.47757 13.7401 6.37932C13.5226 6.28107 13.2875 6.22549 13.048 6.21574" fill="white"/>
</svg>
