<svg width="19" height="15" viewBox="0 0 19 15" fill="none" xmlns="http://www.w3.org/2000/svg">
<path d="M18.3333 1.78805C17.6443 2.08697 16.9156 2.28458 16.17 2.37472C16.9567 1.90476 17.5462 1.16543 17.8292 0.293884C17.0899 0.733941 16.2807 1.04399 15.4367 1.21055C14.8725 0.598741 14.1212 0.191489 13.3007 0.0526641C12.4801 -0.0861604 11.6367 0.0512955 10.9026 0.443474C10.1686 0.835652 9.58552 1.46037 9.2448 2.21965C8.90409 2.97893 8.82502 3.82982 9.02 4.63888C7.52531 4.56328 6.06324 4.17409 4.72877 3.49659C3.3943 2.81909 2.21728 1.86844 1.27417 0.706383C0.943376 1.28404 0.769559 1.93822 0.77 2.60388C0.768827 3.22207 0.920532 3.83095 1.21161 4.37632C1.50269 4.92169 1.9241 5.38662 2.43833 5.72972C1.84065 5.71345 1.25573 5.55307 0.733333 5.26222V5.30805C0.737813 6.1742 1.04133 7.01222 1.59254 7.68035C2.14375 8.34849 2.90882 8.80572 3.75833 8.97472C3.43132 9.07424 3.0918 9.12671 2.75 9.13055C2.5134 9.12779 2.27739 9.10633 2.04417 9.06638C2.28608 9.81146 2.75424 10.4626 3.38349 10.9292C4.01273 11.3958 4.77178 11.6546 5.555 11.6697C4.23244 12.7104 2.59956 13.2783 0.916667 13.2831C0.610257 13.2841 0.304091 13.2657 0 13.2281C1.71823 14.3375 3.72058 14.9264 5.76583 14.9239C7.17722 14.9385 8.57737 14.6718 9.88452 14.1393C11.1917 13.6068 12.3796 12.8191 13.3789 11.8223C14.3783 10.8256 15.169 9.63966 15.7048 8.33388C16.2407 7.0281 16.511 5.62863 16.5 4.21722C16.5 4.06138 16.5 3.89638 16.5 3.73138C17.2193 3.19496 17.8397 2.53736 18.3333 1.78805V1.78805Z" fill="white"/>
</svg>
