<svg width="114" height="114" viewBox="0 0 114 114" fill="none" xmlns="http://www.w3.org/2000/svg">
<line x1="3.99805" y1="3.89422" x2="109.902" y2="3.89422" stroke="white" stroke-opacity="0.4" stroke-width="0.211808"/>
<line x1="3.99805" y1="14.4841" x2="109.902" y2="14.4841" stroke="white" stroke-opacity="0.2" stroke-width="0.211808"/>
<line x1="3.99805" y1="25.0745" x2="109.902" y2="25.0745" stroke="white" stroke-opacity="0.2" stroke-width="0.211808"/>
<line x1="3.99805" y1="35.6646" x2="109.902" y2="35.6646" stroke="white" stroke-opacity="0.2" stroke-width="0.211808"/>
<line x1="3.99805" y1="46.2555" x2="109.902" y2="46.2555" stroke="white" stroke-opacity="0.2" stroke-width="0.211808"/>
<line x1="3.99805" y1="56.8456" x2="109.902" y2="56.8456" stroke="white" stroke-opacity="0.2" stroke-width="0.211808"/>
<line x1="3.99805" y1="67.4362" x2="109.902" y2="67.4362" stroke="white" stroke-opacity="0.2" stroke-width="0.211808"/>
<line x1="3.99805" y1="78.0263" x2="109.902" y2="78.0263" stroke="white" stroke-opacity="0.2" stroke-width="0.211808"/>
<line x1="3.99805" y1="88.6174" x2="109.902" y2="88.6174" stroke="white" stroke-opacity="0.2" stroke-width="0.211808"/>
<line x1="3.99805" y1="99.2073" x2="109.902" y2="99.2073" stroke="white" stroke-opacity="0.2" stroke-width="0.211808"/>
<line x1="3.99805" y1="109.797" x2="109.902" y2="109.797" stroke="white" stroke-opacity="0.4" stroke-width="0.211808"/>
<line x1="3.89214" y1="109.903" x2="3.89214" y2="3.99954" stroke="white" stroke-opacity="0.4" stroke-width="0.211808"/>
<line x1="14.482" y1="109.903" x2="14.482" y2="3.99954" stroke="white" stroke-opacity="0.2" stroke-width="0.211808"/>
<line x1="25.0738" y1="109.903" x2="25.0738" y2="3.99954" stroke="white" stroke-opacity="0.2" stroke-width="0.211808"/>
<line x1="35.6636" y1="109.903" x2="35.6636" y2="3.99954" stroke="white" stroke-opacity="0.2" stroke-width="0.211808"/>
<line x1="46.2535" y1="109.903" x2="46.2535" y2="3.99954" stroke="white" stroke-opacity="0.2" stroke-width="0.211808"/>
<line x1="56.8433" y1="109.903" x2="56.8433" y2="3.99954" stroke="white" stroke-opacity="0.2" stroke-width="0.211808"/>
<line x1="67.4351" y1="109.903" x2="67.4351" y2="3.99954" stroke="white" stroke-opacity="0.2" stroke-width="0.211808"/>
<line x1="78.025" y1="109.903" x2="78.0249" y2="3.99954" stroke="white" stroke-opacity="0.2" stroke-width="0.211808"/>
<line x1="88.6168" y1="109.903" x2="88.6167" y2="3.99954" stroke="white" stroke-opacity="0.2" stroke-width="0.211808"/>
<line x1="99.2066" y1="109.903" x2="99.2066" y2="3.99954" stroke="white" stroke-opacity="0.2" stroke-width="0.211808"/>
<line x1="109.796" y1="109.903" x2="109.796" y2="3.99954" stroke="white" stroke-opacity="0.4" stroke-width="0.211808"/>
<path d="M4.2183 3.3269H7.16878V4.37958H4.2183V7.43384H3.15079V4.37958H0.200311V3.3269H3.15079V0.257804H4.2183V3.3269Z" fill="white" fill-opacity="0.8"/>
<path d="M110.476 3.3269H113.427V4.37958H110.476V7.43384H109.409V4.37958H106.458V3.3269H109.409V0.257804H110.476V3.3269Z" fill="white" fill-opacity="0.8"/>
<path d="M4.2183 109.458H7.16878V110.511H4.2183V113.565H3.15079V110.511H0.200311V109.458H3.15079V106.389H4.2183V109.458Z" fill="white" fill-opacity="0.8"/>
<path d="M110.476 109.458H113.427V110.511H110.476V113.565H109.409V110.511H106.458V109.458H109.409V106.389H110.476V109.458Z" fill="white" fill-opacity="0.8"/>
<rect x="4.15618" y="4.15618" width="105.591" height="105.591" stroke="white" stroke-opacity="0.2" stroke-width="0.312366"/>
</svg>