<svg width="48" height="48" viewBox="0 0 48 48" fill="none" xmlns="http://www.w3.org/2000/svg">
<path d="M24 44C35.0457 44 44 35.0457 44 24C44 12.9543 35.0457 4 24 4C12.9543 4 4 12.9543 4 24C4 35.0457 12.9543 44 24 44Z" fill="#FFD7A7" stroke="#FBAB4D" stroke-width="1.5" stroke-linecap="round" stroke-linejoin="round"/>
<path d="M23.2826 15.4536C23.5131 14.9866 23.6284 14.7532 23.7848 14.6786C23.9209 14.6137 24.0791 14.6137 24.2152 14.6786C24.3717 14.7532 24.4869 14.9866 24.7174 15.4536L26.9041 19.8835C26.9721 20.0214 27.0061 20.0903 27.0558 20.1438C27.0999 20.1912 27.1527 20.2296 27.2113 20.2569C27.2776 20.2877 27.3536 20.2988 27.5057 20.321L32.397 21.036C32.9121 21.1112 33.1696 21.1489 33.2888 21.2747C33.3925 21.3841 33.4412 21.5345 33.4215 21.684C33.3988 21.8558 33.2124 22.0374 32.8395 22.4006L29.3014 25.8467C29.1912 25.9541 29.136 26.0078 29.1004 26.0717C29.0689 26.1283 29.0487 26.1905 29.0409 26.2548C29.0321 26.3274 29.0451 26.4032 29.0711 26.555L29.906 31.4224C29.994 31.9357 30.038 32.1924 29.9553 32.3447C29.8833 32.4773 29.7554 32.5702 29.6071 32.5977C29.4366 32.6293 29.2061 32.5081 28.7451 32.2657L24.3724 29.9661C24.2361 29.8944 24.168 29.8586 24.0962 29.8445C24.0327 29.8321 23.9673 29.8321 23.9038 29.8445C23.832 29.8586 23.7639 29.8944 23.6277 29.9661L19.2549 32.2657C18.7939 32.5081 18.5634 32.6293 18.393 32.5977C18.2447 32.5702 18.1167 32.4773 18.0447 32.3447C17.962 32.1924 18.006 31.9357 18.0941 31.4224L18.9289 26.555C18.9549 26.4032 18.9679 26.3274 18.9591 26.2548C18.9513 26.1905 18.9311 26.1283 18.8996 26.0717C18.864 26.0078 18.8089 25.9541 18.6986 25.8467L15.1606 22.4006C14.7877 22.0374 14.6012 21.8558 14.5785 21.684C14.5588 21.5345 14.6076 21.3841 14.7113 21.2747C14.8304 21.1489 15.088 21.1112 15.603 21.036L20.4943 20.321C20.6464 20.2988 20.7225 20.2877 20.7887 20.2569C20.8474 20.2296 20.9002 20.1912 20.9442 20.1438C20.9939 20.0903 21.0279 20.0214 21.096 19.8835L23.2826 15.4536Z" fill="#FFBB7B" stroke="#FBAB4D" stroke-width="1.5" stroke-linecap="round" stroke-linejoin="round"/>
</svg>
