<svg id="Layer_1" xmlns="http://www.w3.org/2000/svg" xmlns:xlink="http://www.w3.org/1999/xlink" viewBox="0 0 254 169"><defs><style>.cls-1{fill:url(#linear-gradient);}.cls-1,.cls-2{stroke-width:0px;}.cls-2{fill:#fff;opacity:.31;}</style><linearGradient id="linear-gradient" x1="256.14" y1="34.52" x2="67.72" y2="108.9" gradientTransform="translate(0 170) scale(1 -1)" gradientUnits="userSpaceOnUse"><stop offset="0" stop-color="#34004d"/><stop offset="1" stop-color="#00257f"/></linearGradient></defs><path class="cls-1" d="m0,169V0h254v169H0Z"/><path class="cls-2" d="m110.44,44.67c-30.68,14.79-31.41,62.29-1.2,78.03,3.53,1.84,3.66,1.79,2.58-.9-3.25-8.12-5.94-22.22-4.1-21.44,11.97,5.02,25.94,5.17,37.17.39,3.2-1.36,1.97,8.46-2.56,20.59-1.21,3.24-1.17,3.26,2.16,1.5,30.39-16.04,29.89-63.28-.82-78.09-2.39-1.15-2.56-1.02-1.6,1.27,1.62,3.87,3.62,11.59,4.59,17.74.72,4.57.7,4.65-1.16,3.77-10.45-4.96-25.55-4.96-37.5,0-2.08.86.03-11.23,3.64-20.88,1.14-3.05,1.11-3.09-1.21-1.97Zm22.71,29.65c18.82,2.72,21.57,14.09,4.47,18.45-16.39,4.18-36.23-2.34-32.61-10.72,2.47-5.71,16.15-9.47,28.13-7.73Z"/></svg>