<svg width="254" height="169" viewBox="0 0 254 169" fill="none" xmlns="http://www.w3.org/2000/svg">
    <path d="M0 8C0 3.58172 3.58172 0 8 0H246C250.418 0 254 3.58172 254 8V169H0V8Z"
        fill="url(#paint0_linear_644_17380)" />
    <rect x="66" y="129" width="122" height="24" rx="4" fill="#CEA2FC" />
    <path
        d="M79.76 137.744C79.76 137.704 79.772 137.672 79.796 137.648C79.828 137.616 79.864 137.6 79.904 137.6H81.008C81.048 137.6 81.08 137.616 81.104 137.648C81.136 137.672 81.152 137.704 81.152 137.744V145.856C81.152 145.896 81.136 145.932 81.104 145.964C81.08 145.988 81.048 146 81.008 146H79.94C79.86 146 79.804 145.968 79.772 145.904L76.316 140.24C76.3 140.216 76.284 140.208 76.268 140.216C76.252 140.216 76.244 140.232 76.244 140.264L76.268 145.856C76.268 145.896 76.252 145.932 76.22 145.964C76.196 145.988 76.164 146 76.124 146H75.02C74.98 146 74.944 145.988 74.912 145.964C74.888 145.932 74.876 145.896 74.876 145.856V137.744C74.876 137.704 74.888 137.672 74.912 137.648C74.944 137.616 74.98 137.6 75.02 137.6H76.088C76.168 137.6 76.224 137.632 76.256 137.696L79.7 143.36C79.716 143.384 79.732 143.396 79.748 143.396C79.764 143.388 79.772 143.368 79.772 143.336L79.76 137.744ZM88.4859 138.656C88.4859 138.696 88.4699 138.732 88.4379 138.764C88.4139 138.788 88.3819 138.8 88.3419 138.8H84.2499C84.2099 138.8 84.1899 138.82 84.1899 138.86V141.104C84.1899 141.144 84.2099 141.164 84.2499 141.164H86.9979C87.0379 141.164 87.0699 141.18 87.0939 141.212C87.1259 141.236 87.1419 141.268 87.1419 141.308V142.22C87.1419 142.26 87.1259 142.296 87.0939 142.328C87.0699 142.352 87.0379 142.364 86.9979 142.364H84.2499C84.2099 142.364 84.1899 142.384 84.1899 142.424V144.74C84.1899 144.78 84.2099 144.8 84.2499 144.8H88.3419C88.3819 144.8 88.4139 144.816 88.4379 144.848C88.4699 144.872 88.4859 144.904 88.4859 144.944V145.856C88.4859 145.896 88.4699 145.932 88.4379 145.964C88.4139 145.988 88.3819 146 88.3419 146H82.9419C82.9019 146 82.8659 145.988 82.8339 145.964C82.8099 145.932 82.7979 145.896 82.7979 145.856V137.744C82.7979 137.704 82.8099 137.672 82.8339 137.648C82.8659 137.616 82.9019 137.6 82.9419 137.6H88.3419C88.3819 137.6 88.4139 137.616 88.4379 137.648C88.4699 137.672 88.4859 137.704 88.4859 137.744V138.656ZM91.7929 146C91.7049 146 91.6489 145.96 91.6249 145.88L89.4409 137.756L89.4289 137.708C89.4289 137.636 89.4729 137.6 89.5609 137.6H90.7369C90.8249 137.6 90.8809 137.64 90.9049 137.72L92.2729 143.192C92.2809 143.216 92.2929 143.228 92.3089 143.228C92.3249 143.228 92.3369 143.216 92.3449 143.192L93.6529 137.72C93.6769 137.64 93.7289 137.6 93.8089 137.6H94.9609C95.0489 137.6 95.1049 137.64 95.1289 137.72L96.5209 143.204C96.5289 143.228 96.5409 143.24 96.5569 143.24C96.5729 143.24 96.5849 143.228 96.5929 143.204L97.9369 137.72C97.9609 137.64 98.0169 137.6 98.1049 137.6H99.2209C99.3329 137.6 99.3769 137.652 99.3529 137.756L97.2769 145.88C97.2529 145.96 97.1969 146 97.1089 146H95.9929C95.9049 146 95.8489 145.96 95.8249 145.88L94.4209 140.156C94.4129 140.132 94.4009 140.12 94.3849 140.12C94.3689 140.112 94.3569 140.124 94.3489 140.156L93.0049 145.88C92.9809 145.96 92.9289 146 92.8489 146H91.7929ZM108.15 146C108.07 146 108.018 145.96 107.994 145.88L107.598 144.596C107.582 144.564 107.562 144.548 107.538 144.548H104.37C104.346 144.548 104.326 144.564 104.31 144.596L103.914 145.88C103.89 145.96 103.838 146 103.758 146H102.558C102.51 146 102.474 145.988 102.45 145.964C102.426 145.932 102.422 145.888 102.438 145.832L105.042 137.72C105.066 137.64 105.118 137.6 105.198 137.6H106.698C106.778 137.6 106.83 137.64 106.854 137.72L109.47 145.832C109.478 145.848 109.482 145.868 109.482 145.892C109.482 145.964 109.438 146 109.35 146H108.15ZM104.682 143.384C104.674 143.432 104.69 143.456 104.73 143.456H107.166C107.214 143.456 107.23 143.432 107.214 143.384L105.978 139.364C105.97 139.332 105.958 139.316 105.942 139.316C105.926 139.316 105.914 139.332 105.906 139.364L104.682 143.384ZM113.321 146.096C112.721 146.096 112.193 145.98 111.737 145.748C111.281 145.508 110.929 145.176 110.681 144.752C110.433 144.328 110.309 143.836 110.309 143.276V140.312C110.309 139.752 110.433 139.26 110.681 138.836C110.929 138.412 111.281 138.084 111.737 137.852C112.193 137.62 112.721 137.504 113.321 137.504C113.913 137.504 114.437 137.616 114.893 137.84C115.349 138.064 115.701 138.38 115.949 138.788C116.197 139.196 116.321 139.668 116.321 140.204C116.321 140.244 116.305 140.28 116.273 140.312C116.249 140.336 116.217 140.348 116.177 140.348L115.073 140.408C114.977 140.408 114.929 140.364 114.929 140.276C114.929 139.804 114.781 139.424 114.485 139.136C114.197 138.848 113.809 138.704 113.321 138.704C112.833 138.704 112.441 138.848 112.145 139.136C111.849 139.424 111.701 139.804 111.701 140.276V143.336C111.701 143.8 111.849 144.176 112.145 144.464C112.441 144.752 112.833 144.896 113.321 144.896C113.809 144.896 114.197 144.756 114.485 144.476C114.781 144.188 114.929 143.808 114.929 143.336C114.929 143.248 114.977 143.204 115.073 143.204L116.177 143.252C116.217 143.252 116.249 143.264 116.273 143.288C116.305 143.312 116.321 143.34 116.321 143.372C116.321 143.916 116.197 144.396 115.949 144.812C115.701 145.22 115.349 145.536 114.893 145.76C114.437 145.984 113.913 146.096 113.321 146.096ZM122.386 137.744C122.386 137.704 122.398 137.672 122.422 137.648C122.454 137.616 122.49 137.6 122.53 137.6H123.634C123.674 137.6 123.706 137.616 123.73 137.648C123.762 137.672 123.778 137.704 123.778 137.744V145.856C123.778 145.896 123.762 145.932 123.73 145.964C123.706 145.988 123.674 146 123.634 146H122.53C122.49 146 122.454 145.988 122.422 145.964C122.398 145.932 122.386 145.896 122.386 145.856V142.424C122.386 142.384 122.366 142.364 122.326 142.364H119.266C119.226 142.364 119.206 142.384 119.206 142.424V145.856C119.206 145.896 119.19 145.932 119.158 145.964C119.134 145.988 119.102 146 119.062 146H117.958C117.918 146 117.882 145.988 117.85 145.964C117.826 145.932 117.814 145.896 117.814 145.856V137.744C117.814 137.704 117.826 137.672 117.85 137.648C117.882 137.616 117.918 137.6 117.958 137.6H119.062C119.102 137.6 119.134 137.616 119.158 137.648C119.19 137.672 119.206 137.704 119.206 137.744V141.104C119.206 141.144 119.226 141.164 119.266 141.164H122.326C122.366 141.164 122.386 141.144 122.386 141.104V137.744ZM125.598 146C125.558 146 125.522 145.988 125.49 145.964C125.466 145.932 125.454 145.896 125.454 145.856V137.744C125.454 137.704 125.466 137.672 125.49 137.648C125.522 137.616 125.558 137.6 125.598 137.6H126.702C126.742 137.6 126.774 137.616 126.798 137.648C126.83 137.672 126.846 137.704 126.846 137.744V145.856C126.846 145.896 126.83 145.932 126.798 145.964C126.774 145.988 126.742 146 126.702 146H125.598ZM134.283 138.656C134.283 138.696 134.267 138.732 134.235 138.764C134.211 138.788 134.179 138.8 134.139 138.8H130.047C130.007 138.8 129.987 138.82 129.987 138.86V141.104C129.987 141.144 130.007 141.164 130.047 141.164H132.795C132.835 141.164 132.867 141.18 132.891 141.212C132.923 141.236 132.939 141.268 132.939 141.308V142.22C132.939 142.26 132.923 142.296 132.891 142.328C132.867 142.352 132.835 142.364 132.795 142.364H130.047C130.007 142.364 129.987 142.384 129.987 142.424V144.74C129.987 144.78 130.007 144.8 130.047 144.8H134.139C134.179 144.8 134.211 144.816 134.235 144.848C134.267 144.872 134.283 144.904 134.283 144.944V145.856C134.283 145.896 134.267 145.932 134.235 145.964C134.211 145.988 134.179 146 134.139 146H128.739C128.699 146 128.663 145.988 128.631 145.964C128.607 145.932 128.595 145.896 128.595 145.856V137.744C128.595 137.704 128.607 137.672 128.631 137.648C128.663 137.616 128.699 137.6 128.739 137.6H134.139C134.179 137.6 134.211 137.616 134.235 137.648C134.267 137.672 134.283 137.704 134.283 137.744V138.656ZM137.974 146C137.894 146 137.842 145.96 137.818 145.88L135.298 137.768L135.286 137.72C135.286 137.64 135.33 137.6 135.418 137.6H136.606C136.694 137.6 136.75 137.64 136.774 137.72L138.574 143.984C138.582 144.008 138.594 144.02 138.61 144.02C138.626 144.02 138.638 144.008 138.646 143.984L140.434 137.72C140.458 137.64 140.514 137.6 140.602 137.6H141.766C141.814 137.6 141.85 137.616 141.874 137.648C141.898 137.68 141.902 137.72 141.886 137.768L139.33 145.88C139.306 145.96 139.254 146 139.174 146H137.974ZM148.709 138.656C148.709 138.696 148.693 138.732 148.661 138.764C148.637 138.788 148.605 138.8 148.565 138.8H144.473C144.433 138.8 144.413 138.82 144.413 138.86V141.104C144.413 141.144 144.433 141.164 144.473 141.164H147.221C147.261 141.164 147.293 141.18 147.317 141.212C147.349 141.236 147.365 141.268 147.365 141.308V142.22C147.365 142.26 147.349 142.296 147.317 142.328C147.293 142.352 147.261 142.364 147.221 142.364H144.473C144.433 142.364 144.413 142.384 144.413 142.424V144.74C144.413 144.78 144.433 144.8 144.473 144.8H148.565C148.605 144.8 148.637 144.816 148.661 144.848C148.693 144.872 148.709 144.904 148.709 144.944V145.856C148.709 145.896 148.693 145.932 148.661 145.964C148.637 145.988 148.605 146 148.565 146H143.165C143.125 146 143.089 145.988 143.057 145.964C143.033 145.932 143.021 145.896 143.021 145.856V137.744C143.021 137.704 143.033 137.672 143.057 137.648C143.089 137.616 143.125 137.6 143.165 137.6H148.565C148.605 137.6 148.637 137.616 148.661 137.648C148.693 137.672 148.709 137.704 148.709 137.744V138.656ZM155.534 137.696C155.574 137.632 155.63 137.6 155.702 137.6H156.806C156.846 137.6 156.878 137.616 156.902 137.648C156.934 137.672 156.95 137.704 156.95 137.744V145.856C156.95 145.896 156.934 145.932 156.902 145.964C156.878 145.988 156.846 146 156.806 146H155.702C155.662 146 155.626 145.988 155.594 145.964C155.57 145.932 155.558 145.896 155.558 145.856V140.132C155.558 140.108 155.546 140.092 155.522 140.084C155.506 140.076 155.494 140.084 155.486 140.108L153.986 142.412C153.946 142.476 153.89 142.508 153.818 142.508H153.266C153.194 142.508 153.138 142.476 153.098 142.412L151.586 140.12C151.578 140.096 151.562 140.088 151.538 140.096C151.522 140.104 151.514 140.12 151.514 140.144V145.856C151.514 145.896 151.498 145.932 151.466 145.964C151.442 145.988 151.41 146 151.37 146H150.266C150.226 146 150.19 145.988 150.158 145.964C150.134 145.932 150.122 145.896 150.122 145.856V137.744C150.122 137.704 150.134 137.672 150.158 137.648C150.19 137.616 150.226 137.6 150.266 137.6H151.37C151.442 137.6 151.498 137.632 151.538 137.696L153.494 140.66C153.51 140.676 153.526 140.684 153.542 140.684C153.558 140.684 153.57 140.676 153.578 140.66L155.534 137.696ZM164.388 138.656C164.388 138.696 164.372 138.732 164.34 138.764C164.316 138.788 164.284 138.8 164.244 138.8H160.152C160.112 138.8 160.092 138.82 160.092 138.86V141.104C160.092 141.144 160.112 141.164 160.152 141.164H162.9C162.94 141.164 162.972 141.18 162.996 141.212C163.028 141.236 163.044 141.268 163.044 141.308V142.22C163.044 142.26 163.028 142.296 162.996 142.328C162.972 142.352 162.94 142.364 162.9 142.364H160.152C160.112 142.364 160.092 142.384 160.092 142.424V144.74C160.092 144.78 160.112 144.8 160.152 144.8H164.244C164.284 144.8 164.316 144.816 164.34 144.848C164.372 144.872 164.388 144.904 164.388 144.944V145.856C164.388 145.896 164.372 145.932 164.34 145.964C164.316 145.988 164.284 146 164.244 146H158.844C158.804 146 158.768 145.988 158.736 145.964C158.712 145.932 158.7 145.896 158.7 145.856V137.744C158.7 137.704 158.712 137.672 158.736 137.648C158.768 137.616 158.804 137.6 158.844 137.6H164.244C164.284 137.6 164.316 137.616 164.34 137.648C164.372 137.672 164.388 137.704 164.388 137.744V138.656ZM170.686 137.744C170.686 137.704 170.698 137.672 170.722 137.648C170.754 137.616 170.79 137.6 170.83 137.6H171.934C171.974 137.6 172.006 137.616 172.03 137.648C172.062 137.672 172.078 137.704 172.078 137.744V145.856C172.078 145.896 172.062 145.932 172.03 145.964C172.006 145.988 171.974 146 171.934 146H170.866C170.786 146 170.73 145.968 170.698 145.904L167.242 140.24C167.226 140.216 167.21 140.208 167.194 140.216C167.178 140.216 167.17 140.232 167.17 140.264L167.194 145.856C167.194 145.896 167.178 145.932 167.146 145.964C167.122 145.988 167.09 146 167.05 146H165.946C165.906 146 165.87 145.988 165.838 145.964C165.814 145.932 165.802 145.896 165.802 145.856V137.744C165.802 137.704 165.814 137.672 165.838 137.648C165.87 137.616 165.906 137.6 165.946 137.6H167.014C167.094 137.6 167.15 137.632 167.182 137.696L170.626 143.36C170.642 143.384 170.658 143.396 170.674 143.396C170.69 143.388 170.698 143.368 170.698 143.336L170.686 137.744ZM179.349 137.6C179.389 137.6 179.421 137.616 179.445 137.648C179.477 137.672 179.493 137.704 179.493 137.744V138.668C179.493 138.708 179.477 138.744 179.445 138.776C179.421 138.8 179.389 138.812 179.349 138.812H177.141C177.101 138.812 177.081 138.832 177.081 138.872V145.856C177.081 145.896 177.065 145.932 177.033 145.964C177.009 145.988 176.977 146 176.937 146H175.833C175.793 146 175.757 145.988 175.725 145.964C175.701 145.932 175.689 145.896 175.689 145.856V138.872C175.689 138.832 175.669 138.812 175.629 138.812H173.505C173.465 138.812 173.429 138.8 173.397 138.776C173.373 138.744 173.361 138.708 173.361 138.668V137.744C173.361 137.704 173.373 137.672 173.397 137.648C173.429 137.616 173.465 137.6 173.505 137.6H179.349Z"
        fill="#1C046C" />
    <path fill-rule="evenodd" clip-rule="evenodd"
        d="M110.439 44.6706C79.7577 59.4558 79.0302 106.957 109.243 122.697C112.774 124.536 112.905 124.491 111.827 121.795C108.577 113.671 105.884 99.5798 107.729 100.354C119.703 105.375 133.673 105.522 144.896 100.745C148.093 99.3839 146.87 109.209 142.334 121.331C141.123 124.566 141.161 124.593 144.495 122.834C174.882 106.795 174.387 59.549 143.677 44.74C141.283 43.5859 141.116 43.7192 142.079 46.0127C143.703 49.8812 145.699 57.6009 146.664 63.7514C147.382 68.3259 147.36 68.3984 145.504 67.5169C135.055 62.5535 119.954 62.5565 108.004 67.524C105.925 68.3885 108.033 56.2952 111.645 46.6424C112.785 43.5962 112.758 43.5527 110.439 44.6706ZM133.146 74.322C151.962 77.0432 154.718 88.4109 137.62 92.7739C121.234 96.955 101.385 90.4296 105.014 82.0551C107.488 76.3493 121.165 72.5894 133.146 74.322Z"
        fill="rgba(255,255,255,0.25)" />
    <defs>
        <linearGradient id="paint0_linear_644_17380" x1="242.993" y1="169" x2="56.0761" y2="95.2086"
            gradientUnits="userSpaceOnUse">
            <stop stop-color="#34004D" />
            <stop offset="1" stop-color="#00257F" />
        </linearGradient>
    </defs>
</svg>