<svg width="460" height="215" viewBox="0 0 460 215" fill="none" xmlns="http://www.w3.org/2000/svg">
<g clip-path="url(#clip0_1_6)">
<path d="M0 215V0H460V215H0Z" fill="url(#paint0_linear_1_6)"/>
<path opacity="0.31" d="M213.44 67.67C182.76 82.46 182.03 129.96 212.24 145.7C215.77 147.54 215.9 147.49 214.82 144.8C211.57 136.68 208.88 122.58 210.72 123.36C222.69 128.38 236.66 128.53 247.89 123.75C251.09 122.39 249.86 132.21 245.33 144.34C244.12 147.58 244.16 147.6 247.49 145.84C277.88 129.8 277.38 82.56 246.67 67.75C244.28 66.6 244.11 66.73 245.07 69.02C246.69 72.89 248.69 80.61 249.66 86.76C250.38 91.33 250.36 91.41 248.5 90.53C238.05 85.57 222.95 85.57 211 90.53C208.92 91.39 211.03 79.3 214.64 69.65C215.78 66.6 215.75 66.56 213.43 67.68L213.44 67.67ZM236.15 97.32C254.97 100.04 257.72 111.41 240.62 115.77C224.23 119.95 204.39 113.43 208.01 105.05C210.48 99.34 224.16 95.58 236.14 97.32H236.15Z" fill="white"/>
</g>
<defs>
<linearGradient id="paint0_linear_1_6" x1="463.876" y1="172.356" x2="164.126" y2="3.91053" gradientUnits="userSpaceOnUse">
<stop stop-color="#34004D"/>
<stop offset="1" stop-color="#00257F"/>
</linearGradient>
<clipPath id="clip0_1_6">
<rect width="460" height="215" fill="white"/>
</clipPath>
</defs>
</svg>
